<?xml version="1.0" encoding="utf-8"?>
<!-- Generator: Adobe Illustrator 16.0.0, SVG Export Plug-In . SVG Version: 6.00 Build 0)  -->
<!DOCTYPE svg PUBLIC "-//W3C//DTD SVG 1.1//EN" "http://www.w3.org/Graphics/SVG/1.1/DTD/svg11.dtd">
<svg version="1.1" id="Layer_1" xmlns="http://www.w3.org/2000/svg" xmlns:xlink="http://www.w3.org/1999/xlink" x="0px" y="0px"
	 width="20px" height="20px" viewBox="0 0 20 20" enable-background="new 0 0 20 20" xml:space="preserve">
<ellipse transform="matrix(0.8287 -0.5597 0.5597 0.8287 -0.996 3.1522)" fill="#8080C0" stroke="#000000" stroke-width="0.5" stroke-miterlimit="10" cx="4.651" cy="3.203" rx="3.078" ry="1.672"/>
<ellipse transform="matrix(0.8287 -0.5598 0.5598 0.8287 -0.996 3.1523)" fill="#A6CAF0" cx="4.651" cy="3.203" rx="2.358" ry="1.281"/>
<ellipse transform="matrix(-0.9312 -0.3645 0.3645 -0.9312 6.5225 36.3171)" fill="#8080C0" stroke="#000000" stroke-width="0.5" stroke-miterlimit="10" cx="6.689" cy="17.543" rx="3.078" ry="1.672"/>
<ellipse transform="matrix(-0.4572 -0.8893 0.8893 -0.4572 19.9029 24.5855)" fill="#8080C0" stroke="#000000" stroke-width="0.5" stroke-miterlimit="10" cx="17.454" cy="6.219" rx="3.079" ry="1.672"/>
<path fill="#A6CAF0" d="M16.398,4.168c0.615-0.316,1.588,0.346,2.17,1.479c0.581,1.132-1.647,2.277-2.229,1.143
	C15.757,5.659,15.784,4.485,16.398,4.168z"/>
<circle fill="#8080C0" stroke="#000000" stroke-width="0.5" stroke-miterlimit="10" cx="10.002" cy="10.002" r="8.671"/>
<path fill="#8060C0" d="M9.958,14.875c3.442,0,7.406-2.637,7.073-1.563c-0.813,2.625-3.557,4.663-7,4.663
	c-3.443,0-6.288-2.105-7.108-4.652C2.588,12.283,6.515,14.875,9.958,14.875z"/>
<path fill="#A6CAF0" d="M17.813,10c0,1.994-3.899,0.338-7.811,0.344C6.069,10.35,2.125,12.006,2.125,10c0-4,3.512-7.844,7.844-7.844
	S17.813,6,17.813,10z"/>
<ellipse transform="matrix(0.8107 -0.5854 0.5854 0.8107 -4.884 9.7215)" fill="#8080C0" stroke="#000000" stroke-width="0.5" stroke-miterlimit="10" cx="12.593" cy="12.414" rx="4.25" ry="3.735"/>
<path fill="#A6CAF0" d="M15.5,10.315c0.363,0.324-1.008,0.116-2.906,0.575c-1.373,0.332-3.76,2.484-3.345,1.141
	c0.25-0.808,0.718-1.606,1.501-2.172C12.355,8.7,14.482,8.904,15.5,10.315z"/>
<path fill="#8060C0" d="M15.743,13.793c-0.284,0.499-0.688,0.956-1.198,1.325c-1.699,1.226-3.95,1.009-5.028-0.482
	C8.439,13.142,16.404,12.631,15.743,13.793z"/>
<ellipse transform="matrix(0.8108 -0.5853 0.5853 0.8108 -5.0506 10.0165)" fill="#C41C1C" stroke="#000000" stroke-width="0.5" stroke-miterlimit="10" cx="12.968" cy="12.82" rx="2.611" ry="2.295"/>
<ellipse transform="matrix(0.9567 -0.291 0.291 0.9567 -2.8408 4.248)" fill="#FFFFFF" cx="12.863" cy="11.676" rx="0.95" ry="0.656"/>
</svg>
