<?xml version="1.0" encoding="utf-8"?>
<!-- Generator: Adobe Illustrator 16.0.0, SVG Export Plug-In . SVG Version: 6.00 Build 0)  -->
<!DOCTYPE svg PUBLIC "-//W3C//DTD SVG 1.1//EN" "http://www.w3.org/Graphics/SVG/1.1/DTD/svg11.dtd">
<svg version="1.1" id="Layer_1" xmlns="http://www.w3.org/2000/svg" xmlns:xlink="http://www.w3.org/1999/xlink" x="0px" y="0px"
	 width="1199.965px" height="400px" viewBox="0 0 1199.965 400" enable-background="new 0 0 1199.965 400" xml:space="preserve">
<g>
	<polygon fill="#030B14" points="1181.666,7.667 1169,3.333 1144.286,51.667 1107.666,9.333 932,45 906.333,13.333 880,18 
		796.074,113.493 632,6.333 617.666,3.333 609,32 542.668,55.338 462,34 457.533,11.555 439.537,12 394.12,111 278,12.333 
		264.564,2.361 255.526,51.24 205.294,28.719 153.555,50.738 152.363,10.039 127,15.333 44.116,45.333 24.795,2.725 13,5.333 
		0.125,116.034 0.125,399.977 400.045,399.977 799.965,399.977 799.965,396.312 800.045,399.977 1199.965,399.977 1199.965,116.034 
			"/>
	<g>
		<g>
			<polygon fill="#003140" points="842.339,258.513 841,293.5 864.335,238.927 			"/>
			<polygon fill="#003140" points="848.5,217 868.256,196.267 874,130.031 862.376,117.831 848.5,168.738 834,174.5 833.537,126 
				823,118.702 823,215.5 833.5,191.121 845,189 854.5,191.121 844.489,202.345 842.951,242.518 864.896,232.951 866.777,212.878 
							"/>
		</g>
		<polygon fill="#003140" points="886.5,178.865 892.401,183.484 901.025,130.031 883.825,124.599 876.945,180.308 893.92,212.878 
					"/>
	</g>
	<g>
		<polygon fill="#003140" points="1000.006,245.516 1019.299,240.485 1021.806,225.898 1025.5,222.77 1027.75,211.772 
			1024.75,208.626 1031.5,139 1022,139 1015.5,171.022 1000.005,178.865 993.499,139 978.01,139 981.985,178.865 988.5,182 
			989.5,204.5 985.236,211.477 987.023,229.398 1002.005,233.943 988.008,237.979 996.764,262.759 1015.9,265.689 1018.002,248.01 
					"/>
	</g>
	<g>
		<polygon fill="#003140" points="1185.096,191.121 1185.096,191.123 1185.096,191.123 		"/>
		<polygon fill="#003140" points="1174.088,111 1187,126.5 1185.096,191.121 1199.965,116.034 		"/>
		<polygon fill="#003140" points="1158.5,201.655 1170,139.295 1143.585,135.879 1135,177.189 1129.5,134.058 1117.185,123.033 
			1117.382,171.021 1103,201.655 1117.482,195.522 1123.13,219.006 1141,227.698 1125.777,230.015 1125.449,242.528 1127,269.5 
			1153.396,212.648 1129.5,209.5 		"/>
	</g>
	<polygon fill="#003140" points="943.843,224.347 937,216.5 927,178.793 947,176.5 925.241,166.555 919.991,130.031 962.5,139.295 
		955.281,181.822 941.246,189 951.277,196.709 	"/>
	<polygon fill="#003140" points="1047.495,219.013 1042.871,123.033 1072.936,134.058 1061.383,150.597 1050.495,153.527 
		1062.992,159.025 	"/>
</g>
<g>
	<g>
		<polygon fill="#003140" points="68.185,323 69.138,310.643 58.781,307.995 69.744,302.691 70.556,292.107 57.312,293.811 
			54.782,309.331 60.952,325.788 		"/>
		<polygon fill="#003140" points="101.104,130.031 72.614,121.033 67.111,174.022 62.459,117.831 44.116,112.035 45.28,140.021 
			49.865,141.529 49.365,161.775 46.256,163.36 47.333,189.339 70.556,189.687 47.65,197.002 48.115,208.015 53.055,225.316 
			58.113,225.348 60.113,237.509 57.367,240.399 59.613,248.257 58.093,289.007 71.079,285.343 72.61,265.34 77.25,250.007 
			77.859,238.009 82.78,231.745 88.607,212.515 70.556,211.702 89.103,204.93 93.305,178.721 88.857,173.522 90.856,159.025 
			96.73,157.338 		"/>
	</g>
	<g>
		<polygon fill="#003140" points="209.418,250.007 213.761,213.49 196.828,214.396 		"/>
		<polygon fill="#003140" points="198.085,191.519 217.378,186.488 219.885,171.902 223.58,168.773 225.83,157.776 222.83,154.776 
			227.079,130.031 178.089,115.034 185.103,175.549 200.084,180.021 186.087,184.021 194.843,208.78 213.98,211.702 
			216.082,194.018 		"/>
	</g>
	<polygon fill="#003140" points="368.926,194.019 365.301,209.335 343.392,213.49 363.286,217.055 359.568,232 355.803,232 
		351.054,254.977 353.749,257.8 349.391,276.469 347.774,301.925 333.058,306.283 347.305,309.323 345.602,335.989 334.729,338.653 
		345.266,341.324 344.837,347.972 336.245,351.072 329.684,333.076 340.494,327.663 327.325,326.593 325.146,320.603 
		343.728,316.665 322.724,313.994 323.771,305.526 327.809,302.246 330.558,284 326.434,283.734 327.395,275.924 345.391,271.339 
		328.293,268.62 331.394,243.344 324.216,207.047 335.058,203.017 322.529,198.533 320.061,186.02 323.896,128.032 307.977,116.034 
		338.706,121.221 349.391,165.692 354.038,123.814 373.012,125.032 371.238,155.042 374.55,156.026 373.012,169.523 370.23,172.007 
			"/>
	<polygon fill="#003140" points="139.597,195.018 136.902,123.056 118.101,115.034 120.101,112.035 148.361,120.822 	"/>
	<polygon fill="#003140" points="274.57,195.018 272.82,126.508 288.067,123.033 283.068,139.029 	"/>
</g>
<g>
	<g>
		<polygon fill="#003140" points="501.025,130.031 483.825,124.599 479.029,175.022 465.532,159.025 462.376,117.831 
			444.036,112.035 445.2,140.021 439.537,141.529 439.537,163.368 446.723,176.596 447.254,189.34 467.531,200.521 447.566,197.002 
			448.035,208.015 452.972,225.316 458.033,225.348 460.033,237.509 457.283,240.399 459.533,248.257 467.531,255.74 471,285.344 
			472.53,265.34 477.17,250.007 477.779,238.009 482.7,231.745 488.527,212.515 503.524,211.702 489.027,204.93 492.526,195.018 
			501.025,191.519 503.524,166.555 496.65,157.338 		"/>
	</g>
	<g>
		<polygon fill="#003140" points="601.341,274.002 605.684,237.485 588.75,238.392 		"/>
		<polygon fill="#003140" points="598.006,207.516 617.299,202.485 619.806,187.898 623.5,184.77 625.75,173.772 622.75,170.773 
			627,130.031 578.01,131.031 585.023,191.546 600.005,196.018 586.008,200.017 594.764,224.777 613.9,227.698 616.002,210.015 		
			"/>
	</g>
	<polygon fill="#003140" points="768.846,218.013 765.222,233.33 743.313,237.485 763.207,241.053 759.488,256 755.724,256 
		750.975,278.975 753.67,281.796 749.311,300.465 731.479,329.991 730.479,307.994 726.354,307.729 727.315,299.919 
		745.312,295.334 728.214,292.615 731.314,267.339 724.137,231.042 734.979,227.012 722.449,222.528 722.777,210.015 
		714.482,175.522 717.185,123.033 730.479,128.532 739.977,195.018 755.974,166.555 759.309,118.702 772.971,127.032 
		771.33,179.037 774.088,184.095 772.979,193.519 770.166,196.002 	"/>
	<polygon fill="#003140" points="544.352,166.555 539.885,163.368 535.955,130.531 512.991,120.533 544.516,112.035 
		548.281,120.822 	"/>
	<polygon fill="#003140" points="647.495,219.013 642.871,123.033 672.936,134.058 661.383,150.597 650.495,153.527 
		662.992,159.025 	"/>
	<polygon fill="#6AD1D6" points="1199.965,0.057 1169,3.333 1174.47,11.555 1138,9 1103.984,18.054 1107.666,9.333 1065.666,7 
		1057.903,14.333 1034.333,10 1022.5,11.555 990.729,6.913 963,9 933.354,18.722 896.333,19 906.333,13.333 857.533,11.555 
		848.535,6.556 825.04,9.055 800.045,0.057 799.965,0.076 799.965,0.057 775.993,5.791 774.47,11.555 737.478,9.555 703.984,18.054 
		698.985,10.055 667.491,9.555 663.492,5.056 617.666,3.333 622.5,11.555 582.165,5.662 578.01,15.386 533.354,18.722 
		525.355,13.387 501.025,16.554 467.952,12.752 451.333,17.333 457.533,11.555 448.535,6.556 425.04,9.055 400.045,0.057 
		378.057,8.056 371.051,0.057 332.058,3.557 328.731,11.387 286.067,0.057 264.564,2.361 270.667,14 250.27,2.424 221.081,0.057 
		191.086,14.054 160.642,10.898 138,17.667 152.363,10.039 133.231,8.056 126.099,0.057 67.611,3.057 62.667,10.055 19.667,13 
		24.795,2.725 0.125,0.057 0.125,116.034 15.778,114.612 25.12,108.704 24.432,113.824 44.116,112.035 62.459,117.831 
		85.775,115.034 72.614,121.033 101.104,130.031 136.902,123.056 121.6,115.034 148.361,120.822 178.089,115.034 227.079,130.031 
		255.074,131.777 262.072,125.532 272.82,126.508 283.068,139.029 298.565,141.529 324.06,127.032 308.063,116.034 338.706,121.221 
		359.389,118.702 354.038,123.814 373.05,127.032 398.915,116.495 415.698,114.612 425.04,108.704 424.353,113.824 444.036,112.035 
		462.376,117.831 480.529,118.534 483.825,124.599 501.025,130.031 520.755,126.184 512.522,120.533 544.516,112.035 
		548.281,120.822 578.01,131.031 627,130.031 642.496,123.033 655.494,133.031 672.936,134.058 687.987,130.031 702.984,131.031 
		717.185,123.033 730.479,128.532 738.626,121.221 759.309,118.702 761.387,125.071 772.971,127.032 799.965,116.034 
		799.965,112.757 815.698,114.612 825.04,108.704 823,118.702 833.537,126 862.376,117.831 874,130.031 883.825,124.599 
		901.025,130.031 927,118.702 919.991,130.031 962.5,139.295 948.281,120.822 978.01,139.295 993.499,139.295 1000.005,130.031 
		1020,134.058 1022,139.295 1031.5,139.295 1042.496,123.033 1055.494,133.031 1072.936,134.058 1092.5,123.033 1089,134.058 
		1117.185,123.033 1129.5,134.058 1157,130.031 1143.585,135.879 1170,139.295 1187,126.5 1174.088,111 1199.965,116.034 	"/>
</g>
<path fill="#003140" d="M82.5-408.833c0,6.903-11.604,9.667-25.917,9.667c-14.313,0-31.25,1.5-25.917-9.667
	c2.975-6.229,11.604-12.5,25.917-12.5C70.896-421.333,82.5-415.736,82.5-408.833z"/>
<path fill="#6AD1D6" d="M79.34-410.917c0,5.293-10.665,3.417-23.259,3.417s-26.414,3.833-23.581-2.833
	c2.07-4.871,11.44-10.166,24.035-10.166S79.34-416.208,79.34-410.917z"/>
<path fill="#39B54A" stroke="#006837" stroke-miterlimit="10" d="M86.185-408.5h-8.841c0,0,2.947-6.39,0-14.003
	c-2.947-7.613-3.192-9.948,0-15.351c3.193-5.403,2.702-10.378,0-16.763c-2.701-6.385-3.438-9.362,0-15.257
	c3.438-5.894,3.193-8.365,0-16.715c-3.192-8.35,1.474-10.814,0-17.445c-1.473-6.631,3.929-10.319,8.596-10.319
	c4.666,0,0.246,4.419,0.246,10.313s-4.42,12.278,0,17.19s4.42,9.085,0,15.226s-2.947,11.79,0,17.192s4.667,11.05,0,15.716
	c-4.666,4.667-4.42,13.512,0,17.441S86.185-408.5,86.185-408.5z"/>
<path fill="#22B573" stroke="#006837" stroke-miterlimit="10" d="M78-406.5h-7.512c0,0,3.845-5.667-1.655-16
	c-5.206-9.781-7.167-16.375-2.833-23.708s3.667-14.064,0-22.73s-4.667-12.696,0-20.697s4.333-11.349,0-22.683s2-14.675,0-23.675
	s5.333-14.004,11.667-14.004S78-543.998,78-535.998s-6,16.666,0,23.333s6,12.332,0,20.666s-4,16.002,0,23.334
	c4,7.333,6.333,14.999,0,21.333s-4.66,18.167,1.34,23.5S78-406.5,78-406.5z"/>
<path fill="#003140" d="M94.667-401.667c2.322,6.557-7.576,5.391-15.084,5.391c-7.508,0-17.904,0.12-15.583-6.517
	c1.195-3.418,8.075-6.597,15.583-6.597C87.091-409.39,93.458-405.08,94.667-401.667z"/>
<path fill="#6AD1D6" d="M91.167-404.5c2.333,5.384-5.986,1.707-11.827,1.707c-5.841,0-15.262,3.343-13.173-1.041
	c1.049-2.203,6.619-5,12.46-5C84.468-408.833,90.197-406.739,91.167-404.5z"/>
</svg>
