<?xml version="1.0" encoding="utf-8"?>
<!-- Generator: Adobe Illustrator 16.0.0, SVG Export Plug-In . SVG Version: 6.00 Build 0)  -->
<!DOCTYPE svg PUBLIC "-//W3C//DTD SVG 1.1//EN" "http://www.w3.org/Graphics/SVG/1.1/DTD/svg11.dtd">
<svg version="1.1" id="Layer_1" xmlns="http://www.w3.org/2000/svg" xmlns:xlink="http://www.w3.org/1999/xlink" x="0px" y="0px"
	 width="186px" height="36.559px" viewBox="0 0 186 36.559" enable-background="new 0 0 186 36.559" xml:space="preserve">
<g>
	<path fill="#FFFF00" stroke="#E06000" stroke-miterlimit="10" d="M26.468,11.509l-5.485,3.667c0,0-2.353,1.806-5.796,1.553
		C10.217,16.363,7.14,10.01,0.84,12.76C1.902,9.602,6.442-1.477,17.348,0.808C28.254,3.092,26.468,11.509,26.468,11.509z"/>
	<path fill="#E0A000" d="M19.516,15.009c0,0-0.702,1.743-5.043,1.115c-4.655-0.672-6.713-5.726-12.733-4.145
		C3.13,10.591,5.994,9.683,8.04,9.591c2.386-0.106,6.329,2.193,8.92,2.389c1.27,0.097,2.511-0.004,3.572-0.171
		c-3.532-0.218-5.741-0.905-6.295-1.968c1.151,0.47,4.003,0.07,6.079,0.25c2.075,0.181,3.375,0.938,3.375,0.938L19.516,15.009z"/>
	<path fill="#A6CAF0" stroke="#000000" stroke-miterlimit="10" d="M19.601,16.111c-0.515-1.608,1.369-3.677,4.209-4.62
		c2.838-0.943,5.558-0.404,6.074,1.204c0.515,1.607-1.37,3.677-4.209,4.62C22.835,18.259,20.116,17.719,19.601,16.111z"/>
	<path fill="#FFFFFF" d="M23.041,13.114c-0.081-0.382,0.578-0.851,1.47-1.048c0.893-0.196,1.683-0.046,1.764,0.337
		c0.081,0.382-0.578,0.852-1.47,1.048S23.121,13.497,23.041,13.114z"/>
	<path fill="#FFFFFF" d="M14.473,3.448c-4.235,0.177-7.823,1.978-7.823,1.978s2.056-3.379,7.371-3.917
		c3.863-0.391,7.524,2.323,7.524,2.323S18.707,3.271,14.473,3.448z"/>
	<path fill="#FFFFFF" d="M16.331,4.425C13.75,4.533,11.562,5.63,11.562,5.63s1.252-2.06,4.493-2.387
		c2.353-0.238,4.583,1.416,4.583,1.416S18.909,4.317,16.331,4.425z"/>
</g>
<g>
	<path fill="#FFFF00" stroke="#E06000" stroke-miterlimit="10" d="M57.554,11.509l-5.505,3.667c0,0-2.36,1.806-5.814,1.553
		C39.676,16.431,38.2,6.682,31.878,9.431c1.067-3.157,5.805-10.247,16.746-7.961C59.566,3.754,57.554,11.509,57.554,11.509z"/>
	<path fill="#E0A000" d="M50.577,15.01c0,0-0.705,1.743-5.061,1.115c-6.129-0.985-7.278-8.652-13.189-7.232
		c1.396-1.389,3.899-1.42,5.993-0.961c2.356,0.648,7.092,3.854,9.692,4.049c1.273,0.097,1.848,0.169,2.911,0.002
		c-3.543-0.218-5.028-1.333-5.584-2.395c1.153,0.47,4.279,0.039,6.363,0.219c2.084,0.181,3.063,1.223,3.063,1.223L50.577,15.01z"/>
	<path fill="#A6CAF0" stroke="#000000" stroke-miterlimit="10" d="M60.979,12.696c0.517,1.608-1.374,3.678-4.223,4.621
		c-2.849,0.942-5.578,0.403-6.096-1.205c-0.517-1.609,1.373-3.678,4.224-4.621C57.733,10.548,60.461,11.088,60.979,12.696z"/>
	<path fill="#FFFFFF" d="M57.357,12.404c0.082,0.382-0.579,0.851-1.477,1.047c-0.896,0.196-1.688,0.046-1.768-0.336
		c-0.082-0.382,0.579-0.851,1.476-1.047C56.484,11.872,57.276,12.022,57.357,12.404z"/>
	<path fill="#FFFFFF" d="M45.521,3.873c-4.251,0.039-7.907,1.721-7.907,1.721s2.17-3.311,7.516-3.673
		c3.886-0.264,7.47,2.568,7.47,2.568S49.771,3.836,45.521,3.873z"/>
	<path fill="#FFFFFF" d="M47.352,4.911c-2.59,0.023-4.818,1.047-4.818,1.047s1.32-2.017,4.579-2.237
		c2.368-0.161,4.552,1.565,4.552,1.565S49.94,4.887,47.352,4.911z"/>
</g>
<g>
	<path fill="#FFFF00" stroke="#E06000" stroke-miterlimit="10" d="M88.646,11.509l-5.495,3.667c0,0-3.483,1.339-6.932,1.086
		c-9.023-0.455-8.45-8.595-12.302-10.836C70.471,3.748,75.151,0.9,81.439,1.903C92.364,4.186,88.646,11.509,88.646,11.509z"/>
	<path fill="#E0A000" d="M81.682,15.01c0,0-0.551,1.284-5.052,1.115C67.277,14.889,69.081,9.588,64.9,5.63
		c3.525,0,5.57,1.51,7.235,2.997c1.863,1.93,3.939,3.938,6.536,4.132c1.272,0.097,1.947-0.202,3.009-0.369
		c-3.537-0.218-6.153-2.188-6.708-3.25c1.15,0.47,5.715,1.07,7.795,1.25c2.08,0.181,3.097,0.64,3.097,0.64L81.682,15.01z"/>
	<path fill="#A6CAF0" stroke="#000000" stroke-miterlimit="10" d="M92.066,12.696c0.517,1.608-1.372,3.678-4.216,4.621
		c-2.844,0.942-5.568,0.403-6.084-1.205c-0.518-1.609,1.37-3.678,4.215-4.621S91.549,11.088,92.066,12.696z"/>
	<path fill="#FFFFFF" d="M88.45,12.404c0.082,0.382-0.578,0.851-1.474,1.047c-0.895,0.196-1.685,0.046-1.766-0.336
		s0.578-0.851,1.474-1.047C87.579,11.872,88.37,12.022,88.45,12.404z"/>
	<path fill="#FFFFFF" d="M78.49,4.811c-4.23-0.365-8.02,0.964-8.02,0.964s2.462-3.09,7.809-2.946
		c3.888,0.105,7.189,3.265,7.189,3.265S82.719,5.176,78.49,4.811z"/>
	<path fill="#FFFFFF" d="M80.216,6.016c-2.577-0.222-4.888,0.587-4.888,0.587s1.498-1.883,4.758-1.794
		c2.369,0.063,4.381,1.99,4.381,1.99S82.79,6.239,80.216,6.016z"/>
</g>
<g>
	<path fill="#FFFF00" stroke="#E06000" stroke-miterlimit="10" d="M119.605,11.509l-5.508,3.667c0,0-3.983,1.83-7.44,1.577
		C97.61,16.298,94.463,6.744,94.125,1.903c5.67,2.556,12.193-0.432,18.498,0.57C122.025,4.835,119.605,11.509,119.605,11.509z"/>
	<path fill="#E0A000" d="M112.624,15.01c0,0-1.249,1.453-5.762,1.284c-9.08-0.737-11.225-7.3-12.409-13.47
		c2.426,4.465,6.822,8.607,11.916,9.607c2.35,0.461,5.189,0.125,6.254-0.042c-3.547-0.218-4.044-1.173-5.308-2.625
		c1.153,0.471,4.325,0.94,6.41,1.12c2.084,0.181,3.092,0.145,3.092,0.145L112.624,15.01z"/>
	<path fill="#A6CAF0" stroke="#000000" stroke-miterlimit="10" d="M123.035,12.696c0.518,1.608-1.376,3.678-4.227,4.621
		c-2.853,0.942-5.583,0.403-6.101-1.205c-0.519-1.609,1.375-3.678,4.227-4.621S122.517,11.088,123.035,12.696z"/>
	<path fill="#FFFFFF" d="M119.41,12.404c0.081,0.382-0.581,0.851-1.479,1.047c-0.896,0.196-1.688,0.046-1.77-0.336
		c-0.082-0.382,0.579-0.851,1.477-1.047C118.535,11.872,119.328,12.022,119.41,12.404z"/>
	<path fill="#FFFFFF" d="M111.382,5.304c-4.185-0.792-8.095,0.146-8.095,0.146s2.759-2.825,8.079-2.139
		c3.868,0.499,6.851,3.978,6.851,3.978S115.563,6.096,111.382,5.304z"/>
	<path fill="#FFFFFF" d="M112.984,6.678c-2.55-0.481-4.935,0.09-4.935,0.09s1.681-1.723,4.923-1.304
		c2.358,0.304,4.176,2.425,4.176,2.425S115.53,7.162,112.984,6.678z"/>
</g>
<g>
	<path fill="#FFFF00" stroke="#E06000" stroke-miterlimit="10" d="M150.759,11.509l-5.521,3.667c0,0-3.786,2.467-7.252,2.214
		c-9.066-0.455-12.715-8.088-13.054-12.931c5.684,2.557,10.49-4.376,18.828-2.556C152.098,3.722,150.759,11.509,150.759,11.509z"/>
	<path fill="#E0A000" d="M143.965,15.077c0,0-1.223,2.013-5.745,1.844c-8.374-0.627-11.483-5.352-12.671-11.521
		c2.432,4.465,6.699,6.709,11.806,7.709c2.354,0.461,5.315-0.182,6.382-0.349c-3.2-0.276-4.775-0.777-6.196-2.151
		c1.156,0.471,5.138,0.539,7.228,0.719c2.09,0.181,3.195-0.298,3.195-0.298L143.965,15.077z"/>
	<path fill="#A6CAF0" stroke="#000000" stroke-miterlimit="10" d="M154.195,12.696c0.52,1.608-1.379,3.678-4.235,4.621
		c-2.858,0.942-5.596,0.403-6.114-1.205c-0.519-1.609,1.377-3.678,4.235-4.621S153.676,11.088,154.195,12.696z"/>
	<path fill="#FFFFFF" d="M150.562,12.404c0.083,0.382-0.58,0.851-1.48,1.047c-0.898,0.196-1.692,0.046-1.774-0.336
		c-0.081-0.382,0.582-0.851,1.481-1.047C149.687,11.872,150.48,12.022,150.562,12.404z"/>
	<path fill="#FFFFFF" d="M142.516,4.552c-4.193-0.793-8.111,0.146-8.111,0.146s2.765-2.824,8.096-2.14
		c3.877,0.5,6.867,3.979,6.867,3.979S146.708,5.344,142.516,4.552z"/>
	<path fill="#FFFFFF" d="M144.123,5.927c-2.557-0.481-4.946,0.09-4.946,0.09s1.684-1.723,4.935-1.304
		c2.363,0.304,4.185,2.425,4.185,2.425S146.674,6.41,144.123,5.927z"/>
</g>
<g>
	<path fill="#FFFF00" stroke="#E06000" stroke-miterlimit="10" d="M181.598,11.509l-5.512,3.667c0,0-1.475,2.605-6.76,2.433
		c-7.615-0.2-12.557-4.876-12.895-9.719c5.674,2.557,5.371-7.656,18.18-5.986C183.056,3.003,181.598,11.509,181.598,11.509z"/>
	<path fill="#E0A000" d="M175.093,15.264c0,0-1.158,2.075-5.673,1.906c-8.296-0.656-11.527-4.411-12.489-8.656
		c2.427,4.465,5.825,5.022,11.501,5.89c5.16,0.788,5.15-0.709,6.18-1.358c-3.072,0.567-5.223-0.376-6.642-1.75
		c1.154,0.471,6.008,0.883,7.678,0.687s3.16-0.953,3.16-0.953L175.093,15.264z"/>
	<path fill="#A6CAF0" stroke="#000000" stroke-miterlimit="10" d="M185.029,12.696c0.518,1.608-1.377,3.678-4.229,4.621
		c-2.854,0.942-5.587,0.403-6.104-1.205c-0.519-1.609,1.376-3.678,4.229-4.621C181.778,10.548,184.511,11.088,185.029,12.696z"/>
	<path fill="#FFFFFF" d="M181.401,12.404c0.082,0.382-0.579,0.851-1.478,1.047c-0.897,0.196-1.69,0.046-1.771-0.336
		c-0.082-0.382,0.58-0.851,1.479-1.047C180.527,11.872,181.321,12.022,181.401,12.404z"/>
	<path fill="#FFFFFF" d="M172.689,4.536c-4.215-0.616-8.086,0.482-8.086,0.482s2.645-2.937,7.99-2.474
		c3.887,0.338,7.011,3.689,7.011,3.689S176.903,5.153,172.689,4.536z"/>
	<path fill="#FFFFFF" d="M174.349,5.843c-2.569-0.375-4.929,0.295-4.929,0.295s1.609-1.791,4.868-1.508
		c2.368,0.205,4.271,2.248,4.271,2.248S176.913,6.219,174.349,5.843z"/>
</g>
<g>
	<path fill="#FFFF00" stroke="#E06000" stroke-miterlimit="10" d="M13.347,19.275c10.998-2.285,15.214,7.829,16.286,10.986
		c-6.354-2.75-9.171,4.115-14.182,4.48c-3.473,0.253-5.845-1.553-5.845-1.553l-5.532-3.667C4.073,29.522,2.349,21.558,13.347,19.275
		z"/>
	<path fill="#E0A000" d="M7.182,29.306c0,0,1.311-0.757,3.404-0.938c2.093-0.18,4.969,0.22,6.129-0.25
		c-0.559,1.063-2.787,1.75-6.348,1.968c1.069,0.167,2.321,0.268,3.601,0.171c2.613-0.195,6.59-2.495,8.996-2.389
		c2.064,0.093,4.457,0.42,5.859,1.809c-6.071-1.581-7.652,4.053-12.346,4.725c-4.377,0.628-5.085-1.115-5.085-1.115L7.182,29.306z"
		/>
	<path fill="#A6CAF0" stroke="#000000" stroke-miterlimit="10" d="M5.18,35.594c-2.864-0.943-4.764-3.013-4.245-4.62
		c0.521-1.608,3.263-2.147,6.126-1.204c2.864,0.943,4.764,3.012,4.245,4.62S8.044,36.537,5.18,35.594z"/>
	<path fill="#FFFFFF" d="M6.059,31.729c-0.9-0.196-1.565-0.666-1.483-1.048c0.082-0.383,0.878-0.533,1.779-0.337
		c0.9,0.197,1.565,0.666,1.482,1.048C7.756,31.775,6.959,31.926,6.059,31.729z"/>
	<path fill="#FFFFFF" d="M9.347,22.11c0,0,3.691-2.714,7.587-2.323c5.36,0.538,7.433,3.917,7.433,3.917s-3.619-1.801-7.889-1.978
		S9.347,22.11,9.347,22.11z"/>
	<path fill="#FFFFFF" d="M10.26,22.937c0,0,2.25-1.654,4.622-1.416c3.268,0.327,4.531,2.387,4.531,2.387s-2.207-1.097-4.809-1.205
		C12.004,22.595,10.26,22.937,10.26,22.937z"/>
</g>
<g>
	<path fill="#FFFF00" stroke="#E06000" stroke-miterlimit="10" d="M44.383,19.75c10.938-2.286,15.239,4.255,16.305,7.412
		c-6.319-2.749-7.357,7.549-13.916,7.846c-3.452,0.253-5.812-1.553-5.812-1.553l-5.502-3.667
		C35.458,29.788,33.445,22.033,44.383,19.75z"/>
	<path fill="#E0A000" d="M38.243,29.308c0,0,0.98-1.042,3.063-1.223c2.083-0.18,5.208,0.251,6.359-0.219
		c-0.554,1.062-2.039,2.177-5.58,2.395c1.063,0.167,1.636,0.095,2.909-0.002c2.601-0.194,7.334-3.4,9.689-4.049
		c2.093-0.459,3.809-0.961,5.204,0.428c-5.91-1.42-6.271,6.78-12.398,7.766c-4.353,0.628-5.059-1.115-5.059-1.115L38.243,29.308z"/>
	<path fill="#A6CAF0" stroke="#000000" stroke-miterlimit="10" d="M38.126,29.77c2.849,0.943,4.738,3.012,4.221,4.621
		c-0.517,1.608-3.245,2.147-6.093,1.205c-2.847-0.943-4.737-3.013-4.22-4.621C32.551,29.367,35.278,28.827,38.126,29.77z"/>
	<path fill="#FFFFFF" d="M37.422,30.347c0.896,0.196,1.558,0.665,1.476,1.047c-0.081,0.382-0.872,0.532-1.768,0.336
		c-0.896-0.196-1.558-0.665-1.476-1.047C35.734,30.302,36.526,30.151,37.422,30.347z"/>
	<path fill="#FFFFFF" d="M40.41,22.768c0,0,3.583-2.832,7.468-2.568c5.344,0.362,7.513,3.673,7.513,3.673s-3.654-1.682-7.905-1.721
		C43.236,22.115,40.41,22.768,40.41,22.768z"/>
	<path fill="#FFFFFF" d="M41.345,23.565c0,0,2.183-1.727,4.549-1.565c3.26,0.221,4.58,2.237,4.58,2.237s-2.229-1.023-4.818-1.047
		C43.067,23.167,41.345,23.565,41.345,23.565z"/>
</g>
<g>
	<path fill="#FFFF00" stroke="#E06000" stroke-miterlimit="10" d="M73.686,20.182c6.302-1.003,10.993,1.845,17.561,3.522
		c-3.859,2.241-3.285,10.381-12.328,10.836c-3.457,0.253-6.947-1.086-6.947-1.086l-5.508-3.667
		C66.463,29.788,62.737,22.466,73.686,20.182z"/>
	<path fill="#E0A000" d="M69.251,29.308c0,0,1.02-0.459,3.104-0.64c2.084-0.18,6.658-0.78,7.812-1.25
		c-0.556,1.063-3.178,3.032-6.723,3.25c1.064,0.167,1.74,0.466,3.015,0.369c2.603-0.194,4.684-2.202,6.551-4.132
		c1.669-1.487,3.719-2.997,7.252-2.997c-4.19,3.958-2.382,9.26-11.756,10.495c-4.511,0.169-5.063-1.115-5.063-1.115L69.251,29.308z"
		/>
	<path fill="#A6CAF0" stroke="#000000" stroke-miterlimit="10" d="M69.134,29.77c2.851,0.943,4.743,3.012,4.225,4.621
		c-0.517,1.608-3.248,2.147-6.098,1.205c-2.851-0.943-4.743-3.013-4.226-4.621C63.554,29.367,66.283,28.827,69.134,29.77z"/>
	<path fill="#FFFFFF" d="M68.43,30.347c0.897,0.196,1.558,0.665,1.477,1.047s-0.873,0.532-1.77,0.336
		c-0.897-0.196-1.56-0.665-1.477-1.047C66.74,30.302,67.533,30.151,68.43,30.347z"/>
	<path fill="#FFFFFF" d="M69.647,24.373c0,0,3.31-3.159,7.206-3.265c5.358-0.144,7.825,2.946,7.825,2.946s-3.798-1.329-8.037-0.964
		C72.403,23.455,69.647,24.373,69.647,24.373z"/>
	<path fill="#FFFFFF" d="M70.651,25.079c0,0,2.017-1.927,4.391-1.99c3.267-0.089,4.77,1.794,4.77,1.794s-2.316-0.809-4.899-0.587
		C72.332,24.518,70.651,25.079,70.651,25.079z"/>
</g>
<g>
	<path fill="#FFFF00" stroke="#E06000" stroke-miterlimit="10" d="M104.591,20.752c6.303-1.002,12.615,2.194,18.285-0.361
		c-0.338,4.842-3.275,14.187-12.321,14.642c-3.457,0.253-7.438-1.577-7.438-1.577l-5.509-3.667
		C97.607,29.788,95.188,23.114,104.591,20.752z"/>
	<path fill="#E0A000" d="M99.911,29.485c0,0,1.006,0.036,3.091-0.145c2.086-0.18,5.257-0.649,6.41-1.12
		c-1.265,1.452-1.762,2.407-5.308,2.625c1.064,0.167,3.903,0.503,6.253,0.042c5.095-1,9.608-5.294,12.033-9.759
		c-1.185,6.17-3.446,12.884-12.525,13.621c-4.513,0.169-5.762-1.284-5.762-1.284L99.911,29.485z"/>
	<path fill="#A6CAF0" stroke="#000000" stroke-miterlimit="10" d="M100.279,29.77c2.852,0.943,4.742,3.012,4.225,4.621
		c-0.517,1.608-3.248,2.147-6.099,1.205c-2.851-0.943-4.744-3.013-4.226-4.621S97.428,28.827,100.279,29.77z"/>
	<path fill="#FFFFFF" d="M99.574,30.347c0.897,0.196,1.56,0.665,1.478,1.047c-0.081,0.382-0.874,0.532-1.771,0.336
		c-0.897-0.196-1.559-0.665-1.478-1.047C97.886,30.302,98.678,30.151,99.574,30.347z"/>
	<path fill="#FFFFFF" d="M98.996,25.568c0,0,2.982-3.479,6.851-3.978c5.319-0.687,8.078,2.139,8.078,2.139s-3.91-0.938-8.093-0.146
		S98.996,25.568,98.996,25.568z"/>
	<path fill="#FFFFFF" d="M100.065,26.169c0,0,1.817-2.121,4.175-2.425c3.242-0.419,4.922,1.304,4.922,1.304s-2.385-0.571-4.934-0.09
		C101.684,25.441,100.065,26.169,100.065,26.169z"/>
</g>
<g>
	<path fill="#FFFF00" stroke="#E06000" stroke-miterlimit="10" d="M135.392,20.182c8.323-1.82,13.122,5.112,18.796,2.556
		c-0.338,4.843-3.979,12.476-13.031,12.931c-3.459,0.253-7.24-2.214-7.24-2.214l-5.512-3.667
		C128.404,29.788,127.068,22.002,135.392,20.182z"/>
	<path fill="#E0A000" d="M131.195,29.155c0,0,1.104,0.479,3.19,0.298c2.086-0.18,6.061-0.248,7.216-0.719
		c-1.419,1.374-2.991,1.875-6.187,2.151c1.064,0.167,4.02,0.81,6.371,0.349c5.097-1,9.482-3.338,11.909-7.803
		c-0.726,5.322-3.523,10.979-12.609,11.771c-4.515,0.169-5.898-1.999-5.898-1.999L131.195,29.155z"/>
	<path fill="#A6CAF0" stroke="#000000" stroke-miterlimit="10" d="M131.078,29.77c2.853,0.943,4.746,3.012,4.228,4.621
		c-0.517,1.608-3.25,2.147-6.103,1.205c-2.853-0.943-4.747-3.013-4.229-4.621S128.225,28.827,131.078,29.77z"/>
	<path fill="#FFFFFF" d="M130.372,30.347c0.898,0.196,1.561,0.665,1.479,1.047c-0.081,0.382-0.874,0.532-1.771,0.336
		s-1.56-0.665-1.478-1.047C128.682,30.302,129.476,30.151,130.372,30.347z"/>
	<path fill="#FFFFFF" d="M129.794,24.816c0,0,2.984-3.479,6.855-3.979c5.323-0.685,8.082,2.14,8.082,2.14s-3.912-0.938-8.098-0.146
		C132.449,23.624,129.794,24.816,129.794,24.816z"/>
	<path fill="#FFFFFF" d="M130.864,25.417c0,0,1.817-2.121,4.177-2.425c3.244-0.419,4.926,1.304,4.926,1.304s-2.386-0.571-4.938-0.09
		C132.483,24.689,130.864,25.417,130.864,25.417z"/>
</g>
<g>
	<path fill="#FFFF00" stroke="#E06000" stroke-miterlimit="10" d="M166.564,20.182c12.789-1.67,13.104,8.48,18.769,5.924
		c-0.338,4.843-5.886,9.581-13.491,9.781c-5.277,0.173-6.75-2.433-6.75-2.433l-5.504-3.667
		C159.588,29.788,158.133,21.282,166.564,20.182z"/>
	<path fill="#E0A000" d="M162.375,29.308c0,0,1.487,0.757,3.154,0.953c1.668,0.196,6.514-0.216,7.667-0.687
		c-1.416,1.374-3.564,2.317-6.632,1.75c1.027,0.649,1.019,2.146,6.17,1.358c5.668-0.867,9.643-1.425,12.065-5.89
		c-0.96,4.245-4.769,8-13.051,8.656c-4.509,0.169-5.666-1.906-5.666-1.906L162.375,29.308z"/>
	<path fill="#A6CAF0" stroke="#000000" stroke-miterlimit="10" d="M162.257,29.77c2.85,0.943,4.739,3.012,4.223,4.621
		c-0.517,1.608-3.246,2.147-6.095,1.205c-2.849-0.943-4.739-3.013-4.223-4.621C156.681,29.367,159.408,28.827,162.257,29.77z"/>
	<path fill="#FFFFFF" d="M161.553,30.347c0.896,0.196,1.558,0.665,1.476,1.047c-0.08,0.382-0.872,0.532-1.768,0.336
		c-0.897-0.196-1.559-0.665-1.476-1.047C159.865,30.302,160.657,30.151,161.553,30.347z"/>
	<path fill="#FFFFFF" d="M161.579,24.513c0,0,3.118-3.352,7.001-3.689c5.338-0.463,7.978,2.474,7.978,2.474
		s-3.865-1.099-8.074-0.482C164.275,23.432,161.579,24.513,161.579,24.513z"/>
	<path fill="#FFFFFF" d="M162.622,25.157c0,0,1.9-2.043,4.266-2.248c3.254-0.283,4.861,1.508,4.861,1.508s-2.356-0.67-4.923-0.295
		C164.266,24.499,162.622,25.157,162.622,25.157z"/>
</g>
</svg>
