<?xml version="1.0" encoding="utf-8"?>
<!-- Generator: Adobe Illustrator 16.0.0, SVG Export Plug-In . SVG Version: 6.00 Build 0)  -->
<!DOCTYPE svg PUBLIC "-//W3C//DTD SVG 1.1//EN" "http://www.w3.org/Graphics/SVG/1.1/DTD/svg11.dtd">
<svg version="1.1" id="Layer_1" xmlns="http://www.w3.org/2000/svg" xmlns:xlink="http://www.w3.org/1999/xlink" x="0px" y="0px"
	 width="174.539px" height="80.1px" viewBox="0 0 174.539 80.1" enable-background="new 0 0 174.539 80.1" xml:space="preserve">
<g>
	<g>
		<circle fill="#8080C0" stroke="#000000" stroke-miterlimit="10" cx="7.16" cy="31.844" r="4.421"/>
		<path fill="#8060C0" d="M9.429,33.794c0,1.002-1.027,1.813-2.293,1.813s-2.293-0.813-2.293-1.813c0-0.352,1.027,0.467,2.293,0.467
			C8.404,34.261,9.429,33.259,9.429,33.794z"/>
		<path fill="#A6CAF0" d="M10.828,31.87c-0.311,0.643-1.441-1.283-3.475-1.283c-2.035,0-3.783,1.842-3.891,1.283
			c0-2.035,1.648-3.684,3.684-3.684S10.828,29.835,10.828,31.87z"/>
		<ellipse fill="#FFFFFF" cx="6.906" cy="28.803" rx="1.236" ry="0.466"/>
	</g>
	<g>
		<polygon fill="#E08000" stroke="#402000" stroke-miterlimit="10" points="19.605,26.786 9.756,25.925 2.092,20.046 1.041,29.396 
			7.679,31.657 14.34,34.513 		"/>
		<polygon fill="#FFFF00" stroke="#E06000" stroke-miterlimit="10" points="21.922,8.525 19.539,1.159 12.83,5.034 7.713,27.38 
			11.556,28.855 		"/>
		<polygon fill="#E0A000" points="11.556,28.855 10.06,28.282 16.888,9.169 21.396,8.585 		"/>
		<polygon fill="#FFFF00" points="15.81,30.695 9.302,28.425 2.984,25.003 2.717,22.034 10.045,26.831 17.357,27.667 		"/>
		<polygon fill="#FFFFFF" points="9.746,27.064 14.287,9.384 13.394,5.825 15.802,8.837 		"/>
		
			<ellipse transform="matrix(-0.9333 -0.3591 0.3591 -0.9333 7.975 58.4193)" fill="#FF0000" stroke="#C00040" stroke-miterlimit="10" cx="9.413" cy="28.469" rx="2.374" ry="3.598"/>
		
			<ellipse transform="matrix(-0.9336 -0.3584 0.3584 -0.9336 9.1978 56.0258)" fill="#FFFFFF" cx="9.792" cy="27.16" rx="0.951" ry="1.139"/>
	</g>
</g>
<g>
	<g>
		<circle fill="#8080C0" stroke="#000000" stroke-miterlimit="10" cx="36.25" cy="32.844" r="4.421"/>
		<path fill="#8060C0" d="M38.519,34.794c0,1.002-1.027,1.813-2.293,1.813s-2.293-0.813-2.293-1.813
			c0-0.352,1.027,0.467,2.293,0.467C37.494,35.261,38.519,34.259,38.519,34.794z"/>
		<path fill="#A6CAF0" d="M39.918,32.87c-0.311,0.643-1.441-1.283-3.475-1.283c-2.035,0-3.783,1.842-3.891,1.283
			c0-2.035,1.648-3.684,3.684-3.684S39.918,30.835,39.918,32.87z"/>
		<ellipse fill="#FFFFFF" cx="35.996" cy="29.803" rx="1.236" ry="0.466"/>
	</g>
	<g>
		<polygon fill="#E08000" stroke="#402000" stroke-miterlimit="10" points="48.695,27.786 38.845,26.925 31.181,21.046 
			30.131,30.396 36.769,32.657 43.429,35.513 		"/>
		<polygon fill="#FFFF00" stroke="#E06000" stroke-miterlimit="10" points="51.011,9.525 48.629,2.159 41.92,6.034 36.802,28.38 
			40.646,29.855 		"/>
		<polygon fill="#E0A000" points="40.646,29.855 39.15,29.282 45.978,10.169 50.486,9.585 		"/>
		<polygon fill="#FFFF00" points="44.9,31.695 38.392,29.425 32.074,26.003 31.806,23.034 39.135,27.831 46.447,28.667 		"/>
		<polygon fill="#FFFFFF" points="38.836,28.064 43.377,10.384 42.484,6.825 44.892,9.837 		"/>
		
			<ellipse transform="matrix(-0.9333 -0.3591 0.3591 -0.9333 63.8554 70.7984)" fill="#FF0000" stroke="#C00040" stroke-miterlimit="10" cx="38.503" cy="29.469" rx="2.374" ry="3.598"/>
		
			<ellipse transform="matrix(-0.9336 -0.3584 0.3584 -0.9336 65.0863 68.386)" fill="#FFFFFF" cx="38.882" cy="28.16" rx="0.951" ry="1.139"/>
	</g>
</g>
<g>
	<g>
		<circle fill="#8080C0" stroke="#000000" stroke-miterlimit="10" cx="65.34" cy="33.844" r="4.421"/>
		<path fill="#8060C0" d="M67.609,35.794c0,1.002-1.027,1.813-2.293,1.813s-2.293-0.813-2.293-1.813
			c0-0.352,1.027,0.467,2.293,0.467C66.584,36.261,67.609,35.259,67.609,35.794z"/>
		<path fill="#A6CAF0" d="M69.008,33.87c-0.311,0.643-1.441-1.283-3.475-1.283c-2.035,0-3.783,1.842-3.891,1.283
			c0-2.035,1.648-3.684,3.684-3.684S69.008,31.835,69.008,33.87z"/>
		<ellipse fill="#FFFFFF" cx="65.086" cy="30.803" rx="1.236" ry="0.466"/>
	</g>
	<g>
		<polygon fill="#E08000" stroke="#402000" stroke-miterlimit="10" points="77.785,28.786 67.935,27.925 60.271,22.046 
			59.22,31.396 65.859,33.657 72.519,36.513 		"/>
		<polygon fill="#FFFF00" stroke="#E06000" stroke-miterlimit="10" points="80.101,10.525 77.719,3.159 71.01,7.034 65.892,29.38 
			69.736,30.855 		"/>
		<polygon fill="#E0A000" points="69.736,30.855 68.24,30.282 75.068,11.169 79.576,10.585 		"/>
		<polygon fill="#FFFF00" points="73.99,32.695 67.482,30.425 61.164,27.003 60.896,24.034 68.224,28.831 75.537,29.667 		"/>
		<polygon fill="#FFFFFF" points="67.926,29.064 72.467,11.384 71.574,7.825 73.982,10.837 		"/>
		
			<ellipse transform="matrix(-0.9333 -0.3591 0.3591 -0.9333 119.7358 83.1776)" fill="#FF0000" stroke="#C00040" stroke-miterlimit="10" cx="67.593" cy="30.469" rx="2.374" ry="3.598"/>
		
			<ellipse transform="matrix(-0.9336 -0.3584 0.3584 -0.9336 120.9747 80.7462)" fill="#FFFFFF" cx="67.971" cy="29.16" rx="0.951" ry="1.139"/>
	</g>
</g>
<g>
	<g>
		<circle fill="#8080C0" stroke="#000000" stroke-miterlimit="10" cx="94.396" cy="33.746" r="4.421"/>
		<path fill="#8060C0" d="M96.351,36.011c-0.149,0.992-1.285,1.641-2.537,1.453c-1.251-0.188-2.146-1.143-1.998-2.133
			c0.052-0.348,0.946,0.613,2.198,0.801C95.267,36.322,96.43,35.482,96.351,36.011z"/>
		<path fill="#A6CAF0" d="M98.019,34.316c-0.402,0.59-1.234-1.482-3.245-1.783c-2.013-0.303-4.015,1.26-4.038,0.691
			c0.302-2.012,2.177-3.398,4.189-3.096S98.322,32.304,98.019,34.316z"/>
		
			<ellipse transform="matrix(0.1488 -0.9889 0.9889 0.1488 50.1644 119.6794)" fill="#FFFFFF" cx="94.596" cy="30.702" rx="0.466" ry="1.236"/>
	</g>
	<g>
		<polygon fill="#E08000" stroke="#402000" stroke-miterlimit="10" points="107.454,30.593 97.842,28.279 91.135,21.327 
			88.709,30.417 94.937,33.638 101.1,37.452 		"/>
		<polygon fill="#FFFF00" stroke="#E06000" stroke-miterlimit="10" points="112.456,12.876 111.193,5.24 103.983,8.075 
			95.605,29.415 99.187,31.443 		"/>
		<polygon fill="#E0A000" points="99.187,31.443 97.793,30.654 107.383,12.767 111.927,12.859 		"/>
		<polygon fill="#FFFF00" points="103.121,33.894 97.022,30.683 91.282,26.363 91.458,23.386 97.993,29.218 105.1,31.13 		"/>
		<polygon fill="#FFFFFF" points="97.663,29.404 104.778,12.593 104.424,8.943 106.358,12.279 		"/>
		
			<ellipse transform="matrix(-0.8697 -0.4936 0.4936 -0.8697 166.4218 105.4191)" fill="#FF0000" stroke="#C00040" stroke-miterlimit="10" cx="97.125" cy="30.743" rx="2.374" ry="3.599"/>
		
			<ellipse transform="matrix(-0.87 -0.493 0.493 -0.87 168.1415 103.3418)" fill="#FFFFFF" cx="97.694" cy="29.505" rx="0.951" ry="1.139"/>
	</g>
</g>
<g>
	<g>
		<circle fill="#8080C0" stroke="#000000" stroke-miterlimit="10" cx="152.7" cy="32.09" r="4.421"/>
		<path fill="#8060C0" d="M154.655,34.355c-0.149,0.992-1.285,1.639-2.537,1.451c-1.251-0.188-2.146-1.143-1.998-2.133
			c0.052-0.348,0.946,0.615,2.198,0.803C153.571,34.663,154.734,33.825,154.655,34.355z"/>
		<path fill="#A6CAF0" d="M156.323,32.659c-0.402,0.59-1.234-1.482-3.245-1.785c-2.013-0.303-4.015,1.26-4.038,0.691
			c0.302-2.012,2.177-3.398,4.189-3.096S156.626,30.646,156.323,32.659z"/>
		
			<ellipse transform="matrix(0.1488 -0.9889 0.9889 0.1488 101.4351 175.923)" fill="#FFFFFF" cx="152.9" cy="29.044" rx="0.466" ry="1.236"/>
	</g>
	<g>
		<polygon fill="#E08000" stroke="#402000" stroke-miterlimit="10" points="165.758,28.935 156.145,26.62 149.439,19.671 
			147.012,28.759 153.241,31.982 159.404,35.794 		"/>
		<polygon fill="#FFFF00" stroke="#E06000" stroke-miterlimit="10" points="170.76,11.218 169.497,3.581 162.287,6.419 
			153.909,27.757 157.491,29.786 		"/>
		<polygon fill="#E0A000" points="157.491,29.786 156.096,28.997 165.686,11.109 170.231,11.2 		"/>
		<polygon fill="#FFFF00" points="161.425,32.238 155.326,29.027 149.586,24.704 149.761,21.73 156.297,27.56 163.404,29.474 		"/>
		<polygon fill="#FFFFFF" points="155.967,27.745 163.082,10.937 162.727,7.284 164.662,10.62 		"/>
		
			<ellipse transform="matrix(-0.8699 -0.4933 0.4933 -0.8699 276.2871 131.0541)" fill="#FF0000" stroke="#C00040" stroke-miterlimit="10" cx="155.429" cy="29.086" rx="2.374" ry="3.599"/>
		
			<ellipse transform="matrix(-0.8696 -0.4938 0.4938 -0.8696 277.8966 129.0976)" fill="#FFFFFF" cx="155.998" cy="27.848" rx="0.951" ry="1.14"/>
	</g>
</g>
<g>
	<g>
		<circle fill="#8080C0" stroke="#000000" stroke-miterlimit="10" cx="123.74" cy="33.105" r="4.421"/>
		<path fill="#8060C0" d="M125.443,35.564c-0.254,0.971-1.452,1.494-2.677,1.174c-1.225-0.318-2.014-1.363-1.761-2.332
			c0.089-0.34,0.876,0.711,2.101,1.031C124.333,35.757,125.578,35.046,125.443,35.564z"/>
		<path fill="#A6CAF0" d="M127.282,34.056c-0.463,0.543-1.07-1.605-3.037-2.119c-1.97-0.516-4.126,0.826-4.089,0.258
			c0.514-1.967,2.525-3.146,4.494-2.633C126.62,30.077,127.797,32.087,127.282,34.056z"/>
		
			<ellipse transform="matrix(0.2534 -0.9674 0.9674 0.2534 63.6626 142.6811)" fill="#FFFFFF" cx="124.262" cy="30.099" rx="0.466" ry="1.236"/>
	</g>
	<g>
		<polygon fill="#E08000" stroke="#402000" stroke-miterlimit="10" points="137.058,31.355 127.747,28.032 121.817,20.409 
			118.438,29.189 124.289,33.054 130.012,37.501 		"/>
		<polygon fill="#FFFF00" stroke="#E06000" stroke-miterlimit="10" points="143.915,14.271 143.471,6.542 136.001,8.597 
			125.402,28.925 128.749,31.323 		"/>
		<polygon fill="#E0A000" points="128.749,31.323 127.446,30.39 138.883,13.622 143.391,14.197 		"/>
		<polygon fill="#FFFF00" points="132.399,34.179 126.677,30.337 121.427,25.431 121.919,22.491 127.798,28.984 134.661,31.64 		"/>
		<polygon fill="#FFFFFF" points="127.449,29.132 136.31,13.175 136.346,9.505 137.916,13.029 		"/>
		
			<ellipse transform="matrix(-0.8125 -0.5829 0.5829 -0.8125 212.0492 129.0173)" fill="#FF0000" stroke="#C00040" stroke-miterlimit="10" cx="126.772" cy="30.408" rx="2.374" ry="3.6"/>
		
			<ellipse transform="matrix(-0.8123 -0.5833 0.5833 -0.8123 213.956 127.3364)" fill="#FFFFFF" cx="127.469" cy="29.238" rx="0.951" ry="1.14"/>
	</g>
</g>
<g>
	<g>
		<circle fill="#8080C0" stroke="#000000" stroke-miterlimit="10" cx="21.772" cy="71.821" r="4.421"/>
		<path fill="#8060C0" d="M21.795,74.237c1.266,0,2.293-0.818,2.293-0.467c0,1-1.027,1.813-2.293,1.813s-2.293-0.811-2.293-1.813
			C19.502,73.235,20.527,74.237,21.795,74.237z"/>
		<path fill="#A6CAF0" d="M21.785,68.162c2.035,0,3.684,1.648,3.684,3.684c-0.107,0.559-1.855-1.283-3.891-1.283
			c-2.033,0-3.164,1.926-3.474,1.283C18.104,69.811,19.75,68.162,21.785,68.162z"/>
		<ellipse fill="#FFFFFF" cx="22.025" cy="68.78" rx="1.236" ry="0.465"/>
	</g>
	<g>
		<polygon fill="#E08000" stroke="#402000" stroke-miterlimit="10" points="14.592,74.489 21.252,71.633 27.89,69.371 26.84,60.022 
			19.176,65.901 9.326,66.762 		"/>
		<polygon fill="#FFFF00" stroke="#E06000" stroke-miterlimit="10" points="17.375,68.83 21.219,67.356 16.102,45.01 9.393,41.135 
			7.01,48.5 		"/>
		<polygon fill="#E0A000" points="7.535,48.561 12.043,49.145 18.871,68.258 17.375,68.83 		"/>
		<polygon fill="#FFFF00" points="11.574,67.643 18.887,66.807 26.215,62.01 25.947,64.979 19.629,68.401 13.121,70.67 		"/>
		<polygon fill="#FFFFFF" points="13.129,48.813 15.537,45.801 14.645,49.36 19.185,67.039 		"/>
		
			<ellipse transform="matrix(0.359 0.9333 -0.9333 0.359 76.3936 25.656)" fill="#FF0000" stroke="#C00040" stroke-miterlimit="10" cx="19.519" cy="68.445" rx="3.598" ry="2.374"/>
		
			<ellipse transform="matrix(0.3589 0.9334 -0.9334 0.3589 74.9332 25.176)" fill="#FFFFFF" cx="19.14" cy="67.136" rx="1.139" ry="0.951"/>
	</g>
</g>
<g>
	<g>
		<circle fill="#8080C0" stroke="#000000" stroke-miterlimit="10" cx="50.862" cy="72.821" r="4.421"/>
		<path fill="#8060C0" d="M50.885,75.237c1.266,0,2.293-0.818,2.293-0.467c0,1-1.027,1.813-2.293,1.813s-2.293-0.811-2.293-1.813
			C48.592,74.235,49.617,75.237,50.885,75.237z"/>
		<path fill="#A6CAF0" d="M50.875,69.162c2.035,0,3.684,1.648,3.684,3.684c-0.107,0.559-1.855-1.283-3.891-1.283
			c-2.033,0-3.164,1.926-3.475,1.283C47.193,70.811,48.84,69.162,50.875,69.162z"/>
		<ellipse fill="#FFFFFF" cx="51.115" cy="69.78" rx="1.236" ry="0.465"/>
	</g>
	<g>
		<polygon fill="#E08000" stroke="#402000" stroke-miterlimit="10" points="43.681,75.489 50.342,72.633 56.98,70.371 
			55.929,61.022 48.265,66.901 38.416,67.762 		"/>
		<polygon fill="#FFFF00" stroke="#E06000" stroke-miterlimit="10" points="46.465,69.83 50.308,68.356 45.191,46.01 38.482,42.135 
			36.099,49.5 		"/>
		<polygon fill="#E0A000" points="36.625,49.561 41.133,50.145 47.961,69.258 46.465,69.83 		"/>
		<polygon fill="#FFFF00" points="40.664,68.643 47.976,67.807 55.304,63.01 55.037,65.979 48.719,69.401 42.211,71.67 		"/>
		<polygon fill="#FFFFFF" points="42.219,49.813 44.627,46.801 43.734,50.36 48.275,68.039 		"/>
		
			<ellipse transform="matrix(0.3591 0.9333 -0.9333 0.3591 95.9692 -0.8565)" fill="#FF0000" stroke="#C00040" stroke-miterlimit="10" cx="48.608" cy="69.445" rx="3.598" ry="2.374"/>
		
			<ellipse transform="matrix(0.3591 0.9333 -0.9333 0.3591 94.5018 -1.3437)" fill="#FFFFFF" cx="48.229" cy="68.136" rx="1.139" ry="0.951"/>
	</g>
</g>
<g>
	<g>
		<circle fill="#8080C0" stroke="#000000" stroke-miterlimit="10" cx="79.952" cy="73.821" r="4.421"/>
		<path fill="#8060C0" d="M79.974,76.237c1.266,0,2.293-0.818,2.293-0.467c0,1-1.027,1.813-2.293,1.813s-2.293-0.811-2.293-1.813
			C77.681,75.235,78.707,76.237,79.974,76.237z"/>
		<path fill="#A6CAF0" d="M79.965,70.162c2.035,0,3.684,1.648,3.684,3.684c-0.107,0.559-1.855-1.283-3.891-1.283
			c-2.033,0-3.164,1.926-3.475,1.283C76.283,71.811,77.929,70.162,79.965,70.162z"/>
		<ellipse fill="#FFFFFF" cx="80.205" cy="70.78" rx="1.236" ry="0.465"/>
	</g>
	<g>
		<polygon fill="#E08000" stroke="#402000" stroke-miterlimit="10" points="72.771,76.489 79.431,73.633 86.07,71.371 
			85.019,62.022 77.355,67.901 67.506,68.762 		"/>
		<polygon fill="#FFFF00" stroke="#E06000" stroke-miterlimit="10" points="75.554,70.83 79.398,69.356 74.281,47.01 67.572,43.135 
			65.189,50.5 		"/>
		<polygon fill="#E0A000" points="65.715,50.561 70.222,51.145 77.051,70.258 75.554,70.83 		"/>
		<polygon fill="#FFFF00" points="69.754,69.643 77.066,68.807 84.394,64.01 84.127,66.979 77.808,70.401 71.301,72.67 		"/>
		<polygon fill="#FFFFFF" points="71.308,50.813 73.717,47.801 72.824,51.36 77.365,69.039 		"/>
		
			<ellipse transform="matrix(0.3591 0.9333 -0.9333 0.3591 115.5476 -27.3656)" fill="#FF0000" stroke="#C00040" stroke-miterlimit="10" cx="77.698" cy="70.445" rx="3.598" ry="2.374"/>
		
			<ellipse transform="matrix(0.3591 0.9333 -0.9333 0.3591 114.079 -27.8523)" fill="#FFFFFF" cx="77.319" cy="69.136" rx="1.139" ry="0.951"/>
	</g>
</g>
<g>
	<g>
		<circle fill="#8080C0" stroke="#000000" stroke-miterlimit="10" cx="109.128" cy="73.723" r="4.421"/>
		<path fill="#8060C0" d="M109.509,76.108c1.252-0.188,2.146-1.148,2.198-0.801c0.148,0.99-0.747,1.945-1.998,2.133
			c-1.252,0.188-2.388-0.461-2.537-1.453C107.093,75.457,108.256,76.297,109.509,76.108z"/>
		<path fill="#A6CAF0" d="M108.597,70.104c2.013-0.303,3.888,1.084,4.189,3.096c-0.023,0.568-2.025-0.994-4.038-0.691
			c-2.011,0.301-2.843,2.373-3.245,1.783C105.201,72.28,106.585,70.406,108.597,70.104z"/>
		
			<ellipse transform="matrix(0.9889 -0.1485 0.1485 0.9889 -9.2877 16.9586)" fill="#FFFFFF" cx="108.927" cy="70.678" rx="1.236" ry="0.466"/>
	</g>
	<g>
		<polygon fill="#E08000" stroke="#402000" stroke-miterlimit="10" points="102.423,77.428 108.586,73.614 114.814,70.393 
			112.387,61.303 105.681,68.254 96.069,70.569 		"/>
		<polygon fill="#FFFF00" stroke="#E06000" stroke-miterlimit="10" points="104.336,71.418 107.918,69.391 99.54,48.051 
			92.33,45.215 91.067,52.852 		"/>
		<polygon fill="#E0A000" points="91.595,52.834 96.14,52.742 105.73,70.629 104.336,71.418 		"/>
		<polygon fill="#FFFF00" points="98.423,71.106 105.53,69.194 112.065,63.362 112.241,66.338 106.501,70.658 100.402,73.869 		"/>
		<polygon fill="#FFFFFF" points="97.165,52.254 99.099,48.918 98.745,52.569 105.86,69.379 		"/>
		
			<ellipse transform="matrix(0.4936 0.8697 -0.8697 0.4936 115.3836 -56.7217)" fill="#FF0000" stroke="#C00040" stroke-miterlimit="10" cx="106.398" cy="70.718" rx="3.599" ry="2.375"/>
		
			<ellipse transform="matrix(0.4936 0.8697 -0.8697 0.4936 114.026 -56.8522)" fill="#FFFFFF" cx="105.829" cy="69.482" rx="1.14" ry="0.95"/>
	</g>
</g>
<g>
	<g>
		<circle fill="#8080C0" stroke="#000000" stroke-miterlimit="10" cx="167.252" cy="72.065" r="4.421"/>
		<path fill="#8060C0" d="M167.633,74.451c1.252-0.188,2.146-1.15,2.198-0.803c0.148,0.99-0.747,1.945-1.998,2.133
			c-1.252,0.188-2.388-0.459-2.537-1.451C165.217,73.801,166.38,74.639,167.633,74.451z"/>
		<path fill="#A6CAF0" d="M166.721,68.446c2.013-0.303,3.888,1.084,4.189,3.096c-0.023,0.568-2.025-0.994-4.038-0.691
			c-2.011,0.303-2.843,2.375-3.245,1.785C163.325,70.621,164.709,68.748,166.721,68.446z"/>
		
			<ellipse transform="matrix(0.9889 -0.1485 0.1485 0.9889 -8.397 25.5714)" fill="#FFFFFF" cx="167.051" cy="69.02" rx="1.236" ry="0.466"/>
	</g>
	<g>
		<polygon fill="#E08000" stroke="#402000" stroke-miterlimit="10" points="160.547,75.77 166.71,71.957 172.938,68.735 
			170.511,59.647 163.805,66.596 154.193,68.91 		"/>
		<polygon fill="#FFFF00" stroke="#E06000" stroke-miterlimit="10" points="162.46,69.762 166.042,67.733 157.664,46.395 
			150.454,43.557 149.191,51.194 		"/>
		<polygon fill="#E0A000" points="149.719,51.176 154.264,51.084 163.854,68.973 162.46,69.762 		"/>
		<polygon fill="#FFFF00" points="156.547,69.449 163.654,67.535 170.189,61.705 170.365,64.68 164.625,69.002 158.526,72.213 		"/>
		<polygon fill="#FFFFFF" points="155.289,50.596 157.223,47.26 156.869,50.912 163.984,67.721 		"/>
		
			<ellipse transform="matrix(0.4936 0.8697 -0.8697 0.4936 143.3775 -108.1104)" fill="#FF0000" stroke="#C00040" stroke-miterlimit="10" cx="164.522" cy="69.062" rx="3.599" ry="2.374"/>
		
			<ellipse transform="matrix(0.4936 0.8697 -0.8697 0.4936 142.0206 -108.2434)" fill="#FFFFFF" cx="163.953" cy="67.823" rx="1.14" ry="0.951"/>
	</g>
</g>
<g>
	<g>
		<circle fill="#8080C0" stroke="#000000" stroke-miterlimit="10" cx="138.118" cy="73.08" r="4.421"/>
		<path fill="#8060C0" d="M138.751,75.412c1.225-0.32,2.012-1.371,2.101-1.031c0.253,0.969-0.536,2.014-1.761,2.332
			c-1.225,0.32-2.423-0.203-2.677-1.174C136.279,75.022,137.524,75.733,138.751,75.412z"/>
		<path fill="#A6CAF0" d="M137.207,69.537c1.969-0.514,3.98,0.666,4.494,2.633c0.037,0.568-2.119-0.773-4.089-0.258
			c-1.967,0.514-2.574,2.662-3.037,2.119C134.06,72.063,135.237,70.053,137.207,69.537z"/>
		
			<ellipse transform="matrix(0.9675 -0.2527 0.2527 0.9675 -13.2436 37.0512)" fill="#FFFFFF" cx="137.594" cy="70.074" rx="1.236" ry="0.466"/>
	</g>
	<g>
		<polygon fill="#E08000" stroke="#402000" stroke-miterlimit="10" points="131.844,77.477 137.568,73.03 143.419,69.164 
			140.04,60.385 134.11,68.008 124.799,71.33 		"/>
		<polygon fill="#FFFF00" stroke="#E06000" stroke-miterlimit="10" points="133.108,71.299 136.455,68.901 125.856,48.573 
			118.385,46.518 117.942,54.246 		"/>
		<polygon fill="#E0A000" points="118.466,54.172 122.974,53.598 134.411,70.365 133.108,71.299 		"/>
		<polygon fill="#FFFF00" points="127.196,71.615 134.059,68.959 139.938,62.467 140.429,65.406 135.18,70.313 129.458,74.155 		"/>
		<polygon fill="#FFFFFF" points="123.941,53.004 125.51,49.481 125.547,53.151 134.408,69.108 		"/>
		
			<ellipse transform="matrix(0.5832 0.8123 -0.8123 0.5832 113.4777 -80.3979)" fill="#FF0000" stroke="#C00040" stroke-miterlimit="10" cx="135.085" cy="70.383" rx="3.599" ry="2.375"/>
		
			<ellipse transform="matrix(0.5831 0.8124 -0.8124 0.5831 112.2471 -80.3199)" fill="#FFFFFF" cx="134.387" cy="69.213" rx="1.14" ry="0.951"/>
	</g>
</g>
</svg>
