<?xml version="1.0" encoding="utf-8"?>
<!-- Generator: Adobe Illustrator 16.0.0, SVG Export Plug-In . SVG Version: 6.00 Build 0)  -->
<!DOCTYPE svg PUBLIC "-//W3C//DTD SVG 1.1//EN" "http://www.w3.org/Graphics/SVG/1.1/DTD/svg11.dtd">
<svg version="1.1" id="Layer_1" xmlns="http://www.w3.org/2000/svg" xmlns:xlink="http://www.w3.org/1999/xlink" x="0px" y="0px"
	 width="54.383px" height="27.192px" viewBox="34.5 0 54.383 27.192" enable-background="new 34.5 0 54.383 27.192"
	 xml:space="preserve">
<g>
	<circle fill="#8080C0" stroke="#000000" stroke-miterlimit="10" cx="48.096" cy="13.595" r="13.096"/>
	<path fill="#A6CAF0" d="M54.677,11.96c-1.818-0.783-3.996-1.538-6.355-1.538c-0.817,0-1.626,0.092-2.411,0.243
		c-0.864-1.021-2.37-1.646-3.102-1.404c-0.73,0.244-1.643,1.526-1.271,2.804c-3.324,1.387-5.62,2.813-5.62,0.528
		c0-6.126,5.631-11.474,12.179-11.474c4.501,0,8.273,2.583,10.396,5.949c0.503,0.799-0.299,1.179-1.169,2.129
		C56.525,10.065,55.986,11.487,54.677,11.96z"/>
	<path fill="#8060C0" d="M58.976,18.611c-1.24,3.848-5.537,7.027-10.735,7.027c-5.201,0-9.417-3.232-9.417-7.217
		c0-2.377,4.328,2.533,9.527,2.533C53.552,20.957,59.481,17.041,58.976,18.611z"/>
	<path stroke="#000000" stroke-miterlimit="10" d="M58.877,15.049c-0.251,1.051-1.35,3.77-6.932,4.246
		c-6.762,0.578-8.252-2.719-8.682-3.291s-0.763-5.199,0-5.344c0.764-0.143,4.342,3.482,9.159,3.053
		c4.819-0.428,5.534-4.196,6.105-3.815C59.104,10.279,59.005,14.51,58.877,15.049z"/>
	<path fill="#FFFF00" d="M48.56,17.193c-0.627,0.199-0.856,0.336-1.479-0.428c-0.619-0.764-0.275-3.17-0.275-3.17l2.228,0.5
		C49.032,14.095,49.523,16.888,48.56,17.193z"/>
	<path fill="#FFFF00" d="M53.761,17.101c0.412,0.16,0.932-0.084,1.251-0.602c0.518-0.834,0.154-2.903,0.154-2.903l-2.026,0.499
		C53.14,14.095,52.819,16.732,53.761,17.101z"/>
	<ellipse fill="#FFFFFF" cx="48.385" cy="3.123" rx="3.976" ry="1.495"/>
</g>
<g>
	<circle fill="#8080C0" stroke="#000000" stroke-miterlimit="10" cx="75.287" cy="13.596" r="13.096"/>
	<path fill="#A6CAF0" d="M66.06,9.197c-0.87-0.95-1.672-1.33-1.169-2.129c2.122-3.366,5.895-5.949,10.396-5.949
		c6.548,0,12.179,5.348,12.179,11.474c0,2.284-2.296,0.858-5.62-0.528c0.372-1.277-0.54-2.56-1.271-2.804
		c-0.731-0.242-2.237,0.383-3.102,1.404c-0.785-0.151-1.594-0.243-2.411-0.243c-2.359,0-4.537,0.755-6.355,1.538
		C67.398,11.487,66.859,10.065,66.06,9.197z"/>
	<path fill="#8060C0" d="M75.032,20.955c5.199,0,9.527-4.91,9.527-2.533c0,3.984-4.216,7.217-9.417,7.217
		c-5.198,0-9.495-3.18-10.735-7.027C63.903,17.041,69.831,20.957,75.032,20.955z"/>
	<path stroke="#000000" stroke-miterlimit="10" d="M64.855,9.897c0.571-0.381,1.286,3.388,6.105,3.815
		c4.817,0.43,8.396-3.195,9.159-3.053c0.763,0.145,0.43,4.771,0,5.344s-1.92,3.869-8.682,3.291
		c-5.582-0.477-6.681-3.195-6.932-4.246C64.378,14.51,64.28,10.279,64.855,9.897z"/>
	<path fill="#FFFF00" d="M74.35,14.095l2.228-0.5c0,0,0.344,2.406-0.275,3.17c-0.622,0.764-0.852,0.627-1.479,0.428
		C73.861,16.888,74.351,14.095,74.35,14.095z"/>
	<path fill="#FFFF00" d="M70.243,14.095l-2.026-0.499c0,0-0.363,2.069,0.154,2.903c0.319,0.518,0.839,0.762,1.251,0.602
		C70.565,16.732,70.243,14.095,70.243,14.095z"/>
	<ellipse fill="#FFFFFF" cx="74.998" cy="3.123" rx="3.976" ry="1.495"/>
</g>
</svg>
