<?xml version="1.0" encoding="utf-8"?>
<!-- Generator: Adobe Illustrator 16.0.0, SVG Export Plug-In . SVG Version: 6.00 Build 0)  -->
<!DOCTYPE svg PUBLIC "-//W3C//DTD SVG 1.1//EN" "http://www.w3.org/Graphics/SVG/1.1/DTD/svg11.dtd">
<svg version="1.1" id="Layer_1" xmlns="http://www.w3.org/2000/svg" xmlns:xlink="http://www.w3.org/1999/xlink" x="0px" y="0px"
	 width="149.199px" height="35.813px" viewBox="0 0 149.199 35.813" enable-background="new 0 0 149.199 35.813"
	 xml:space="preserve">
<g>
	<g>
		
			<ellipse transform="matrix(-0.9644 0.2646 -0.2646 -0.9644 14.5799 19.2583)" fill="#A00080" stroke="#000000" stroke-miterlimit="10" cx="5.993" cy="10.611" rx="4.424" ry="6.111"/>
		
			<ellipse transform="matrix(-0.9643 0.2646 -0.2646 -0.9643 14.5442 16.337)" fill="#E00080" cx="6.172" cy="9.148" rx="3.265" ry="4.51"/>
	</g>
	<g>
		
			<ellipse transform="matrix(-0.5015 0.8651 -0.8651 -0.5015 31.1369 -5.2454)" fill="#A00080" stroke="#000000" stroke-miterlimit="10" cx="17.08" cy="6.347" rx="4.423" ry="6.11"/>
		
			<ellipse transform="matrix(-0.5019 0.8649 -0.8649 -0.5019 28.9379 -6.8458)" fill="#E00080" cx="16.44" cy="4.91" rx="3.267" ry="4.509"/>
	</g>
</g>
<g>
	<g>
		<g>
			
				<ellipse transform="matrix(-0.789 0.6144 -0.6144 -0.789 75.617 -9.7864)" fill="#A00080" stroke="#000000" stroke-miterlimit="10" cx="39.489" cy="8.092" rx="4.423" ry="6.111"/>
			
				<ellipse transform="matrix(-0.7891 0.6143 -0.6143 -0.7891 74.5561 -12.5581)" fill="#E00080" cx="39.434" cy="6.52" rx="3.267" ry="4.509"/>
		</g>
	</g>
	<g>
		
			<ellipse transform="matrix(-0.9643 0.2648 -0.2648 -0.9643 71.3045 11.6)" fill="#A00080" stroke="#000000" stroke-miterlimit="10" cx="34.87" cy="10.606" rx="4.425" ry="6.11"/>
		
			<ellipse transform="matrix(-0.9643 0.2646 -0.2646 -0.9643 71.2685 8.6871)" fill="#E00080" cx="35.049" cy="9.144" rx="3.265" ry="4.511"/>
	</g>
</g>
<g>
	<g>
		<g>
			
				<ellipse transform="matrix(-0.789 0.6144 -0.6144 -0.789 253.7703 -70.9705)" fill="#A00080" stroke="#000000" stroke-miterlimit="10" cx="139.072" cy="8.092" rx="4.423" ry="6.111"/>
			
				<ellipse transform="matrix(-0.7891 0.6143 -0.6143 -0.7891 252.7212 -73.7271)" fill="#E00080" cx="139.017" cy="6.52" rx="3.267" ry="4.509"/>
		</g>
	</g>
	<g>
		
			<ellipse transform="matrix(-0.9643 0.2648 -0.2648 -0.9643 266.9156 -14.7698)" fill="#A00080" stroke="#000000" stroke-miterlimit="10" cx="134.453" cy="10.606" rx="4.425" ry="6.11"/>
		
			<ellipse transform="matrix(-0.9643 0.2646 -0.2646 -0.9643 266.884 -17.6668)" fill="#E00080" cx="134.632" cy="9.144" rx="3.265" ry="4.511"/>
	</g>
</g>
<g>
	<g>
		<g>
			
				<ellipse transform="matrix(-0.9843 0.1766 -0.1766 -0.9843 121.75 9.2011)" fill="#A00080" stroke="#000000" stroke-miterlimit="10" cx="60.466" cy="10.018" rx="4.423" ry="6.11"/>
			
				<ellipse transform="matrix(-0.9844 0.1761 -0.1761 -0.9844 122.8566 6.3023)" fill="#E00080" cx="61.149" cy="8.602" rx="3.267" ry="4.509"/>
		</g>
	</g>
	<g>
		
			<ellipse transform="matrix(-0.8549 0.5189 -0.5189 -0.8549 121.3602 -15.6597)" fill="#A00080" stroke="#000000" stroke-miterlimit="10" cx="62.87" cy="9.144" rx="4.424" ry="6.111"/>
		
			<ellipse transform="matrix(-0.8548 0.5189 -0.5189 -0.8548 120.1766 -18.2474)" fill="#E00080" cx="62.641" cy="7.688" rx="3.265" ry="4.509"/>
	</g>
</g>
<g>
	<g>
		<g>
			
				<ellipse transform="matrix(-0.9843 0.1766 -0.1766 -0.9843 220.6367 0.4004)" fill="#A00080" stroke="#000000" stroke-miterlimit="10" cx="110.301" cy="10.018" rx="4.423" ry="6.11"/>
			
				<ellipse transform="matrix(-0.9844 0.1761 -0.1761 -0.9844 221.7479 -2.4721)" fill="#E00080" cx="110.984" cy="8.602" rx="3.267" ry="4.509"/>
		</g>
	</g>
	<g>
		
			<ellipse transform="matrix(-0.8549 0.5189 -0.5189 -0.8549 213.7969 -41.5173)" fill="#A00080" stroke="#000000" stroke-miterlimit="10" cx="112.705" cy="9.144" rx="4.424" ry="6.111"/>
		
			<ellipse transform="matrix(-0.8548 0.5189 -0.5189 -0.8548 212.6112 -44.1083)" fill="#E00080" cx="112.476" cy="7.688" rx="3.265" ry="4.509"/>
	</g>
</g>
<g>
	<g>
		<g>
			
				<ellipse transform="matrix(-0.979 -0.2041 0.2041 -0.979 161.6734 37.3821)" fill="#A00080" stroke="#000000" stroke-miterlimit="10" cx="82.764" cy="10.356" rx="4.422" ry="6.111"/>
			
				<ellipse transform="matrix(-0.9789 -0.2044 0.2044 -0.9789 164.1824 35.5513)" fill="#E00080" cx="83.927" cy="9.298" rx="3.267" ry="4.51"/>
		</g>
	</g>
	<g>
		
			<ellipse transform="matrix(-0.6259 0.7799 -0.7799 -0.6259 152.1759 -55.2429)" fill="#A00080" stroke="#000000" stroke-miterlimit="10" cx="89.337" cy="8.876" rx="4.425" ry="6.11"/>
		
			<ellipse transform="matrix(-0.6259 0.7799 -0.7799 -0.6259 150.0075 -56.787)" fill="#E00080" cx="88.624" cy="7.586" rx="3.266" ry="4.51"/>
	</g>
</g>
<g>
	<g>
		
			<ellipse transform="matrix(-0.2645 0.9644 -0.9644 -0.2645 50.5781 18.4605)" fill="#A00080" stroke="#000000" stroke-miterlimit="10" cx="18.25" cy="28.517" rx="6.11" ry="4.424"/>
		
			<ellipse transform="matrix(-0.2646 0.9644 -0.9644 -0.2646 48.9433 16.7865)" fill="#E00080" cx="18.071" cy="27.055" rx="4.51" ry="3.265"/>
	</g>
	<g>
		
			<ellipse transform="matrix(-0.865 0.5017 -0.5017 -0.865 25.5261 41.6382)" fill="#A00080" stroke="#000000" stroke-miterlimit="10" cx="7.163" cy="24.252" rx="6.11" ry="4.422"/>
		
			<ellipse transform="matrix(-0.8649 0.5019 -0.5019 -0.8649 26.003 38.634)" fill="#E00080" cx="7.802" cy="22.816" rx="4.509" ry="3.267"/>
	</g>
</g>
<g>
	<g>
		<g>
			
				<ellipse transform="matrix(-0.6143 0.7891 -0.7891 -0.6143 77.7109 14.0099)" fill="#A00080" stroke="#000000" stroke-miterlimit="10" cx="35.431" cy="25.998" rx="6.11" ry="4.423"/>
			
				<ellipse transform="matrix(-0.614 0.7893 -0.7893 -0.614 76.5559 11.4166)" fill="#E00080" cx="35.487" cy="24.426" rx="4.509" ry="3.267"/>
		</g>
	</g>
	<g>
		
			<ellipse transform="matrix(-0.2645 0.9644 -0.9644 -0.2645 78.1415 -2.5682)" fill="#A00080" stroke="#000000" stroke-miterlimit="10" cx="40.05" cy="28.513" rx="6.11" ry="4.424"/>
		
			<ellipse transform="matrix(-0.2646 0.9644 -0.9644 -0.2646 76.5073 -4.2427)" fill="#E00080" cx="39.871" cy="27.05" rx="4.51" ry="3.265"/>
	</g>
</g>
<g>
	<g>
		<g>
			
				<ellipse transform="matrix(-0.6143 0.7891 -0.7891 -0.6143 238.4677 -64.5683)" fill="#A00080" stroke="#000000" stroke-miterlimit="10" cx="135.014" cy="25.998" rx="6.11" ry="4.423"/>
			
				<ellipse transform="matrix(-0.614 0.7893 -0.7893 -0.614 237.2874 -67.1813)" fill="#E00080" cx="135.07" cy="24.426" rx="4.509" ry="3.267"/>
		</g>
	</g>
	<g>
		
			<ellipse transform="matrix(-0.2645 0.9644 -0.9644 -0.2645 204.0673 -98.6038)" fill="#A00080" stroke="#000000" stroke-miterlimit="10" cx="139.633" cy="28.513" rx="6.11" ry="4.424"/>
		
			<ellipse transform="matrix(-0.2646 0.9644 -0.9644 -0.2646 202.441 -100.2761)" fill="#E00080" cx="139.454" cy="27.05" rx="4.51" ry="3.265"/>
	</g>
</g>
<g>
	<g>
		<g>
			
				<ellipse transform="matrix(-0.1764 0.9843 -0.9843 -0.1764 101.9787 -29.4738)" fill="#A00080" stroke="#000000" stroke-miterlimit="10" cx="63.32" cy="27.925" rx="6.111" ry="4.422"/>
			
				<ellipse transform="matrix(-0.1761 0.9844 -0.9844 -0.1761 99.7598 -30.4825)" fill="#E00080" cx="62.637" cy="26.509" rx="4.509" ry="3.267"/>
		</g>
	</g>
	<g>
		
			<ellipse transform="matrix(-0.5188 0.8549 -0.8549 -0.5188 115.6429 -10.9928)" fill="#A00080" stroke="#000000" stroke-miterlimit="10" cx="60.915" cy="27.05" rx="6.11" ry="4.424"/>
		
			<ellipse transform="matrix(-0.5189 0.8548 -0.8548 -0.5189 114.7535 -13.3895)" fill="#E00080" cx="61.144" cy="25.595" rx="4.51" ry="3.265"/>
	</g>
</g>
<g>
	<g>
		<g>
			
				<ellipse transform="matrix(-0.1764 0.9843 -0.9843 -0.1764 160.6042 -78.5251)" fill="#A00080" stroke="#000000" stroke-miterlimit="10" cx="113.153" cy="27.925" rx="6.111" ry="4.422"/>
			
				<ellipse transform="matrix(-0.1761 0.9844 -0.9844 -0.1761 158.3666 -79.537)" fill="#E00080" cx="112.47" cy="26.509" rx="4.509" ry="3.267"/>
		</g>
	</g>
	<g>
		
			<ellipse transform="matrix(-0.5188 0.8549 -0.8549 -0.5188 191.3288 -53.5951)" fill="#A00080" stroke="#000000" stroke-miterlimit="10" cx="110.748" cy="27.05" rx="6.11" ry="4.424"/>
		
			<ellipse transform="matrix(-0.5189 0.8548 -0.8548 -0.5189 190.4472 -55.9871)" fill="#E00080" cx="110.977" cy="25.595" rx="4.51" ry="3.265"/>
	</g>
</g>
<g>
	<g>
		<g>
			
				<ellipse transform="matrix(0.204 0.979 -0.979 0.204 99.5794 -65.9447)" fill="#A00080" stroke="#000000" stroke-miterlimit="10" cx="90.342" cy="28.263" rx="6.11" ry="4.422"/>
			
				<ellipse transform="matrix(0.2043 0.9789 -0.9789 0.2043 97.5866 -65.6529)" fill="#E00080" cx="89.179" cy="27.204" rx="4.509" ry="3.268"/>
		</g>
	</g>
	<g>
		
			<ellipse transform="matrix(-0.7797 0.6262 -0.6262 -0.7797 165.8526 -4.7891)" fill="#A00080" stroke="#000000" stroke-miterlimit="10" cx="83.769" cy="26.782" rx="6.11" ry="4.425"/>
		
			<ellipse transform="matrix(-0.7799 0.6259 -0.6259 -0.7799 166.323 -7.5055)" fill="#E00080" cx="84.481" cy="25.492" rx="4.51" ry="3.265"/>
	</g>
</g>
</svg>
