<?xml version="1.0" encoding="utf-8"?>
<!-- Generator: Adobe Illustrator 16.0.0, SVG Export Plug-In . SVG Version: 6.00 Build 0)  -->
<!DOCTYPE svg PUBLIC "-//W3C//DTD SVG 1.1//EN" "http://www.w3.org/Graphics/SVG/1.1/DTD/svg11.dtd">
<svg version="1.1" id="Layer_1" xmlns="http://www.w3.org/2000/svg" xmlns:xlink="http://www.w3.org/1999/xlink" x="0px" y="0px"
	 width="173px" height="121px" viewBox="0 0 173 121" enable-background="new 0 0 173 121" xml:space="preserve">
<path fill="#FF6600" d="M147.084,1.614l-0.575,1.441c0,0,17.398,3.107,22.825,23.688c5.428,20.581-9.043,32.62-9.043,32.62
	s19.19-14.263,10.543-36.979C163.135,2.159,147.084,1.614,147.084,1.614z"/>
<path fill="#FFFF00" d="M146.509,3.056l2.177,6.502l-6.769,17.187c0,0,7.831,1.551,12.184,11.143
	c1.79,3.945,1.697,9.764,1.697,9.764s1.922-6.314-0.216-10.96c-2.936-6.377-7.829-11.335-7.829-11.335s6.847,4.245,10.022,11.646
	c5.141,11.978-0.545,18.146-0.545,18.146s12.182-10.211,8.75-25.467s-14.047-18.878-14.047-18.878s10.437,2.334,15.505,19.244
	c5.067,16.91-10.854,29.785-10.854,29.785s20.264-11.997,14.25-33.719C164.82,4.395,146.509,3.056,146.509,3.056z"/>
<g>
	<path fill="#FF6600" d="M73.125,58.959L70.5,58.287c0,0,16.024-12.963,10.813-33.6S51.479-0.313,51.479-0.313
		S80.5,1.75,84.343,25.75C88.044,48.868,73.125,58.959,73.125,58.959z"/>
	<path fill="#FFFF00" d="M72.001,57.584l-0.852-6.863L56.251,38.84c0,0,5.334-4.59,4.5-15.09
		c-0.343-4.319-3.533-11.255-3.533-11.255s5.72,6.906,6.098,12.005c0.519,7-1.364,13.707-1.364,13.707s3.936-7.027,3.133-15.04
		C63.785,10.196,52.132,5.392,52.132,5.392s18.071,3.432,22.452,18.441c4.381,15.011-1.932,25.084-1.932,25.084
		s8.181-8.501,4.431-25.75C73.333,5.917,51.479,0.083,51.479,0.083S77.001,1.5,82.251,23.417S72.001,57.584,72.001,57.584z"/>
	<g>
		<g>
			<circle fill="#8080C0" stroke="#000000" stroke-miterlimit="10" cx="50.488" cy="33.72" r="4.421"/>
			<path fill="#8060C0" d="M47.74,34.905c-0.9-0.438-1.179-1.717-0.624-2.854c0.555-1.137,1.734-1.706,2.634-1.268
				c0.316,0.154-0.87,0.719-1.424,1.855C47.771,33.779,48.223,35.141,47.74,34.905z"/>
			<path fill="#A6CAF0" d="M48.858,37.007c-0.442-0.562,1.785-0.733,2.675-2.563c0.892-1.829,0.001-4.207,0.551-4.06
				c1.829,0.892,2.593,3.097,1.699,4.927C52.893,37.141,50.688,37.896,48.858,37.007z"/>
			
				<ellipse transform="matrix(0.8986 0.4388 -0.4388 0.8986 20.6904 -19.8714)" fill="#FFFFFF" cx="53.333" cy="34.824" rx="0.466" ry="1.236"/>
		</g>
		<g>
			<polygon fill="#E08000" stroke="#402000" stroke-miterlimit="10" points="49.585,47.123 54.673,38.646 63.315,34.33 
				55.369,29.291 50.429,34.27 44.945,39.006 			"/>
			<polygon fill="#FFFF00" stroke="#E06000" stroke-miterlimit="10" points="64.987,57.205 72.652,58.287 72.107,50.559 
				54.259,36.173 51.25,38.982 			"/>
			<polygon fill="#E0A000" points="51.25,38.982 52.42,37.887 66.612,52.396 65.164,56.705 			"/>
			<polygon fill="#FFFF00" points="47.733,42 52.624,37.143 58.467,32.963 61.254,34.021 53.731,38.508 49.776,44.717 			"/>
			<polygon fill="#FFFFFF" points="53.652,38.139 67.559,49.964 71.149,50.721 67.387,51.564 			"/>
			
				<ellipse transform="matrix(-0.6818 -0.7316 0.7316 -0.6818 61.1215 101.0361)" fill="#FF0000" stroke="#C00040" stroke-miterlimit="10" cx="52.536" cy="37.224" rx="3.598" ry="2.373"/>
			
				<ellipse transform="matrix(-0.6823 -0.7311 0.7311 -0.6823 62.2014 103.3043)" fill="#FFFFFF" cx="53.549" cy="38.136" rx="1.139" ry="0.949"/>
		</g>
	</g>
	<path fill="#FFFFFF" d="M64.277,12.5c0,0,8.223,10.483,7.223,20.283s-6.451,15.046-6.451,15.046s5.936-10.263,3.6-17.452
		C69.75,38.313,62.75,46.5,62.75,46.5l5.306,4.914l3.094-0.693c0,0,4.586-10.801,3.101-20.344
		C72.765,20.833,64.277,12.5,64.277,12.5z"/>
</g>
<g>
	<g>
		<g>
			<circle fill="#8080C0" stroke="#000000" stroke-miterlimit="10" cx="93.488" cy="33.72" r="4.421"/>
			<path fill="#8060C0" d="M90.74,34.905c-0.9-0.438-1.179-1.717-0.624-2.854c0.555-1.137,1.734-1.706,2.634-1.268
				c0.316,0.154-0.87,0.719-1.424,1.855C90.771,33.779,91.223,35.141,90.74,34.905z"/>
			<path fill="#A6CAF0" d="M91.858,37.007c-0.442-0.562,1.785-0.733,2.675-2.563c0.892-1.829,0.001-4.207,0.551-4.06
				c1.829,0.892,2.593,3.097,1.699,4.927C95.893,37.141,93.688,37.896,91.858,37.007z"/>
			
				<ellipse transform="matrix(0.8986 0.4388 -0.4388 0.8986 25.0516 -38.7405)" fill="#FFFFFF" cx="96.333" cy="34.824" rx="0.466" ry="1.236"/>
		</g>
		<g>
			<polygon fill="#E08000" stroke="#402000" stroke-miterlimit="10" points="92.585,47.123 97.673,38.646 106.315,34.33 
				98.369,29.291 93.429,34.27 87.945,39.006 			"/>
			<polygon fill="#FFFF00" stroke="#E06000" stroke-miterlimit="10" points="107.987,57.205 115.652,58.287 115.107,50.559 
				97.259,36.173 94.25,38.982 			"/>
			<polygon fill="#E0A000" points="94.25,38.982 95.42,37.887 109.612,52.396 108.164,56.705 			"/>
			<polygon fill="#FFFF00" points="90.733,42 95.624,37.143 101.467,32.963 104.254,34.021 96.731,38.508 92.776,44.717 			"/>
			<polygon fill="#FFFFFF" points="96.652,38.139 110.559,49.964 114.149,50.721 110.387,51.564 			"/>
			
				<ellipse transform="matrix(-0.6818 -0.7316 0.7316 -0.6818 133.4375 132.4936)" fill="#FF0000" stroke="#C00040" stroke-miterlimit="10" cx="95.536" cy="37.224" rx="3.598" ry="2.373"/>
			
				<ellipse transform="matrix(-0.6823 -0.7311 0.7311 -0.6823 134.5385 134.7422)" fill="#FFFFFF" cx="96.549" cy="38.136" rx="1.139" ry="0.949"/>
		</g>
	</g>
</g>
<g>
	<g>
		<g>
			<circle fill="#8080C0" stroke="#000000" stroke-miterlimit="10" cx="7.639" cy="33.786" r="4.421"/>
			<path fill="#8060C0" d="M10.043,35.568c0.074,0.998-0.893,1.881-2.155,1.972c-1.262,0.091-2.347-0.644-2.418-1.642
				c-0.025-0.352,1.058,0.392,2.319,0.3C9.055,36.107,10.005,35.032,10.043,35.568z"/>
			<path fill="#A6CAF0" d="M11.3,33.546c-0.264,0.665-1.53-1.176-3.56-1.026c-2.029,0.146-3.64,2.109-3.787,1.561
				c-0.147-2.03,1.377-3.797,3.408-3.942C9.392,29.989,11.151,31.518,11.3,33.546z"/>
			
				<ellipse transform="matrix(-0.0712 -0.9975 0.9975 -0.0712 -23.0167 40.1117)" fill="#FFFFFF" cx="7.166" cy="30.771" rx="0.466" ry="1.237"/>
		</g>
		<g>
			<polygon fill="#E08000" stroke="#402000" stroke-miterlimit="10" points="19.686,27.842 9.8,27.694 1.73,22.385 1.359,31.786 
				8.145,33.562 14.993,35.928 			"/>
			<polygon fill="#FFFF00" stroke="#E06000" stroke-miterlimit="10" points="20.678,9.46 17.768,2.286 11.355,6.636 7.869,29.294 
				11.809,30.486 			"/>
			<polygon fill="#E0A000" points="11.809,30.486 10.274,30.024 15.703,10.467 20.156,9.558 			"/>
			<polygon fill="#FFFF00" points="16.184,32.014 9.528,30.221 2.98,27.265 2.498,24.322 10.153,28.578 17.509,28.884 			"/>
			<polygon fill="#FFFFFF" points="9.873,28.832 13.124,10.869 11.977,7.384 14.595,10.215 			"/>
			
				<ellipse transform="matrix(-0.2907 0.9568 -0.9568 -0.2907 41.3954 29.8247)" fill="#FF0000" stroke="#C00040" stroke-miterlimit="10" cx="9.643" cy="30.256" rx="3.598" ry="2.373"/>
			
				<ellipse transform="matrix(-0.2897 0.9571 -0.9571 -0.2897 40.4797 27.8053)" fill="#FFFFFF" cx="9.923" cy="28.922" rx="1.139" ry="0.949"/>
		</g>
	</g>
</g>
<g>
	<g>
		<g>
			<circle fill="#8080C0" stroke="#000000" stroke-miterlimit="10" cx="136.639" cy="33.786" r="4.421"/>
			<path fill="#8060C0" d="M139.043,35.568c0.074,0.998-0.893,1.881-2.155,1.972c-1.262,0.091-2.347-0.644-2.418-1.642
				c-0.025-0.352,1.058,0.392,2.319,0.3C138.055,36.107,139.005,35.032,139.043,35.568z"/>
			<path fill="#A6CAF0" d="M140.3,33.546c-0.264,0.665-1.53-1.176-3.56-1.026c-2.029,0.146-3.64,2.109-3.787,1.561
				c-0.147-2.03,1.377-3.797,3.408-3.942C138.392,29.989,140.151,31.518,140.3,33.546z"/>
			
				<ellipse transform="matrix(-0.0712 -0.9975 0.9975 -0.0712 115.1742 168.7838)" fill="#FFFFFF" cx="136.166" cy="30.771" rx="0.466" ry="1.237"/>
		</g>
		<g>
			<polygon fill="#E08000" stroke="#402000" stroke-miterlimit="10" points="148.686,27.842 138.8,27.694 130.73,22.385 
				130.359,31.786 137.145,33.562 143.993,35.928 			"/>
			<polygon fill="#FFFF00" stroke="#E06000" stroke-miterlimit="10" points="149.678,9.46 146.768,2.286 140.355,6.636 
				136.869,29.294 140.809,30.486 			"/>
			<polygon fill="#E0A000" points="140.809,30.486 139.274,30.024 144.703,10.467 149.156,9.558 			"/>
			<polygon fill="#FFFF00" points="145.184,32.014 138.528,30.221 131.98,27.265 131.498,24.322 139.153,28.578 146.509,28.884 			
				"/>
			<polygon fill="#FFFFFF" points="138.873,28.832 142.124,10.869 140.977,7.384 143.595,10.215 			"/>
			
				<ellipse transform="matrix(-0.2907 0.9568 -0.9568 -0.2907 207.8918 -93.6055)" fill="#FF0000" stroke="#C00040" stroke-miterlimit="10" cx="138.643" cy="30.256" rx="3.598" ry="2.373"/>
			
				<ellipse transform="matrix(-0.2897 0.9571 -0.9571 -0.2897 206.8568 -95.6611)" fill="#FFFFFF" cx="138.923" cy="28.922" rx="1.139" ry="0.949"/>
		</g>
	</g>
</g>
<path fill="#E0A000" d="M162.232,46.726c0,0,2.121-13.154-3.498-21.246c-5.618-8.091-12.928-10.043-12.928-10.043
	s10.161,6.107,11.598,13.53c-2.877-7.478-12.966-11.255-12.966-11.255l2.265-6.867l1.982-1.287c0,0,10.021,4.992,14.148,13.724
	C166.834,31.743,162.232,46.726,162.232,46.726z"/>
<path fill="#FFFFFF" d="M163.334,30.257c0,0-3.999-9.393-9.583-13.226c-4.556-3.128-10.786-4.341-10.786-4.341
	s7.41,1.778,11.035,6.153c-7.08-4.803-12.083-4.062-12.083-4.063l0.833-4.566c0,0,7.251,0.61,12.584,6.172
	S163.334,30.257,163.334,30.257z"/>
<path fill="#FF6600" d="M155.35,62.614l0.575,1.441c0,0-17.398,3.107-22.825,23.688c-5.428,20.581,9.043,32.62,9.043,32.62
	s-19.19-14.263-10.543-36.979C139.299,63.159,155.35,62.614,155.35,62.614z"/>
<path fill="#FFFF00" d="M155.925,64.056l-2.177,6.502l6.769,17.187c0,0-7.831,1.551-12.184,11.143
	c-1.79,3.945-1.697,9.764-1.697,9.764s-1.922-6.314,0.216-10.96c2.936-6.377,7.829-11.335,7.829-11.335s-6.847,4.245-10.022,11.646
	c-5.141,11.978,0.545,18.146,0.545,18.146s-12.182-10.211-8.75-25.467S150.5,71.804,150.5,71.804s-10.437,2.334-15.505,19.244
	c-5.067,16.91,10.854,29.785,10.854,29.785s-20.264-11.997-14.25-33.719C137.613,65.395,155.925,64.056,155.925,64.056z"/>
<g>
	<path fill="#FF6600" d="M55.754,119.959l2.625-0.672c0,0-16.024-12.963-10.813-33.6S77.4,60.687,77.4,60.687
		S48.379,62.75,44.536,86.75C40.835,109.868,55.754,119.959,55.754,119.959z"/>
	<path fill="#FFFF00" d="M56.878,118.584l0.852-6.863L72.628,99.84c0,0-5.334-4.59-4.5-15.09c0.343-4.319,3.533-11.255,3.533-11.255
		s-5.72,6.906-6.098,12.005c-0.519,7,1.364,13.707,1.364,13.707s-3.936-7.027-3.133-15.04c1.299-12.971,12.952-17.775,12.952-17.775
		s-18.071,3.432-22.452,18.441c-4.381,15.011,1.932,25.084,1.932,25.084s-8.181-8.501-4.431-25.75
		C55.546,66.917,77.4,61.083,77.4,61.083S51.878,62.5,46.628,84.417S56.878,118.584,56.878,118.584z"/>
	<g>
		<g>
			<circle fill="#8080C0" stroke="#000000" stroke-miterlimit="10" cx="78.39" cy="94.72" r="4.421"/>
			<path fill="#8060C0" d="M80.553,93.639c-0.554-1.137-1.74-1.701-1.424-1.855c0.899-0.438,2.079,0.131,2.634,1.268
				c0.555,1.138,0.276,2.417-0.624,2.854C80.656,96.141,81.108,94.779,80.553,93.639z"/>
			<path fill="#A6CAF0" d="M75.096,96.311c-0.894-1.83-0.13-4.035,1.699-4.927c0.55-0.147-0.341,2.23,0.551,4.06
				c0.89,1.83,3.117,2.002,2.675,2.563C78.191,98.896,75.986,98.141,75.096,96.311z"/>
			
				<ellipse transform="matrix(-0.4377 -0.8991 0.8991 -0.4377 22.4543 205.6909)" fill="#FFFFFF" cx="75.545" cy="95.824" rx="1.236" ry="0.467"/>
		</g>
		<g>
			<polygon fill="#E08000" stroke="#402000" stroke-miterlimit="10" points="83.934,100.006 78.45,95.27 73.51,90.291 65.563,95.33 
				74.206,99.646 79.294,108.123 			"/>
			<polygon fill="#FFFF00" stroke="#E06000" stroke-miterlimit="10" points="77.629,99.982 74.62,97.173 56.771,111.559 
				56.227,119.287 63.892,118.205 			"/>
			<polygon fill="#E0A000" points="63.715,117.705 62.267,113.396 76.459,98.887 77.629,99.982 			"/>
			<polygon fill="#FFFF00" points="79.103,105.717 75.147,99.508 67.625,95.021 70.412,93.963 76.255,98.143 81.146,103 			"/>
			<polygon fill="#FFFFFF" points="61.492,112.564 57.729,111.721 61.32,110.964 75.227,99.139 			"/>
			
				<ellipse transform="matrix(0.7318 0.6816 -0.6816 0.7318 87.4243 -25.6851)" fill="#FF0000" stroke="#C00040" stroke-miterlimit="10" cx="76.343" cy="98.224" rx="2.373" ry="3.599"/>
			
				<ellipse transform="matrix(0.7313 0.682 -0.682 0.7313 87.8531 -24.7425)" fill="#FFFFFF" cx="75.331" cy="99.137" rx="0.951" ry="1.139"/>
		</g>
	</g>
	<path fill="#FFFFFF" d="M64.602,73.5c0,0-8.223,10.483-7.223,20.283s6.451,15.046,6.451,15.046s-5.936-10.263-3.6-17.452
		c-1.102,7.936,5.898,16.123,5.898,16.123l-5.306,4.914l-3.094-0.693c0,0-4.586-10.801-3.101-20.344
		C56.114,81.833,64.602,73.5,64.602,73.5z"/>
</g>
<g>
	<g>
		<g>
			<circle fill="#8080C0" stroke="#000000" stroke-miterlimit="10" cx="121.816" cy="94.72" r="4.421"/>
			<path fill="#8060C0" d="M123.979,93.639c-0.554-1.137-1.74-1.701-1.424-1.855c0.899-0.438,2.079,0.131,2.634,1.268
				c0.555,1.138,0.276,2.417-0.624,2.854C124.082,96.141,124.534,94.779,123.979,93.639z"/>
			<path fill="#A6CAF0" d="M118.521,96.311c-0.894-1.83-0.13-4.035,1.699-4.927c0.55-0.147-0.341,2.23,0.551,4.06
				c0.89,1.83,3.117,2.002,2.675,2.563C121.617,98.896,119.412,98.141,118.521,96.311z"/>
			
				<ellipse transform="matrix(-0.4377 -0.8991 0.8991 -0.4377 84.8878 244.7358)" fill="#FFFFFF" cx="118.971" cy="95.824" rx="1.236" ry="0.467"/>
		</g>
		<g>
			<polygon fill="#E08000" stroke="#402000" stroke-miterlimit="10" points="127.359,100.006 121.876,95.27 116.936,90.291 
				108.989,95.33 117.632,99.646 122.72,108.123 			"/>
			<polygon fill="#FFFF00" stroke="#E06000" stroke-miterlimit="10" points="121.055,99.982 118.046,97.173 100.197,111.559 
				99.652,119.287 107.317,118.205 			"/>
			<polygon fill="#E0A000" points="107.141,117.705 105.692,113.396 119.885,98.887 121.055,99.982 			"/>
			<polygon fill="#FFFF00" points="122.528,105.717 118.573,99.508 111.051,95.021 113.838,93.963 119.681,98.143 124.571,103 			
				"/>
			<polygon fill="#FFFFFF" points="104.918,112.564 101.155,111.721 104.746,110.964 118.652,99.139 			"/>
			
				<ellipse transform="matrix(0.7318 0.6816 -0.6816 0.7318 99.0728 -55.2825)" fill="#FF0000" stroke="#C00040" stroke-miterlimit="10" cx="119.769" cy="98.224" rx="2.373" ry="3.599"/>
			
				<ellipse transform="matrix(0.7313 0.682 -0.682 0.7313 99.5203 -54.36)" fill="#FFFFFF" cx="118.757" cy="99.137" rx="0.951" ry="1.139"/>
		</g>
	</g>
</g>
<g>
	<g>
		<g>
			<circle fill="#8080C0" stroke="#000000" stroke-miterlimit="10" cx="35.638" cy="94.774" r="4.42"/>
			<path fill="#8060C0" d="M35.488,97.188c1.262,0.092,2.345-0.651,2.319-0.3c-0.071,0.998-1.156,1.732-2.418,1.642
				c-1.263-0.091-2.229-0.974-2.155-1.972C33.272,96.021,34.223,97.097,35.488,97.188z"/>
			<path fill="#A6CAF0" d="M35.916,91.127c2.031,0.146,3.556,1.912,3.408,3.942c-0.147,0.549-1.758-1.414-3.787-1.561
				c-2.029-0.149-3.296,1.691-3.56,1.026C32.126,92.507,33.886,90.979,35.916,91.127z"/>
			
				<ellipse transform="matrix(0.9974 0.0727 -0.0727 0.9974 6.7645 -2.3818)" fill="#FFFFFF" cx="36.111" cy="91.76" rx="1.236" ry="0.467"/>
		</g>
		<g>
			<polygon fill="#E08000" stroke="#402000" stroke-miterlimit="10" points="28.284,96.917 35.133,94.551 41.918,92.775 
				41.547,83.374 33.478,88.684 23.592,88.831 			"/>
			<polygon fill="#FFFF00" stroke="#E06000" stroke-miterlimit="10" points="31.469,91.476 35.408,90.283 31.922,67.625 
				25.51,63.275 22.6,70.449 			"/>
			<polygon fill="#E0A000" points="23.121,70.547 27.574,71.456 33.003,91.014 31.469,91.476 			"/>
			<polygon fill="#FFFF00" points="25.769,89.873 33.124,89.567 40.779,85.312 40.297,88.254 33.749,91.21 27.094,93.003 			"/>
			<polygon fill="#FFFFFF" points="28.683,71.204 31.301,68.373 30.153,71.858 33.404,89.821 			"/>
			
				<ellipse transform="matrix(-0.9568 0.2909 -0.2909 -0.9568 92.3555 168.7634)" fill="#FF0000" stroke="#C00040" stroke-miterlimit="10" cx="33.634" cy="91.246" rx="2.374" ry="3.599"/>
			<path fill="#FFFFFF" d="M32.443,90.188c-0.184-0.604,0.078-1.213,0.581-1.367c0.502-0.149,1.057,0.213,1.238,0.815
				c0.184,0.602-0.076,1.214-0.578,1.365C33.183,91.156,32.625,90.79,32.443,90.188z"/>
		</g>
	</g>
</g>
<g>
	<g>
		<g>
			<circle fill="#8080C0" stroke="#000000" stroke-miterlimit="10" cx="165.794" cy="94.785" r="4.42"/>
			<path fill="#8060C0" d="M165.645,97.198c1.262,0.092,2.345-0.651,2.319-0.3c-0.071,0.998-1.156,1.732-2.418,1.642
				c-1.263-0.091-2.229-0.974-2.155-1.972C163.429,96.032,164.379,97.107,165.645,97.198z"/>
			<path fill="#A6CAF0" d="M166.072,91.138c2.031,0.146,3.556,1.912,3.408,3.942c-0.147,0.549-1.758-1.414-3.787-1.561
				c-2.029-0.149-3.296,1.691-3.56,1.026C162.282,92.518,164.042,90.989,166.072,91.138z"/>
			
				<ellipse transform="matrix(0.9974 0.0727 -0.0727 0.9974 7.1095 -11.8414)" fill="#FFFFFF" cx="166.267" cy="91.771" rx="1.236" ry="0.467"/>
		</g>
		<g>
			<polygon fill="#E08000" stroke="#402000" stroke-miterlimit="10" points="158.44,96.928 165.289,94.562 172.074,92.786 
				171.703,83.385 163.634,88.694 153.748,88.842 			"/>
			<polygon fill="#FFFF00" stroke="#E06000" stroke-miterlimit="10" points="161.625,91.486 165.564,90.294 162.078,67.636 
				155.666,63.286 152.756,70.46 			"/>
			<polygon fill="#E0A000" points="153.277,70.558 157.73,71.467 163.159,91.024 161.625,91.486 			"/>
			<polygon fill="#FFFF00" points="155.925,89.884 163.28,89.578 170.936,85.322 170.453,88.265 163.905,91.221 157.25,93.014 			
				"/>
			<polygon fill="#FFFFFF" points="158.839,71.215 161.457,68.384 160.31,71.869 163.561,89.832 			"/>
			
				<ellipse transform="matrix(-0.9568 0.2909 -0.2909 -0.9568 347.0433 130.9252)" fill="#FF0000" stroke="#C00040" stroke-miterlimit="10" cx="163.791" cy="91.257" rx="2.374" ry="3.599"/>
			<path fill="#FFFFFF" d="M162.6,90.199c-0.184-0.604,0.078-1.213,0.581-1.367c0.502-0.149,1.057,0.213,1.238,0.815
				c0.184,0.602-0.076,1.214-0.578,1.365C163.339,91.167,162.781,90.801,162.6,90.199z"/>
		</g>
	</g>
</g>
<path fill="#E0A000" d="M140.201,107.726c0,0-2.121-13.154,3.498-21.246c5.618-8.091,12.928-10.043,12.928-10.043
	s-10.161,6.107-11.598,13.53c2.877-7.478,12.966-11.255,12.966-11.255l-2.265-6.867l-1.982-1.287c0,0-10.021,4.992-14.148,13.724
	C135.6,92.743,140.201,107.726,140.201,107.726z"/>
<path fill="#FFFFFF" d="M139.1,91.257c0,0,3.999-9.393,9.583-13.226c4.556-3.128,10.786-4.341,10.786-4.341
	s-7.41,1.778-11.035,6.153c7.08-4.803,12.083-4.062,12.083-4.063l-0.833-4.566c0,0-7.251,0.61-12.584,6.172
	S139.1,91.257,139.1,91.257z"/>
</svg>
