<?xml version="1.0" encoding="utf-8"?>
<!-- Generator: Adobe Illustrator 16.0.0, SVG Export Plug-In . SVG Version: 6.00 Build 0)  -->
<!DOCTYPE svg PUBLIC "-//W3C//DTD SVG 1.1//EN" "http://www.w3.org/Graphics/SVG/1.1/DTD/svg11.dtd">
<svg version="1.1" id="Layer_1" xmlns="http://www.w3.org/2000/svg" xmlns:xlink="http://www.w3.org/1999/xlink" x="0px" y="0px"
	 width="109.113px" height="43.874px" viewBox="0 21.979 109.113 43.874" enable-background="new 0 21.979 109.113 43.874"
	 xml:space="preserve">
<circle fill="#FFFF00" stroke="#000000" stroke-width="0.5" stroke-miterlimit="10" cx="15.33" cy="36.653" r="2.24"/>
<g>
	<circle fill="#8080C0" stroke="#000000" stroke-miterlimit="10" cx="6.461" cy="38.895" r="4.42"/>
	<path fill="#8060C0" d="M6.485,41.311c1.266,0,2.293-0.816,2.293-0.467c0,1-1.027,1.813-2.293,1.813s-2.293-0.811-2.293-1.813
		C4.192,40.309,5.219,41.311,6.485,41.311z"/>
	<path fill="#A6CAF0" d="M6.475,35.237c2.033,0,3.682,1.648,3.682,3.682c-0.107,0.561-1.855-1.283-3.887-1.283
		c-2.033,0-3.164,1.926-3.475,1.283C2.795,36.883,4.442,35.237,6.475,35.237z"/>
</g>
<g>
	<path fill="#A6CAF0" stroke="#000000" stroke-miterlimit="10" d="M4.583,25.635c2.416-1.773,6.859-0.742,8.023-2.131
		c0.568,3.002,0.967,6.598-2.332,8.662c-3.598,2.252-5.986,0.385-8.445,0.709C1.793,31.321,2.168,27.409,4.583,25.635z"/>
	<path fill="#8080C0" d="M2.893,29.059c0.85,4.039,7.061,2.605,8.885,1.273c0,0-1.113,1.855-3.838,2.504
		c-2.721,0.646-5.898-0.254-5.898-0.254S2.137,30.985,2.893,29.059z"/>
	
		<ellipse transform="matrix(0.1749 0.9846 -0.9846 0.1749 32.5085 13.7025)" fill="#FFFFFF" cx="8.079" cy="26.248" rx="1.038" ry="2.474"/>
	<path fill="#FFFF00" stroke="#000000" stroke-miterlimit="10" d="M1.426,32.387c1.088-0.117,6.404,1.035,8.846-0.221
		c2.289-1.174,1.859-7.025,1.813-8.275c-0.045-1.25,1.191-1.93,1.418-0.346c0.258,1.793,1.168,9.041-2.41,10.465
		c-4.182,1.662-8.738-0.148-9.73-0.295C0.374,33.569,0.338,32.502,1.426,32.387z"/>
	<polygon fill="#FFFFFF" points="12.655,25.026 13.17,25.135 13.26,27.911 12.563,27.911 	"/>
	<path fill="#C08000" d="M1.825,32.698c0.959,0.117,4.16,0.516,4.16,0.516c-0.633,0.717-0.104,0.945-0.104,0.945
		s-1.18-0.146-2.42-0.365c-0.574-0.1-1.229-0.291-1.668-0.35C0.344,33.258,0.868,32.581,1.825,32.698z"/>
</g>
<path fill="#CC0000" stroke="#000000" stroke-miterlimit="10" d="M10.756,39.928c3.922,0.928,3.962-0.963,4.537-3.381
	c0.572-2.42,1.457-4.451-2.464-5.379c-3.92-0.928-7.563,0.281-8.135,2.699C4.122,36.288,6.836,39,10.756,39.928z"/>
<path fill="#990000" d="M5.637,34.891c0,0.457,1.809,2.918,3.434,3.543c1.436,0.553,3.357,1.082,4.209,0.541
	s0.852-2.207,0.852-2.207s-0.564,0.742-2.102,0.697C8.079,37.35,5.637,34.61,5.637,34.891z"/>
<ellipse transform="matrix(-0.9923 -0.1235 0.1235 -0.9923 17.995 66.9876)" fill="#FF6666" cx="11.074" cy="32.936" rx="2.941" ry="1.031"/>
<circle fill="#FFFF00" stroke="#000000" stroke-width="0.5" stroke-miterlimit="10" cx="33.516" cy="35.653" r="2.24"/>
<g>
	<circle fill="#8080C0" stroke="#000000" stroke-miterlimit="10" cx="24.646" cy="37.895" r="4.42"/>
	<path fill="#8060C0" d="M24.67,40.311c1.266,0,2.293-0.816,2.293-0.467c0,1-1.027,1.813-2.293,1.813s-2.293-0.811-2.293-1.813
		C22.377,39.309,23.404,40.311,24.67,40.311z"/>
	<path fill="#A6CAF0" d="M24.66,34.237c2.033,0,3.682,1.648,3.682,3.682c-0.107,0.561-1.855-1.283-3.887-1.283
		c-2.033,0-3.164,1.926-3.475,1.283C20.98,35.883,22.627,34.237,24.66,34.237z"/>
</g>
<g>
	<path fill="#A6CAF0" stroke="#000000" stroke-miterlimit="10" d="M22.768,25.635c2.416-1.773,6.859-0.742,8.023-2.131
		c0.568,3.002,0.967,6.598-2.332,8.662c-3.598,2.252-5.986,0.385-8.445,0.709C19.979,31.321,20.354,27.409,22.768,25.635z"/>
	<path fill="#8080C0" d="M21.078,29.059c0.85,4.039,7.061,2.605,8.885,1.273c0,0-1.113,1.855-3.838,2.504
		c-2.721,0.646-5.898-0.254-5.898-0.254S20.322,30.985,21.078,29.059z"/>
	
		<ellipse transform="matrix(0.1749 0.9846 -0.9846 0.1749 47.5128 -4.2022)" fill="#FFFFFF" cx="26.264" cy="26.248" rx="1.038" ry="2.474"/>
	<path fill="#FFFF00" stroke="#000000" stroke-miterlimit="10" d="M19.611,32.387c1.088-0.117,6.404,1.035,8.846-0.221
		c2.289-1.174,1.859-7.025,1.813-8.275c-0.045-1.25,1.191-1.93,1.418-0.346c0.258,1.793,1.168,9.041-2.41,10.465
		c-4.182,1.662-8.738-0.148-9.73-0.295C18.559,33.569,18.523,32.502,19.611,32.387z"/>
	<polygon fill="#FFFFFF" points="30.84,25.026 31.355,25.135 31.445,27.911 30.748,27.911 	"/>
	<path fill="#C08000" d="M20.01,32.698c0.959,0.117,4.16,0.516,4.16,0.516c-0.633,0.717-0.104,0.945-0.104,0.945
		s-1.18-0.146-2.42-0.365c-0.574-0.1-1.229-0.291-1.668-0.35C18.529,33.258,19.053,32.581,20.01,32.698z"/>
</g>
<path fill="#CC0000" stroke="#000000" stroke-miterlimit="10" d="M28.941,38.928c3.922,0.928,3.963-0.963,4.537-3.381
	c0.572-2.42,1.457-4.451-2.465-5.379c-3.92-0.928-7.563,0.281-8.135,2.699C22.307,35.288,25.021,38,28.941,38.928z"/>
<path fill="#990000" d="M23.822,33.891c0,0.457,1.809,2.918,3.434,3.543c1.436,0.553,3.357,1.082,4.209,0.541
	s0.852-2.207,0.852-2.207s-0.564,0.742-2.102,0.697C26.264,36.35,23.822,33.61,23.822,33.891z"/>
<ellipse transform="matrix(-0.9923 -0.1235 0.1235 -0.9923 54.3494 67.2411)" fill="#FF6666" cx="29.259" cy="31.936" rx="2.941" ry="1.031"/>
<circle fill="#FFFF00" stroke="#000000" stroke-width="0.5" stroke-miterlimit="10" cx="51.701" cy="34.653" r="2.24"/>
<g>
	<circle fill="#8080C0" stroke="#000000" stroke-miterlimit="10" cx="42.832" cy="36.895" r="4.42"/>
	<path fill="#8060C0" d="M42.855,39.311c1.266,0,2.293-0.816,2.293-0.467c0,1-1.027,1.813-2.293,1.813s-2.293-0.811-2.293-1.813
		C40.563,38.309,41.59,39.311,42.855,39.311z"/>
	<path fill="#A6CAF0" d="M42.846,33.237c2.033,0,3.682,1.648,3.682,3.682c-0.107,0.561-1.855-1.283-3.887-1.283
		c-2.033,0-3.164,1.926-3.475,1.283C39.166,34.883,40.813,33.237,42.846,33.237z"/>
</g>
<g>
	<path fill="#A6CAF0" stroke="#000000" stroke-miterlimit="10" d="M40.953,25.635c2.416-1.773,6.859-0.742,8.023-2.131
		c0.568,3.002,0.967,6.598-2.332,8.662c-3.598,2.252-5.986,0.385-8.445,0.709C38.164,31.321,38.539,27.409,40.953,25.635z"/>
	<path fill="#8080C0" d="M39.264,29.059c0.85,4.039,7.061,2.605,8.885,1.273c0,0-1.113,1.855-3.838,2.504
		c-2.721,0.646-5.898-0.254-5.898-0.254S38.508,30.985,39.264,29.059z"/>
	
		<ellipse transform="matrix(0.1749 0.9846 -0.9846 0.1749 62.5175 -22.1074)" fill="#FFFFFF" cx="44.449" cy="26.248" rx="1.038" ry="2.474"/>
	<path fill="#FFFF00" stroke="#000000" stroke-miterlimit="10" d="M37.797,32.387c1.088-0.117,6.404,1.035,8.846-0.221
		c2.289-1.174,1.859-7.025,1.813-8.275c-0.045-1.25,1.191-1.93,1.418-0.346c0.258,1.793,1.168,9.041-2.41,10.465
		c-4.182,1.662-8.738-0.148-9.73-0.295C36.744,33.569,36.709,32.502,37.797,32.387z"/>
	<polygon fill="#FFFFFF" points="49.025,25.026 49.541,25.135 49.631,27.911 48.934,27.911 	"/>
	<path fill="#C08000" d="M38.195,32.698c0.959,0.117,4.16,0.516,4.16,0.516c-0.633,0.717-0.104,0.945-0.104,0.945
		s-1.18-0.146-2.42-0.365c-0.574-0.1-1.229-0.291-1.668-0.35C36.715,33.258,37.238,32.581,38.195,32.698z"/>
</g>
<path fill="#CC0000" stroke="#000000" stroke-miterlimit="10" d="M47.127,37.928c3.922,0.928,3.963-0.963,4.537-3.381
	c0.572-2.42,1.457-4.451-2.465-5.379c-3.92-0.928-7.563,0.281-8.135,2.699C40.492,34.288,43.207,37,47.127,37.928z"/>
<path fill="#990000" d="M42.008,32.891c0,0.457,1.809,2.918,3.434,3.543c1.436,0.553,3.357,1.082,4.209,0.541
	s0.852-2.207,0.852-2.207s-0.564,0.742-2.102,0.697C44.449,35.35,42.008,32.61,42.008,32.891z"/>
<ellipse transform="matrix(-0.9923 -0.1235 0.1235 -0.9923 90.7047 67.4948)" fill="#FF6666" cx="47.444" cy="30.936" rx="2.941" ry="1.031"/>
<circle fill="#FFFF00" stroke="#000000" stroke-width="0.5" stroke-miterlimit="10" cx="69.886" cy="34.261" r="2.241"/>
<g>
	<circle fill="#8080C0" stroke="#000000" stroke-miterlimit="10" cx="60.93" cy="36.895" r="4.42"/>
	<path fill="#8060C0" d="M60.953,39.311c1.266,0,2.293-0.816,2.293-0.467c0,1-1.027,1.813-2.293,1.813s-2.293-0.811-2.293-1.813
		C58.66,38.309,59.688,39.311,60.953,39.311z"/>
	<path fill="#A6CAF0" d="M60.943,33.237c2.033,0,3.682,1.648,3.682,3.682c-0.107,0.561-1.855-1.283-3.887-1.283
		c-2.033,0-3.164,1.926-3.475,1.283C57.264,34.883,58.91,33.237,60.943,33.237z"/>
</g>
<g>
	<path fill="#A6CAF0" stroke="#000000" stroke-miterlimit="10" d="M59.051,25.635c2.416-1.773,6.859-0.742,8.023-2.131
		c0.568,3.002,0.967,6.598-2.332,8.662c-3.598,2.252-5.986,0.385-8.445,0.709C56.262,31.321,56.637,27.409,59.051,25.635z"/>
	<path fill="#8080C0" d="M57.361,29.059c0.85,4.039,7.061,2.605,8.885,1.273c0,0-1.113,1.855-3.838,2.504
		c-2.721,0.646-5.898-0.254-5.898-0.254S56.605,30.985,57.361,29.059z"/>
	
		<ellipse transform="matrix(0.1749 0.9846 -0.9846 0.1749 77.4496 -39.9261)" fill="#FFFFFF" cx="62.547" cy="26.248" rx="1.038" ry="2.474"/>
	<path fill="#FFFF00" stroke="#000000" stroke-miterlimit="10" d="M55.895,32.387c1.088-0.117,6.404,1.035,8.846-0.221
		c2.289-1.174,1.859-7.025,1.813-8.275c-0.045-1.25,1.191-1.93,1.418-0.346c0.258,1.793,1.168,9.041-2.41,10.465
		c-4.182,1.662-8.738-0.148-9.73-0.295C54.842,33.569,54.807,32.502,55.895,32.387z"/>
	<polygon fill="#FFFFFF" points="67.123,25.026 67.639,25.135 67.729,27.911 67.031,27.911 	"/>
	<path fill="#C08000" d="M56.293,32.698c0.959,0.117,4.16,0.516,4.16,0.516c-0.633,0.717-0.104,0.945-0.104,0.945
		s-1.18-0.146-2.42-0.365c-0.574-0.1-1.229-0.291-1.668-0.35C54.813,33.258,55.336,32.581,56.293,32.698z"/>
</g>
<path fill="#CC0000" stroke="#000000" stroke-miterlimit="10" d="M65.631,37.942c3.99,0.564,3.857-1.322,4.209-3.783
	c0.348-2.461,1.043-4.566-2.947-5.131c-3.988-0.564-7.504,0.973-7.854,3.434C58.691,34.922,61.643,37.375,65.631,37.942z"/>
<path fill="#990000" d="M60.072,33.393c0.041,0.455,2.068,2.74,3.742,3.215c1.48,0.418,3.443,0.77,4.242,0.152
	c0.799-0.615,0.646-2.275,0.646-2.275s-0.494,0.791-2.029,0.887C62.729,35.62,60.047,33.114,60.072,33.393z"/>
<ellipse transform="matrix(-0.9995 -0.0322 0.0322 -0.9995 129.5826 63.9849)" fill="#FF6666" cx="65.307" cy="30.949" rx="2.941" ry="1.033"/>
<circle fill="#FFFF00" stroke="#000000" stroke-width="0.5" stroke-miterlimit="10" cx="88.071" cy="35.281" r="2.24"/>
<g>
	<circle fill="#8080C0" stroke="#000000" stroke-miterlimit="10" cx="79.119" cy="37.895" r="4.42"/>
	<path fill="#8060C0" d="M79.143,40.311c1.266,0,2.293-0.816,2.293-0.467c0,1-1.027,1.813-2.293,1.813s-2.293-0.811-2.293-1.813
		C76.85,39.309,77.877,40.311,79.143,40.311z"/>
	<path fill="#A6CAF0" d="M79.133,34.237c2.033,0,3.682,1.648,3.682,3.682c-0.107,0.561-1.855-1.283-3.887-1.283
		c-2.033,0-3.164,1.926-3.475,1.283C75.453,35.883,77.1,34.237,79.133,34.237z"/>
</g>
<g>
	<path fill="#A6CAF0" stroke="#000000" stroke-miterlimit="10" d="M77.24,25.635c2.416-1.773,6.859-0.742,8.023-2.131
		c0.568,3.002,0.967,6.598-2.332,8.662c-3.598,2.252-5.986,0.385-8.445,0.709C74.451,31.321,74.826,27.409,77.24,25.635z"/>
	<path fill="#8080C0" d="M75.551,29.059c0.85,4.039,7.061,2.605,8.885,1.273c0,0-1.113,1.855-3.838,2.504
		c-2.721,0.646-5.898-0.254-5.898-0.254S74.795,30.985,75.551,29.059z"/>
	
		<ellipse transform="matrix(0.1749 0.9846 -0.9846 0.1749 92.4575 -57.8352)" fill="#FFFFFF" cx="80.736" cy="26.248" rx="1.038" ry="2.474"/>
	<path fill="#FFFF00" stroke="#000000" stroke-miterlimit="10" d="M74.084,32.387c1.088-0.117,6.404,1.035,8.846-0.221
		c2.289-1.174,1.859-7.025,1.813-8.275c-0.045-1.25,1.191-1.93,1.418-0.346c0.258,1.793,1.168,9.041-2.41,10.465
		c-4.182,1.662-8.738-0.148-9.73-0.295C73.031,33.569,72.996,32.502,74.084,32.387z"/>
	<polygon fill="#FFFFFF" points="85.313,25.026 85.828,25.135 85.918,27.911 85.221,27.911 	"/>
	<path fill="#C08000" d="M74.482,32.698c0.959,0.117,4.16,0.516,4.16,0.516c-0.633,0.717-0.104,0.945-0.104,0.945
		s-1.18-0.146-2.42-0.365c-0.574-0.1-1.229-0.291-1.668-0.35C73.002,33.258,73.525,32.581,74.482,32.698z"/>
</g>
<path fill="#CC0000" stroke="#000000" stroke-miterlimit="10" d="M83.799,38.942c3.988,0.582,3.865-1.305,4.227-3.764
	c0.359-2.461,1.064-4.561-2.924-5.145c-3.984-0.584-7.508,0.938-7.869,3.396C76.873,35.891,79.814,38.358,83.799,38.942z"/>
<path fill="#990000" d="M78.262,34.368c0.039,0.455,2.057,2.75,3.729,3.232c1.479,0.426,3.439,0.785,4.24,0.172
	s0.656-2.271,0.656-2.271s-0.498,0.787-2.033,0.877C80.908,36.606,78.238,34.088,78.262,34.368z"/>
<path fill="#FF6666" d="M80.568,31.84c-0.021,0.568,1.277,1.078,2.9,1.139c1.625,0.061,2.957-0.352,2.979-0.922
	c0.021-0.572-1.277-1.08-2.9-1.141C81.922,30.856,80.59,31.268,80.568,31.84z"/>
<circle fill="#FFFF00" stroke="#000000" stroke-width="0.5" stroke-miterlimit="10" cx="106.258" cy="36.266" r="2.24"/>
<g>
	<circle fill="#8080C0" stroke="#000000" stroke-miterlimit="10" cx="97.303" cy="38.895" r="4.42"/>
	<path fill="#8060C0" d="M97.326,41.311c1.266,0,2.293-0.816,2.293-0.467c0,1-1.027,1.813-2.293,1.813s-2.293-0.811-2.293-1.813
		C95.033,40.309,96.061,41.311,97.326,41.311z"/>
	<path fill="#A6CAF0" d="M97.316,35.237c2.033,0,3.682,1.648,3.682,3.682c-0.107,0.561-1.855-1.283-3.887-1.283
		c-2.033,0-3.164,1.926-3.475,1.283C93.637,36.883,95.283,35.237,97.316,35.237z"/>
</g>
<g>
	<path fill="#A6CAF0" stroke="#000000" stroke-miterlimit="10" d="M95.424,25.635c2.416-1.773,6.859-0.742,8.023-2.131
		c0.568,3.002,0.967,6.598-2.332,8.662c-3.598,2.252-5.986,0.385-8.445,0.709C92.635,31.321,93.01,27.409,95.424,25.635z"/>
	<path fill="#8080C0" d="M93.734,29.059c0.85,4.039,7.061,2.605,8.885,1.273c0,0-1.113,1.855-3.838,2.504
		c-2.721,0.646-5.898-0.254-5.898-0.254S92.979,30.985,93.734,29.059z"/>
	
		<ellipse transform="matrix(0.1749 0.9846 -0.9846 0.1749 107.4606 -75.7384)" fill="#FFFFFF" cx="98.92" cy="26.248" rx="1.038" ry="2.474"/>
	<path fill="#FFFF00" stroke="#000000" stroke-miterlimit="10" d="M92.268,32.387c1.088-0.117,6.404,1.035,8.846-0.221
		c2.289-1.174,1.859-7.025,1.813-8.275c-0.045-1.25,1.191-1.93,1.418-0.346c0.258,1.793,1.168,9.041-2.41,10.465
		c-4.182,1.662-8.738-0.148-9.73-0.295C91.215,33.569,91.18,32.502,92.268,32.387z"/>
	<polygon fill="#FFFFFF" points="103.496,25.026 104.012,25.135 104.102,27.911 103.404,27.911 	"/>
	<path fill="#C08000" d="M92.666,32.698c0.959,0.117,4.16,0.516,4.16,0.516c-0.633,0.717-0.104,0.945-0.104,0.945
		s-1.18-0.146-2.42-0.365c-0.574-0.1-1.229-0.291-1.668-0.35C91.186,33.258,91.709,32.581,92.666,32.698z"/>
</g>
<path fill="#CC0000" stroke="#000000" stroke-miterlimit="10" d="M101.998,39.942c3.99,0.568,3.859-1.318,4.213-3.777
	c0.352-2.463,1.049-4.564-2.939-5.135s-7.506,0.963-7.857,3.424S98.01,39.372,101.998,39.942z"/>
<path fill="#990000" d="M96.445,35.387c0.041,0.455,2.064,2.742,3.74,3.219c1.479,0.42,3.441,0.773,4.24,0.158
	s0.648-2.275,0.648-2.275s-0.496,0.791-2.029,0.885C99.1,37.616,96.42,35.106,96.445,35.387z"/>
<ellipse transform="matrix(-0.9994 -0.0335 0.0335 -0.9994 202.2035 69.2878)" fill="#FF6666" cx="101.683" cy="32.949" rx="2.942" ry="1.031"/>
<circle fill="#FFFF00" stroke="#000000" stroke-width="0.5" stroke-miterlimit="10" cx="2.646" cy="58.631" r="2.24"/>
<g>
	<circle fill="#8080C0" stroke="#000000" stroke-miterlimit="10" cx="11.514" cy="60.873" r="4.421"/>
	<path fill="#8060C0" d="M13.785,62.823c0,1.002-1.027,1.813-2.293,1.813s-2.293-0.813-2.293-1.813c0-0.35,1.027,0.467,2.293,0.467
		S13.785,62.288,13.785,62.823z"/>
	<path fill="#A6CAF0" d="M15.182,60.897c-0.311,0.643-1.441-1.283-3.475-1.283c-2.031,0-3.779,1.844-3.887,1.283
		c0-2.033,1.648-3.682,3.682-3.682S15.182,58.862,15.182,60.897z"/>
</g>
<g>
	<path fill="#A6CAF0" stroke="#000000" stroke-miterlimit="10" d="M16.148,54.854c-2.459-0.324-4.848,1.543-8.445-0.709
		c-3.299-2.064-2.9-5.66-2.332-8.662c1.164,1.389,5.607,0.357,8.023,2.131C15.809,49.387,16.184,53.299,16.148,54.854z"/>
	<path fill="#8080C0" d="M15.936,54.561c0,0-3.178,0.9-5.898,0.254c-2.725-0.648-3.838-2.504-3.838-2.504
		c1.824,1.332,8.035,2.766,8.885-1.273C15.84,52.963,15.936,54.561,15.936,54.561z"/>
	
		<ellipse transform="matrix(-0.9846 -0.175 0.175 -0.9846 11.2087 97.4403)" fill="#FFFFFF" cx="9.899" cy="48.226" rx="2.473" ry="1.038"/>
	<path fill="#FFFF00" stroke="#000000" stroke-miterlimit="10" d="M16.615,55.694c-0.992,0.146-5.549,1.957-9.73,0.295
		c-3.578-1.424-2.668-8.672-2.41-10.465c0.227-1.584,1.463-0.904,1.418,0.346c-0.047,1.25-0.477,7.102,1.813,8.275
		c2.441,1.256,7.758,0.104,8.846,0.221C17.639,54.481,17.604,55.547,16.615,55.694z"/>
	<polygon fill="#FFFFFF" points="5.414,49.889 4.717,49.889 4.807,47.114 5.322,47.004 	"/>
	<path fill="#C08000" d="M16.184,55.422c-0.439,0.059-1.094,0.25-1.668,0.35c-1.24,0.219-2.42,0.365-2.42,0.365
		s0.529-0.229-0.104-0.945c0,0,3.201-0.398,4.16-0.516C17.109,54.559,17.633,55.237,16.184,55.422z"/>
</g>
<path fill="#CC0000" stroke="#000000" stroke-miterlimit="10" d="M7.221,61.907c-3.922,0.928-3.963-0.963-4.537-3.381
	c-0.572-2.42-1.457-4.451,2.465-5.379c3.92-0.928,7.563,0.281,8.135,2.699C13.855,58.266,11.141,60.979,7.221,61.907z"/>
<path fill="#990000" d="M12.34,56.87c0,0.457-1.809,2.918-3.434,3.543c-1.436,0.553-3.357,1.082-4.209,0.541
	s-0.852-2.207-0.852-2.207s0.564,0.742,2.102,0.697C9.898,59.329,12.34,56.588,12.34,56.87z"/>
<ellipse transform="matrix(0.9923 -0.1235 0.1235 0.9923 -6.7293 1.273)" fill="#FF6666" cx="6.903" cy="54.915" rx="2.941" ry="1.031"/>
<circle fill="#FFFF00" stroke="#000000" stroke-width="0.5" stroke-miterlimit="10" cx="20.832" cy="57.631" r="2.24"/>
<g>
	<circle fill="#8080C0" stroke="#000000" stroke-miterlimit="10" cx="29.699" cy="59.873" r="4.421"/>
	<path fill="#8060C0" d="M31.971,61.823c0,1.002-1.027,1.813-2.293,1.813s-2.293-0.813-2.293-1.813c0-0.35,1.027,0.467,2.293,0.467
		S31.971,61.288,31.971,61.823z"/>
	<path fill="#A6CAF0" d="M33.367,59.897c-0.311,0.643-1.441-1.283-3.475-1.283c-2.031,0-3.779,1.844-3.887,1.283
		c0-2.033,1.648-3.682,3.682-3.682S33.367,57.862,33.367,59.897z"/>
</g>
<g>
	<path fill="#A6CAF0" stroke="#000000" stroke-miterlimit="10" d="M34.334,54.854c-2.459-0.324-4.848,1.543-8.445-0.709
		c-3.299-2.064-2.9-5.66-2.332-8.662c1.164,1.389,5.607,0.357,8.023,2.131C33.994,49.387,34.369,53.299,34.334,54.854z"/>
	<path fill="#8080C0" d="M34.121,54.561c0,0-3.178,0.9-5.898,0.254c-2.725-0.648-3.838-2.504-3.838-2.504
		c1.824,1.332,8.035,2.766,8.885-1.273C34.025,52.963,34.121,54.561,34.121,54.561z"/>
	
		<ellipse transform="matrix(-0.9846 -0.175 0.175 -0.9846 47.2993 100.622)" fill="#FFFFFF" cx="28.085" cy="48.226" rx="2.473" ry="1.038"/>
	<path fill="#FFFF00" stroke="#000000" stroke-miterlimit="10" d="M34.801,55.694c-0.992,0.146-5.549,1.957-9.73,0.295
		c-3.578-1.424-2.668-8.672-2.41-10.465c0.227-1.584,1.463-0.904,1.418,0.346c-0.047,1.25-0.477,7.102,1.813,8.275
		c2.441,1.256,7.758,0.104,8.846,0.221C35.824,54.481,35.789,55.547,34.801,55.694z"/>
	<polygon fill="#FFFFFF" points="23.6,49.889 22.902,49.889 22.992,47.114 23.508,47.004 	"/>
	<path fill="#C08000" d="M34.369,55.422c-0.439,0.059-1.094,0.25-1.668,0.35c-1.24,0.219-2.42,0.365-2.42,0.365
		s0.529-0.229-0.104-0.945c0,0,3.201-0.398,4.16-0.516C35.295,54.559,35.818,55.237,34.369,55.422z"/>
</g>
<path fill="#CC0000" stroke="#000000" stroke-miterlimit="10" d="M25.406,60.907c-3.922,0.928-3.963-0.963-4.537-3.381
	c-0.572-2.42-1.457-4.451,2.465-5.379c3.92-0.928,7.563,0.281,8.135,2.699C32.041,57.266,29.326,59.979,25.406,60.907z"/>
<path fill="#990000" d="M30.525,55.87c0,0.457-1.809,2.918-3.434,3.543c-1.436,0.553-3.357,1.082-4.209,0.541
	s-0.852-2.207-0.852-2.207s0.564,0.742,2.102,0.697C28.084,58.329,30.525,55.588,30.525,55.87z"/>
<ellipse transform="matrix(0.9923 -0.1235 0.1235 0.9923 -6.4666 3.5113)" fill="#FF6666" cx="25.089" cy="53.915" rx="2.941" ry="1.031"/>
<circle fill="#FFFF00" stroke="#000000" stroke-width="0.5" stroke-miterlimit="10" cx="39.018" cy="56.631" r="2.24"/>
<g>
	<circle fill="#8080C0" stroke="#000000" stroke-miterlimit="10" cx="47.885" cy="58.873" r="4.421"/>
	<path fill="#8060C0" d="M50.156,60.823c0,1.002-1.027,1.813-2.293,1.813s-2.293-0.813-2.293-1.813c0-0.35,1.027,0.467,2.293,0.467
		S50.156,60.288,50.156,60.823z"/>
	<path fill="#A6CAF0" d="M51.553,58.897c-0.311,0.643-1.441-1.283-3.475-1.283c-2.031,0-3.779,1.844-3.887,1.283
		c0-2.033,1.648-3.682,3.682-3.682S51.553,56.862,51.553,58.897z"/>
</g>
<g>
	<path fill="#A6CAF0" stroke="#000000" stroke-miterlimit="10" d="M52.52,54.854c-2.459-0.324-4.848,1.543-8.445-0.709
		c-3.299-2.064-2.9-5.66-2.332-8.662c1.164,1.389,5.607,0.357,8.023,2.131C52.18,49.387,52.555,53.299,52.52,54.854z"/>
	<path fill="#8080C0" d="M52.307,54.561c0,0-3.178,0.9-5.898,0.254c-2.725-0.648-3.838-2.504-3.838-2.504
		c1.824,1.332,8.035,2.766,8.885-1.273C52.211,52.963,52.307,54.561,52.307,54.561z"/>
	
		<ellipse transform="matrix(-0.9846 -0.175 0.175 -0.9846 83.3899 103.8036)" fill="#FFFFFF" cx="46.271" cy="48.226" rx="2.473" ry="1.038"/>
	<path fill="#FFFF00" stroke="#000000" stroke-miterlimit="10" d="M52.986,55.694c-0.992,0.146-5.549,1.957-9.73,0.295
		c-3.578-1.424-2.668-8.672-2.41-10.465c0.227-1.584,1.463-0.904,1.418,0.346c-0.047,1.25-0.477,7.102,1.813,8.275
		c2.441,1.256,7.758,0.104,8.846,0.221C54.01,54.481,53.975,55.547,52.986,55.694z"/>
	<polygon fill="#FFFFFF" points="41.785,49.889 41.088,49.889 41.178,47.114 41.693,47.004 	"/>
	<path fill="#C08000" d="M52.555,55.422c-0.439,0.059-1.094,0.25-1.668,0.35c-1.24,0.219-2.42,0.365-2.42,0.365
		s0.529-0.229-0.104-0.945c0,0,3.201-0.398,4.16-0.516C53.48,54.559,54.004,55.237,52.555,55.422z"/>
</g>
<path fill="#CC0000" stroke="#000000" stroke-miterlimit="10" d="M43.592,59.907c-3.922,0.928-3.963-0.963-4.537-3.381
	c-0.572-2.42-1.457-4.451,2.465-5.379c3.92-0.928,7.563,0.281,8.135,2.699C50.227,56.266,47.512,58.979,43.592,59.907z"/>
<path fill="#990000" d="M48.711,54.87c0,0.457-1.809,2.918-3.434,3.543c-1.436,0.553-3.357,1.082-4.209,0.541
	s-0.852-2.207-0.852-2.207s0.564,0.742,2.102,0.697C46.27,57.329,48.711,54.588,48.711,54.87z"/>
<ellipse transform="matrix(0.9923 -0.1235 0.1235 0.9923 -6.2038 5.7496)" fill="#FF6666" cx="43.274" cy="52.915" rx="2.941" ry="1.031"/>
<circle fill="#FFFF00" stroke="#000000" stroke-width="0.5" stroke-miterlimit="10" cx="57.117" cy="56.24" r="2.24"/>
<g>
	<circle fill="#8080C0" stroke="#000000" stroke-miterlimit="10" cx="66.07" cy="58.873" r="4.421"/>
	<path fill="#8060C0" d="M68.342,60.823c0,1.002-1.027,1.813-2.293,1.813s-2.293-0.813-2.293-1.813c0-0.35,1.027,0.467,2.293,0.467
		S68.342,60.288,68.342,60.823z"/>
	<path fill="#A6CAF0" d="M69.738,58.897c-0.311,0.643-1.441-1.283-3.475-1.283c-2.031,0-3.779,1.844-3.887,1.283
		c0-2.033,1.648-3.682,3.682-3.682S69.738,56.862,69.738,58.897z"/>
</g>
<g>
	<path fill="#A6CAF0" stroke="#000000" stroke-miterlimit="10" d="M70.705,54.854c-2.459-0.324-4.848,1.543-8.445-0.709
		c-3.299-2.064-2.9-5.66-2.332-8.662c1.164,1.389,5.607,0.357,8.023,2.131C70.365,49.387,70.74,53.299,70.705,54.854z"/>
	<path fill="#8080C0" d="M70.492,54.561c0,0-3.178,0.9-5.898,0.254c-2.725-0.648-3.838-2.504-3.838-2.504
		c1.824,1.332,8.035,2.766,8.885-1.273C70.396,52.963,70.492,54.561,70.492,54.561z"/>
	
		<ellipse transform="matrix(-0.9846 -0.175 0.175 -0.9846 119.4805 106.9853)" fill="#FFFFFF" cx="64.456" cy="48.226" rx="2.473" ry="1.038"/>
	<path fill="#FFFF00" stroke="#000000" stroke-miterlimit="10" d="M71.172,55.694c-0.992,0.146-5.549,1.957-9.73,0.295
		c-3.578-1.424-2.668-8.672-2.41-10.465c0.227-1.584,1.463-0.904,1.418,0.346c-0.047,1.25-0.477,7.102,1.813,8.275
		c2.441,1.256,7.758,0.104,8.846,0.221C72.195,54.481,72.16,55.547,71.172,55.694z"/>
	<polygon fill="#FFFFFF" points="59.971,49.889 59.273,49.889 59.363,47.114 59.879,47.004 	"/>
	<path fill="#C08000" d="M70.74,55.422c-0.439,0.059-1.094,0.25-1.668,0.35c-1.24,0.219-2.42,0.365-2.42,0.365
		s0.529-0.229-0.104-0.945c0,0,3.201-0.398,4.16-0.516C71.666,54.559,72.189,55.237,70.74,55.422z"/>
</g>
<path fill="#CC0000" stroke="#000000" stroke-miterlimit="10" d="M61.372,59.92c-3.99,0.564-3.858-1.322-4.209-3.783
	c-0.349-2.461-1.044-4.566,2.946-5.131c3.988-0.564,7.505,0.973,7.854,3.434C68.312,56.901,65.36,59.354,61.372,59.92z"/>
<path fill="#990000" d="M66.931,55.372c-0.042,0.455-2.068,2.74-3.743,3.215c-1.48,0.418-3.442,0.77-4.241,0.152
	c-0.799-0.615-0.646-2.275-0.646-2.275s0.494,0.791,2.029,0.887C64.274,57.598,66.956,55.092,66.931,55.372z"/>
<ellipse transform="matrix(0.9995 -0.0322 0.0322 0.9995 -1.6725 2.0143)" fill="#FF6666" cx="61.696" cy="52.927" rx="2.941" ry="1.033"/>
<circle fill="#FFFF00" stroke="#000000" stroke-width="0.5" stroke-miterlimit="10" cx="75.306" cy="57.259" r="2.24"/>
<g>
	<circle fill="#8080C0" stroke="#000000" stroke-miterlimit="10" cx="84.256" cy="59.873" r="4.421"/>
	<path fill="#8060C0" d="M86.527,61.823c0,1.002-1.027,1.813-2.293,1.813s-2.293-0.813-2.293-1.813c0-0.35,1.027,0.467,2.293,0.467
		S86.527,61.288,86.527,61.823z"/>
	<path fill="#A6CAF0" d="M87.924,59.897c-0.311,0.643-1.441-1.283-3.475-1.283c-2.031,0-3.779,1.844-3.887,1.283
		c0-2.033,1.648-3.682,3.682-3.682S87.924,57.862,87.924,59.897z"/>
</g>
<g>
	<path fill="#A6CAF0" stroke="#000000" stroke-miterlimit="10" d="M88.891,54.854c-2.459-0.324-4.848,1.543-8.445-0.709
		c-3.299-2.064-2.9-5.66-2.332-8.662c1.164,1.389,5.607,0.357,8.023,2.131C88.551,49.387,88.926,53.299,88.891,54.854z"/>
	<path fill="#8080C0" d="M88.678,54.561c0,0-3.178,0.9-5.898,0.254c-2.725-0.648-3.838-2.504-3.838-2.504
		c1.824,1.332,8.035,2.766,8.885-1.273C88.582,52.963,88.678,54.561,88.678,54.561z"/>
	
		<ellipse transform="matrix(-0.9846 -0.175 0.175 -0.9846 155.5711 110.167)" fill="#FFFFFF" cx="82.642" cy="48.226" rx="2.473" ry="1.038"/>
	<path fill="#FFFF00" stroke="#000000" stroke-miterlimit="10" d="M89.357,55.694c-0.992,0.146-5.549,1.957-9.73,0.295
		c-3.578-1.424-2.668-8.672-2.41-10.465c0.227-1.584,1.463-0.904,1.418,0.346c-0.047,1.25-0.477,7.102,1.813,8.275
		c2.441,1.256,7.758,0.104,8.846,0.221C90.381,54.481,90.346,55.547,89.357,55.694z"/>
	<polygon fill="#FFFFFF" points="78.156,49.889 77.459,49.889 77.549,47.114 78.064,47.004 	"/>
	<path fill="#C08000" d="M88.926,55.422c-0.439,0.059-1.094,0.25-1.668,0.35c-1.24,0.219-2.42,0.365-2.42,0.365
		s0.529-0.229-0.104-0.945c0,0,3.201-0.398,4.16-0.516C89.852,54.559,90.375,55.237,88.926,55.422z"/>
</g>
<path fill="#CC0000" stroke="#000000" stroke-miterlimit="10" d="M79.578,60.92c-3.988,0.582-3.864-1.305-4.227-3.764
	c-0.359-2.461-1.064-4.561,2.924-5.145c3.985-0.584,7.509,0.938,7.869,3.396C86.504,57.87,83.563,60.336,79.578,60.92z"/>
<path fill="#990000" d="M85.115,56.346c-0.039,0.455-2.056,2.75-3.729,3.232c-1.479,0.426-3.438,0.785-4.24,0.172
	c-0.801-0.613-0.656-2.271-0.656-2.271s0.498,0.787,2.033,0.877C82.47,58.584,85.14,56.067,85.115,56.346z"/>
<path fill="#FF6666" d="M82.809,53.819c0.021,0.568-1.276,1.078-2.9,1.139c-1.625,0.061-2.957-0.352-2.979-0.922
	c-0.021-0.572,1.278-1.08,2.901-1.141C81.456,52.834,82.788,53.247,82.809,53.819z"/>
<circle fill="#FFFF00" stroke="#000000" stroke-width="0.5" stroke-miterlimit="10" cx="93.489" cy="58.245" r="2.24"/>
<g>
	<circle fill="#8080C0" stroke="#000000" stroke-miterlimit="10" cx="102.441" cy="60.873" r="4.421"/>
	<path fill="#8060C0" d="M104.713,62.823c0,1.002-1.027,1.813-2.293,1.813s-2.293-0.813-2.293-1.813c0-0.35,1.027,0.467,2.293,0.467
		S104.713,62.288,104.713,62.823z"/>
	<path fill="#A6CAF0" d="M106.109,60.897c-0.311,0.643-1.441-1.283-3.475-1.283c-2.031,0-3.779,1.844-3.887,1.283
		c0-2.033,1.648-3.682,3.682-3.682S106.109,58.862,106.109,60.897z"/>
</g>
<g>
	<path fill="#A6CAF0" stroke="#000000" stroke-miterlimit="10" d="M107.076,54.854c-2.459-0.324-4.848,1.543-8.445-0.709
		c-3.299-2.064-2.9-5.66-2.332-8.662c1.164,1.389,5.607,0.357,8.023,2.131C106.736,49.387,107.111,53.299,107.076,54.854z"/>
	<path fill="#8080C0" d="M106.863,54.561c0,0-3.178,0.9-5.898,0.254c-2.725-0.648-3.838-2.504-3.838-2.504
		c1.824,1.332,8.035,2.766,8.885-1.273C106.768,52.963,106.863,54.561,106.863,54.561z"/>
	
		<ellipse transform="matrix(-0.9846 -0.175 0.175 -0.9846 191.6617 113.3487)" fill="#FFFFFF" cx="100.827" cy="48.226" rx="2.473" ry="1.038"/>
	<path fill="#FFFF00" stroke="#000000" stroke-miterlimit="10" d="M107.543,55.694c-0.992,0.146-5.549,1.957-9.73,0.295
		c-3.578-1.424-2.668-8.672-2.41-10.465c0.227-1.584,1.463-0.904,1.418,0.346c-0.047,1.25-0.477,7.102,1.813,8.275
		c2.441,1.256,7.758,0.104,8.846,0.221C108.566,54.481,108.531,55.547,107.543,55.694z"/>
	<polygon fill="#FFFFFF" points="96.342,49.889 95.645,49.889 95.734,47.114 96.25,47.004 	"/>
	<path fill="#C08000" d="M107.111,55.422c-0.439,0.059-1.094,0.25-1.668,0.35c-1.24,0.219-2.42,0.365-2.42,0.365
		s0.529-0.229-0.104-0.945c0,0,3.201-0.398,4.16-0.516C108.037,54.559,108.561,55.237,107.111,55.422z"/>
</g>
<path fill="#CC0000" stroke="#000000" stroke-miterlimit="10" d="M97.748,61.92c-3.989,0.568-3.859-1.318-4.213-3.777
	c-0.352-2.463-1.049-4.564,2.94-5.135c3.987-0.57,7.506,0.963,7.857,3.424S101.736,61.35,97.748,61.92z"/>
<path fill="#990000" d="M103.302,57.366c-0.042,0.455-2.065,2.742-3.74,3.219c-1.479,0.42-3.441,0.773-4.24,0.158
	s-0.648-2.275-0.648-2.275s0.495,0.791,2.029,0.885C100.647,59.594,103.327,57.084,103.302,57.366z"/>
<ellipse transform="matrix(0.9994 -0.0335 0.0335 0.9994 -1.7866 3.319)" fill="#FF6666" cx="98.064" cy="54.927" rx="2.942" ry="1.031"/>
</svg>
