<?xml version="1.0" encoding="utf-8"?>
<!-- Generator: Adobe Illustrator 16.0.0, SVG Export Plug-In . SVG Version: 6.00 Build 0)  -->
<!DOCTYPE svg PUBLIC "-//W3C//DTD SVG 1.1//EN" "http://www.w3.org/Graphics/SVG/1.1/DTD/svg11.dtd">
<svg version="1.1" id="Layer_1" xmlns="http://www.w3.org/2000/svg" xmlns:xlink="http://www.w3.org/1999/xlink" x="0px" y="0px"
	 width="240px" height="100px" viewBox="0 0 240 100" enable-background="new 0 0 240 100" xml:space="preserve">
<path fill="none" stroke="#CC9900" stroke-width="2" stroke-linecap="round" stroke-miterlimit="10" d="M20.338,47.605
	c0,0,2.517-0.229,2.517-2.701c0-2.47-2.528-2.543-2.528-2.543s-2.611-0.243-2.611-2.74c0-2.498,2.607-2.523,2.607-2.523
	s2.524-0.247,2.524-2.718s-2.525-2.551-2.525-2.551s-2.77-0.247-2.77-2.745c0-2.497,2.448-2.525,2.448-2.525v-0.04
	c0,0,2.686-0.247,2.686-2.717c0-2.472-2.444-2.553-2.444-2.553s-2.568-0.247-2.568-2.745s2.628-2.525,2.628-2.525
	s2.551-0.247,2.551-2.718s-2.504-2.552-2.504-2.552"/>
<path fill="none" stroke="#CC9900" stroke-width="2" stroke-linecap="round" stroke-miterlimit="10" d="M12.319,46.726
	c0,0-2.517-0.23-2.517-2.701c0-2.47,2.529-2.543,2.529-2.543s2.61-0.244,2.61-2.741s-2.607-2.523-2.607-2.523
	S9.811,35.971,9.811,33.5s2.525-2.551,2.525-2.551s1.94-0.248,1.94-2.744c0-2.498-3.276-2.527-3.276-2.527v-0.039
	c0,0-1.857-0.246-1.857-2.717s2.859-2.553,2.859-2.553s2.775-0.248,2.775-2.745s-2.525-2.526-2.525-2.526s-2.498-0.246-2.498-2.717
	s2.529-2.553,2.529-2.553"/>
<path fill="none" stroke="#CC9900" stroke-width="2" stroke-linecap="round" stroke-miterlimit="10" d="M27.279,46.726
	c0,0-2.516-0.23-2.516-2.701c0-2.47,2.529-2.543,2.529-2.543s2.609-0.244,2.609-2.741s-2.607-2.523-2.607-2.523
	s-2.524-0.246-2.524-2.717s2.525-2.551,2.525-2.551s2.462-0.248,2.462-2.744c0-2.498-2.758-2.527-2.758-2.527v-0.039
	c0,0-2.377-0.246-2.377-2.717s2.6-2.553,2.6-2.553s2.646-0.248,2.646-2.745s-2.591-2.526-2.591-2.526s-2.53-0.246-2.53-2.717
	s2.513-2.553,2.513-2.553"/>
<path fill="#FFFF00" stroke="#CC9900" stroke-linecap="round" stroke-miterlimit="10" d="M27.41,32.465
	c-0.905,0-1.716,0.331-2.291,0.855c-1.034-1.356-3.083-2.281-5.445-2.281c-2.159,0-4.057,0.774-5.156,1.944
	c-0.533-0.356-1.193-0.578-1.92-0.578c-1.742,0-3.154,1.222-3.154,2.728s1.412,2.726,3.154,2.726c0.631,0,1.216-0.163,1.709-0.438
	c1.057,1.303,3.063,2.184,5.367,2.184c2.476,0,4.604-1.017,5.584-2.48c0.563,0.454,1.318,0.735,2.152,0.735
	c1.742,0,3.154-1.206,3.154-2.696S29.152,32.465,27.41,32.465z"/>
<path fill="#996699" stroke="#663366" stroke-miterlimit="10" d="M36.887,21.665c0,2.525-0.477,4.932-1.341,7.12
	c2.166,1.951,6.154,5.843-15.761,5.843c-21.916,0-17.745-5.175-15.923-5.815c-0.87-2.197-1.351-4.612-1.351-7.147
	c0-10.14,7.695-18.359,17.188-18.359S36.887,11.525,36.887,21.665z"/>
<path fill="#CC99CC" d="M35.112,20.326c0,4.655-7.608,1.117-15.31,1.16c-7.846,0.045-15.786,3.583-15.785-1.16
	c0-9.401,6.96-16.334,15.547-16.334C28.15,3.992,35.112,10.925,35.112,20.326z"/>
<ellipse fill="#FFFFFF" cx="19.895" cy="6.808" rx="4.29" ry="1.759"/>
<g>
	
		<ellipse transform="matrix(0.9619 0.2733 -0.2733 0.9619 7.0295 -3.0004)" fill="#996699" cx="14.284" cy="23.731" rx="6.16" ry="3.044"/>
	<path fill="#FFFFFF" d="M18.727,26.055l-3.801-1.6l-4.422-0.248c0,0-0.62-0.082-0.62-1.158S10.8,21.66,10.8,21.66l4.364,0.752
		l3.594,2.024c0,0,0.367,0.012,0.439,0.681C19.271,25.785,18.727,26.055,18.727,26.055z"/>
	<path fill="none" stroke="#000000" stroke-linecap="round" stroke-miterlimit="10" d="M10.8,21.66c0,0,2.164,0.093,4.364,0.752
		c2.2,0.66,3.594,2.024,3.594,2.024"/>
	<path fill="none" stroke="#000000" stroke-linecap="round" stroke-miterlimit="10" d="M10.504,24.207c0,0,2.16-0.155,4.422,0.248
		c2.261,0.404,3.801,1.6,3.801,1.6"/>
	<ellipse cx="14.541" cy="23.425" rx="1.21" ry="1.012"/>
</g>
<g>
	
		<ellipse transform="matrix(-0.9619 0.2733 -0.2733 -0.9619 56.9556 39.529)" fill="#996699" cx="25.725" cy="23.731" rx="6.16" ry="3.045"/>
	<path fill="#FFFFFF" d="M21.281,26.055l3.802-1.6l4.422-0.248c0,0,0.62-0.082,0.62-1.158s-0.916-1.389-0.916-1.389l-4.364,0.752
		l-3.595,2.024c0,0-0.365,0.012-0.439,0.681C20.737,25.785,21.281,26.055,21.281,26.055z"/>
	<path fill="none" stroke="#000000" stroke-linecap="round" stroke-miterlimit="10" d="M29.209,21.66c0,0-2.165,0.093-4.364,0.752
		c-2.2,0.66-3.595,2.024-3.595,2.024"/>
	<path fill="none" stroke="#000000" stroke-linecap="round" stroke-miterlimit="10" d="M29.505,24.207c0,0-2.161-0.155-4.422,0.248
		c-2.262,0.404-3.802,1.6-3.802,1.6"/>
	<ellipse cx="25.468" cy="23.425" rx="1.21" ry="1.012"/>
</g>
<path fill="none" stroke="#CC9900" stroke-width="2" stroke-linecap="round" stroke-miterlimit="10" d="M62.854,46.904
	c0-2.47-2.528-2.543-2.528-2.543s-2.611-0.243-2.611-2.74c0-2.498,2.607-2.523,2.607-2.523s2.524-0.247,2.524-2.718
	s-2.525-2.551-2.525-2.551s-2.77-0.247-2.77-2.745c0-2.497,2.448-2.525,2.448-2.525v-0.04c0,0,2.686-0.247,2.686-2.717
	c0-2.472-2.444-2.553-2.444-2.553s-2.568-0.247-2.568-2.745s2.628-2.525,2.628-2.525s2.551-0.247,2.551-2.718
	s-2.504-2.552-2.504-2.552"/>
<path fill="none" stroke="#CC9900" stroke-width="2" stroke-linecap="round" stroke-miterlimit="10" d="M49.803,46.024
	c0-2.47,2.529-2.543,2.529-2.543s2.61-0.244,2.61-2.741s-2.607-2.523-2.607-2.523s-2.524-0.246-2.524-2.717s2.525-2.551,2.525-2.551
	s1.94-0.248,1.94-2.744c0-2.498-3.276-2.527-3.276-2.527v-0.039c0,0-1.857-0.246-1.857-2.717s2.859-2.553,2.859-2.553
	s2.775-0.248,2.775-2.745s-2.525-2.526-2.525-2.526s-2.498-0.246-2.498-2.717s2.529-2.553,2.529-2.553"/>
<path fill="none" stroke="#CC9900" stroke-width="2" stroke-linecap="round" stroke-miterlimit="10" d="M64.764,46.024
	c0-2.47,2.529-2.543,2.529-2.543s2.609-0.244,2.609-2.741s-2.607-2.523-2.607-2.523s-2.524-0.246-2.524-2.717
	s2.525-2.551,2.525-2.551s2.462-0.248,2.462-2.744c0-2.498-2.758-2.527-2.758-2.527v-0.039c0,0-2.377-0.246-2.377-2.717
	s2.6-2.553,2.6-2.553s2.646-0.248,2.646-2.745s-2.591-2.526-2.591-2.526s-2.53-0.246-2.53-2.717s2.513-2.553,2.513-2.553"/>
<path fill="#FFFF00" stroke="#CC9900" stroke-linecap="round" stroke-miterlimit="10" d="M67.41,31.465
	c-0.905,0-1.716,0.331-2.291,0.855c-1.034-1.356-3.083-2.281-5.445-2.281c-2.159,0-4.057,0.774-5.156,1.944
	c-0.533-0.356-1.193-0.578-1.92-0.578c-1.742,0-3.154,1.222-3.154,2.728s1.412,2.726,3.154,2.726c0.631,0,1.216-0.163,1.709-0.438
	c1.057,1.303,3.063,2.184,5.367,2.184c2.476,0,4.604-1.017,5.584-2.48c0.563,0.454,1.318,0.735,2.152,0.735
	c1.742,0,3.154-1.206,3.154-2.696S69.152,31.465,67.41,31.465z"/>
<path fill="#996699" stroke="#663366" stroke-miterlimit="10" d="M76.887,22.492c0,2.364-0.477,4.617-1.341,6.666
	c2.166,1.826,6.154,5.47-15.761,5.47c-21.916,0-17.745-4.845-15.923-5.444c-0.87-2.057-1.351-4.317-1.351-6.691
	c0-9.491,7.695-17.187,17.188-17.187S76.887,13.001,76.887,22.492z"/>
<path fill="#CC99CC" d="M75.112,21.238c0,4.359-7.608,1.047-15.31,1.088c-7.846,0.041-15.786,3.354-15.785-1.088
	c0-8.8,6.96-15.291,15.547-15.291C68.15,5.947,75.112,12.438,75.112,21.238z"/>
<ellipse fill="#FFFFFF" cx="59.895" cy="8.584" rx="4.29" ry="1.646"/>
<g>
	
		<ellipse transform="matrix(0.9619 0.2733 -0.2733 0.9619 8.8256 -13.8942)" fill="#996699" cx="54.284" cy="24.731" rx="6.16" ry="3.044"/>
	<path fill="#FFFFFF" d="M58.727,27.055l-3.801-1.6l-4.422-0.248c0,0-0.62-0.082-0.62-1.158S50.8,22.66,50.8,22.66l4.364,0.752
		l3.594,2.024c0,0,0.367,0.012,0.439,0.681C59.271,26.785,58.727,27.055,58.727,27.055z"/>
	<path fill="none" stroke="#000000" stroke-linecap="round" stroke-miterlimit="10" d="M50.8,22.66c0,0,2.164,0.093,4.364,0.752
		c2.2,0.66,3.594,2.024,3.594,2.024"/>
	<path fill="none" stroke="#000000" stroke-linecap="round" stroke-miterlimit="10" d="M50.504,25.207c0,0,2.16-0.155,4.422,0.248
		c2.261,0.404,3.801,1.6,3.801,1.6"/>
	<ellipse cx="54.541" cy="24.425" rx="1.21" ry="1.012"/>
</g>
<g>
	
		<ellipse transform="matrix(-0.9619 0.2733 -0.2733 -0.9619 135.7061 30.559)" fill="#996699" cx="65.725" cy="24.731" rx="6.16" ry="3.045"/>
	<path fill="#FFFFFF" d="M61.281,27.055l3.802-1.6l4.422-0.248c0,0,0.62-0.082,0.62-1.158s-0.916-1.389-0.916-1.389l-4.364,0.752
		l-3.595,2.024c0,0-0.365,0.012-0.439,0.681C60.737,26.785,61.281,27.055,61.281,27.055z"/>
	<path fill="none" stroke="#000000" stroke-linecap="round" stroke-miterlimit="10" d="M69.209,22.66c0,0-2.165,0.093-4.364,0.752
		c-2.2,0.66-3.595,2.024-3.595,2.024"/>
	<path fill="none" stroke="#000000" stroke-linecap="round" stroke-miterlimit="10" d="M69.505,25.207c0,0-2.161-0.155-4.422,0.248
		c-2.262,0.404-3.802,1.6-3.802,1.6"/>
	<ellipse cx="65.468" cy="24.425" rx="1.21" ry="1.012"/>
</g>
<path fill="none" stroke="#CC9900" stroke-width="2" stroke-linecap="round" stroke-miterlimit="10" d="M100.326,46.361
	c0,0-2.611-0.243-2.611-2.74c0-2.498,2.607-2.523,2.607-2.523s2.524-0.247,2.524-2.718s-2.525-2.551-2.525-2.551
	s-2.77-0.247-2.77-2.745c0-2.497,2.448-2.525,2.448-2.525v-0.04c0,0,2.686-0.247,2.686-2.717c0-2.472-2.444-2.553-2.444-2.553
	s-2.568-0.247-2.568-2.745s2.628-2.525,2.628-2.525s2.551-0.247,2.551-2.718s-2.504-2.552-2.504-2.552"/>
<path fill="none" stroke="#CC9900" stroke-width="2" stroke-linecap="round" stroke-miterlimit="10" d="M92.332,45.481
	c0,0,2.61-0.244,2.61-2.741s-2.607-2.523-2.607-2.523s-2.524-0.246-2.524-2.717s2.525-2.551,2.525-2.551s1.94-0.248,1.94-2.744
	c0-2.498-3.276-2.527-3.276-2.527v-0.039c0,0-1.857-0.246-1.857-2.717s2.859-2.553,2.859-2.553s2.775-0.248,2.775-2.745
	s-2.525-2.526-2.525-2.526s-2.498-0.246-2.498-2.717s2.529-2.553,2.529-2.553"/>
<path fill="none" stroke="#CC9900" stroke-width="2" stroke-linecap="round" stroke-miterlimit="10" d="M107.293,45.481
	c0,0,2.609-0.244,2.609-2.741s-2.607-2.523-2.607-2.523s-2.524-0.246-2.524-2.717s2.525-2.551,2.525-2.551s2.462-0.248,2.462-2.744
	c0-2.498-2.758-2.527-2.758-2.527v-0.039c0,0-2.377-0.246-2.377-2.717s2.6-2.553,2.6-2.553s2.646-0.248,2.646-2.745
	s-2.591-2.526-2.591-2.526s-2.53-0.246-2.53-2.717s2.513-2.553,2.513-2.553"/>
<path fill="#FFFF00" stroke="#CC9900" stroke-linecap="round" stroke-miterlimit="10" d="M107.41,30.465
	c-0.905,0-1.716,0.331-2.291,0.855c-1.034-1.356-3.083-2.281-5.445-2.281c-2.159,0-4.057,0.774-5.156,1.944
	c-0.533-0.356-1.193-0.578-1.92-0.578c-1.742,0-3.154,1.222-3.154,2.728s1.412,2.726,3.154,2.726c0.631,0,1.216-0.163,1.709-0.438
	c1.057,1.303,3.063,2.184,5.367,2.184c2.476,0,4.604-1.017,5.584-2.48c0.563,0.454,1.318,0.735,2.152,0.735
	c1.742,0,3.154-1.206,3.154-2.696S109.152,30.465,107.41,30.465z"/>
<path fill="#996699" stroke="#663366" stroke-miterlimit="10" d="M116.887,23.174c0,2.23-0.477,4.357-1.341,6.291
	c2.166,1.724,6.154,5.163-15.761,5.163c-21.916,0-17.745-4.573-15.923-5.139c-0.87-1.941-1.351-4.075-1.351-6.315
	c0-8.959,7.695-16.223,17.188-16.223S116.887,14.215,116.887,23.174z"/>
<path fill="#CC99CC" d="M115.112,21.99c0,4.114-7.608,0.988-15.31,1.025c-7.846,0.04-15.786,3.166-15.785-1.025
	c0-8.307,6.96-14.433,15.547-14.433C108.15,7.558,115.112,13.684,115.112,21.99z"/>
<ellipse fill="#FFFFFF" cx="99.895" cy="10.046" rx="4.29" ry="1.554"/>
<g>
	
		<ellipse transform="matrix(0.9619 0.2733 -0.2733 0.9619 10.6218 -24.788)" fill="#996699" cx="94.284" cy="25.731" rx="6.16" ry="3.044"/>
	<path fill="#FFFFFF" d="M98.727,28.055l-3.801-1.6l-4.422-0.248c0,0-0.62-0.082-0.62-1.158S90.8,23.66,90.8,23.66l4.364,0.752
		l3.594,2.024c0,0,0.367,0.012,0.439,0.681C99.271,27.785,98.727,28.055,98.727,28.055z"/>
	<path fill="none" stroke="#000000" stroke-linecap="round" stroke-miterlimit="10" d="M90.8,23.66c0,0,2.164,0.093,4.364,0.752
		c2.2,0.66,3.594,2.024,3.594,2.024"/>
	<path fill="none" stroke="#000000" stroke-linecap="round" stroke-miterlimit="10" d="M90.504,26.207c0,0,2.16-0.155,4.422,0.248
		c2.261,0.404,3.801,1.6,3.801,1.6"/>
	<ellipse cx="94.541" cy="25.425" rx="1.21" ry="1.012"/>
</g>
<g>
	
		<ellipse transform="matrix(-0.9619 0.2733 -0.2733 -0.9619 214.4566 21.5891)" fill="#996699" cx="105.725" cy="25.731" rx="6.16" ry="3.045"/>
	<path fill="#FFFFFF" d="M101.281,28.055l3.802-1.6l4.422-0.248c0,0,0.62-0.082,0.62-1.158s-0.916-1.389-0.916-1.389l-4.364,0.752
		l-3.595,2.024c0,0-0.365,0.012-0.439,0.681C100.737,27.785,101.281,28.055,101.281,28.055z"/>
	<path fill="none" stroke="#000000" stroke-linecap="round" stroke-miterlimit="10" d="M109.209,23.66c0,0-2.165,0.093-4.364,0.752
		c-2.2,0.66-3.595,2.024-3.595,2.024"/>
	<path fill="none" stroke="#000000" stroke-linecap="round" stroke-miterlimit="10" d="M109.505,26.207c0,0-2.161-0.155-4.422,0.248
		c-2.262,0.404-3.802,1.6-3.802,1.6"/>
	<ellipse cx="105.468" cy="25.425" rx="1.21" ry="1.012"/>
</g>
<path fill="none" stroke="#CC9900" stroke-width="2" stroke-linecap="round" stroke-miterlimit="10" d="M140.326,47.361
	c0,0-2.611-0.243-2.611-2.74c0-2.498,2.607-2.523,2.607-2.523s2.524-0.247,2.524-2.718s-2.525-2.551-2.525-2.551
	s-2.77-0.247-2.77-2.745c0-2.497,2.448-2.525,2.448-2.525v-0.04c0,0,2.686-0.247,2.686-2.717c0-2.472-2.444-2.553-2.444-2.553
	s-2.568-0.247-2.568-2.745s2.628-2.525,2.628-2.525s2.551-0.247,2.551-2.718s-2.504-2.552-2.504-2.552"/>
<path fill="none" stroke="#CC9900" stroke-width="2" stroke-linecap="round" stroke-miterlimit="10" d="M134.942,44.74
	c0-2.497-2.607-2.523-2.607-2.523s-2.524-0.246-2.524-2.717s2.525-2.551,2.525-2.551s1.94-0.248,1.94-2.744
	c0-2.498-3.276-2.527-3.276-2.527v-0.039c0,0-1.857-0.246-1.857-2.717s2.859-2.553,2.859-2.553s2.775-0.248,2.775-2.745
	s-2.525-2.526-2.525-2.526s-2.498-0.246-2.498-2.717s2.529-2.553,2.529-2.553"/>
<path fill="none" stroke="#CC9900" stroke-width="2" stroke-linecap="round" stroke-miterlimit="10" d="M149.902,44.74
	c0-2.497-2.607-2.523-2.607-2.523s-2.524-0.246-2.524-2.717s2.525-2.551,2.525-2.551s2.462-0.248,2.462-2.744
	c0-2.498-2.758-2.527-2.758-2.527v-0.039c0,0-2.377-0.246-2.377-2.717s2.6-2.553,2.6-2.553s2.646-0.248,2.646-2.745
	s-2.591-2.526-2.591-2.526s-2.53-0.246-2.53-2.717s2.513-2.553,2.513-2.553"/>
<path fill="#FFFF00" stroke="#CC9900" stroke-linecap="round" stroke-miterlimit="10" d="M147.41,30.465
	c-0.905,0-1.716,0.331-2.291,0.855c-1.034-1.356-3.083-2.281-5.445-2.281c-2.159,0-4.057,0.774-5.156,1.944
	c-0.533-0.356-1.193-0.578-1.92-0.578c-1.742,0-3.154,1.222-3.154,2.728s1.412,2.726,3.154,2.726c0.631,0,1.216-0.163,1.709-0.438
	c1.057,1.303,3.063,2.184,5.367,2.184c2.476,0,4.604-1.017,5.584-2.48c0.563,0.454,1.318,0.735,2.152,0.735
	c1.742,0,3.154-1.206,3.154-2.696S149.152,30.465,147.41,30.465z"/>
<path fill="#996699" stroke="#663366" stroke-miterlimit="10" d="M156.887,23.539c0,2.16-0.477,4.219-1.341,6.091
	c2.166,1.669,6.154,4.998-15.761,4.998c-21.916,0-17.745-4.427-15.923-4.976c-0.87-1.879-1.351-3.945-1.351-6.113
	c0-8.674,7.695-15.705,17.188-15.705S156.887,14.865,156.887,23.539z"/>
<path fill="#CC99CC" d="M155.112,22.393c0,3.983-7.608,0.957-15.31,0.994c-7.846,0.038-15.786,3.064-15.785-0.994
	c0-8.041,6.96-13.973,15.547-13.973C148.15,8.42,155.112,14.352,155.112,22.393z"/>
<ellipse fill="#FFFFFF" cx="139.895" cy="10.829" rx="4.29" ry="1.505"/>
<g>
	
		<ellipse transform="matrix(0.9619 0.2733 -0.2733 0.9619 12.1446 -35.7199)" fill="#996699" cx="134.284" cy="25.731" rx="6.16" ry="3.044"/>
	<path fill="#FFFFFF" d="M138.727,28.055l-3.801-1.6l-4.422-0.248c0,0-0.62-0.082-0.62-1.158s0.916-1.389,0.916-1.389l4.364,0.752
		l3.594,2.024c0,0,0.367,0.012,0.439,0.681C139.271,27.785,138.727,28.055,138.727,28.055z"/>
	<path fill="none" stroke="#000000" stroke-linecap="round" stroke-miterlimit="10" d="M130.8,23.66c0,0,2.164,0.093,4.364,0.752
		c2.2,0.66,3.594,2.024,3.594,2.024"/>
	<path fill="none" stroke="#000000" stroke-linecap="round" stroke-miterlimit="10" d="M130.504,26.207c0,0,2.16-0.155,4.422,0.248
		c2.261,0.404,3.801,1.6,3.801,1.6"/>
	<ellipse cx="134.541" cy="25.425" rx="1.21" ry="1.012"/>
</g>
<g>
	
		<ellipse transform="matrix(-0.9619 0.2733 -0.2733 -0.9619 292.9338 10.6572)" fill="#996699" cx="145.725" cy="25.731" rx="6.16" ry="3.045"/>
	<path fill="#FFFFFF" d="M141.281,28.055l3.802-1.6l4.422-0.248c0,0,0.62-0.082,0.62-1.158s-0.916-1.389-0.916-1.389l-4.364,0.752
		l-3.595,2.024c0,0-0.365,0.012-0.439,0.681C140.737,27.785,141.281,28.055,141.281,28.055z"/>
	<path fill="none" stroke="#000000" stroke-linecap="round" stroke-miterlimit="10" d="M149.209,23.66c0,0-2.165,0.093-4.364,0.752
		c-2.2,0.66-3.595,2.024-3.595,2.024"/>
	<path fill="none" stroke="#000000" stroke-linecap="round" stroke-miterlimit="10" d="M149.505,26.207c0,0-2.161-0.155-4.422,0.248
		c-2.262,0.404-3.802,1.6-3.802,1.6"/>
	<ellipse cx="145.468" cy="25.425" rx="1.21" ry="1.012"/>
</g>
<path fill="none" stroke="#CC9900" stroke-width="2" stroke-linecap="round" stroke-miterlimit="10" d="M177.715,46.621
	c0-2.498,2.607-2.523,2.607-2.523s2.524-0.247,2.524-2.718s-2.525-2.551-2.525-2.551s-2.77-0.247-2.77-2.745
	c0-2.497,2.448-2.525,2.448-2.525v-0.04c0,0,2.686-0.247,2.686-2.717c0-2.472-2.444-2.553-2.444-2.553s-2.568-0.247-2.568-2.745
	s2.628-2.525,2.628-2.525s2.551-0.247,2.551-2.718s-2.504-2.552-2.504-2.552"/>
<path fill="none" stroke="#CC9900" stroke-width="2" stroke-linecap="round" stroke-miterlimit="10" d="M172.335,44.217
	c0,0-2.524-0.246-2.524-2.717s2.525-2.551,2.525-2.551s1.94-0.248,1.94-2.744c0-2.498-3.276-2.527-3.276-2.527v-0.039
	c0,0-1.857-0.246-1.857-2.717s2.859-2.553,2.859-2.553s2.775-0.248,2.775-2.745s-2.525-2.526-2.525-2.526s-2.498-0.246-2.498-2.717
	s2.529-2.553,2.529-2.553"/>
<path fill="none" stroke="#CC9900" stroke-width="2" stroke-linecap="round" stroke-miterlimit="10" d="M187.295,44.217
	c0,0-2.524-0.246-2.524-2.717s2.525-2.551,2.525-2.551s2.462-0.248,2.462-2.744c0-2.498-2.758-2.527-2.758-2.527v-0.039
	c0,0-2.377-0.246-2.377-2.717s2.6-2.553,2.6-2.553s2.646-0.248,2.646-2.745s-2.591-2.526-2.591-2.526s-2.53-0.246-2.53-2.717
	s2.513-2.553,2.513-2.553"/>
<path fill="#FFFF00" stroke="#CC9900" stroke-linecap="round" stroke-miterlimit="10" d="M187.41,30.465
	c-0.905,0-1.716,0.331-2.291,0.855c-1.034-1.356-3.083-2.281-5.445-2.281c-2.159,0-4.057,0.774-5.156,1.944
	c-0.533-0.356-1.193-0.578-1.92-0.578c-1.742,0-3.154,1.222-3.154,2.728s1.412,2.726,3.154,2.726c0.631,0,1.216-0.163,1.709-0.438
	c1.057,1.303,3.063,2.184,5.367,2.184c2.476,0,4.604-1.017,5.584-2.48c0.563,0.454,1.318,0.735,2.152,0.735
	c1.742,0,3.154-1.206,3.154-2.696S189.152,30.465,187.41,30.465z"/>
<path fill="#996699" stroke="#663366" stroke-miterlimit="10" d="M196.887,23.174c0,2.23-0.477,4.357-1.341,6.291
	c2.166,1.724,6.154,5.163-15.761,5.163c-21.916,0-17.745-4.573-15.923-5.139c-0.87-1.941-1.351-4.075-1.351-6.315
	c0-8.959,7.695-16.223,17.188-16.223S196.887,14.215,196.887,23.174z"/>
<path fill="#CC99CC" d="M195.112,21.99c0,4.114-7.608,0.988-15.31,1.025c-7.846,0.04-15.786,3.166-15.785-1.025
	c0-8.307,6.96-14.433,15.547-14.433C188.15,7.558,195.112,13.684,195.112,21.99z"/>
<ellipse fill="#FFFFFF" cx="179.895" cy="10.046" rx="4.29" ry="1.554"/>
<g>
	
		<ellipse transform="matrix(0.9619 0.2733 -0.2733 0.9619 13.3941 -46.6898)" fill="#996699" cx="174.284" cy="24.731" rx="6.16" ry="3.044"/>
	<path fill="#FFFFFF" d="M178.727,27.055l-3.801-1.6l-4.422-0.248c0,0-0.62-0.082-0.62-1.158s0.916-1.389,0.916-1.389l4.364,0.752
		l3.594,2.024c0,0,0.367,0.012,0.439,0.681C179.271,26.785,178.727,27.055,178.727,27.055z"/>
	<path fill="none" stroke="#000000" stroke-linecap="round" stroke-miterlimit="10" d="M170.8,22.66c0,0,2.164,0.093,4.364,0.752
		c2.2,0.66,3.594,2.024,3.594,2.024"/>
	<path fill="none" stroke="#000000" stroke-linecap="round" stroke-miterlimit="10" d="M170.504,25.207c0,0,2.16-0.155,4.422,0.248
		c2.261,0.404,3.801,1.6,3.801,1.6"/>
	<ellipse cx="174.541" cy="24.425" rx="1.21" ry="1.012"/>
</g>
<g>
	
		<ellipse transform="matrix(-0.9619 0.2733 -0.2733 -0.9619 371.1376 -2.2366)" fill="#996699" cx="185.725" cy="24.731" rx="6.16" ry="3.045"/>
	<path fill="#FFFFFF" d="M181.281,27.055l3.802-1.6l4.422-0.248c0,0,0.62-0.082,0.62-1.158s-0.916-1.389-0.916-1.389l-4.364,0.752
		l-3.595,2.024c0,0-0.365,0.012-0.439,0.681C180.737,26.785,181.281,27.055,181.281,27.055z"/>
	<path fill="none" stroke="#000000" stroke-linecap="round" stroke-miterlimit="10" d="M189.209,22.66c0,0-2.165,0.093-4.364,0.752
		c-2.2,0.66-3.595,2.024-3.595,2.024"/>
	<path fill="none" stroke="#000000" stroke-linecap="round" stroke-miterlimit="10" d="M189.505,25.207c0,0-2.161-0.155-4.422,0.248
		c-2.262,0.404-3.802,1.6-3.802,1.6"/>
	<ellipse cx="185.468" cy="24.425" rx="1.21" ry="1.012"/>
</g>
<path fill="none" stroke="#CC9900" stroke-width="2" stroke-linecap="round" stroke-miterlimit="10" d="M220.322,47.098
	c0,0,2.524-0.247,2.524-2.718s-2.525-2.551-2.525-2.551s-2.77-0.247-2.77-2.745c0-2.497,2.448-2.525,2.448-2.525v-0.04
	c0,0,2.686-0.247,2.686-2.717c0-2.472-2.444-2.553-2.444-2.553s-2.568-0.247-2.568-2.745s2.628-2.525,2.628-2.525
	s2.551-0.247,2.551-2.718s-2.504-2.552-2.504-2.552"/>
<path fill="none" stroke="#CC9900" stroke-width="2" stroke-linecap="round" stroke-miterlimit="10" d="M212.335,46.217
	c0,0-2.524-0.246-2.524-2.717s2.525-2.551,2.525-2.551s1.94-0.248,1.94-2.744c0-2.498-3.276-2.527-3.276-2.527v-0.039
	c0,0-1.857-0.246-1.857-2.717s2.859-2.553,2.859-2.553s2.775-0.248,2.775-2.745s-2.525-2.526-2.525-2.526s-2.498-0.246-2.498-2.717
	s2.529-2.553,2.529-2.553"/>
<path fill="none" stroke="#CC9900" stroke-width="2" stroke-linecap="round" stroke-miterlimit="10" d="M227.295,46.217
	c0,0-2.524-0.246-2.524-2.717s2.525-2.551,2.525-2.551s2.462-0.248,2.462-2.744c0-2.498-2.758-2.527-2.758-2.527v-0.039
	c0,0-2.377-0.246-2.377-2.717s2.6-2.553,2.6-2.553s2.646-0.248,2.646-2.745s-2.591-2.526-2.591-2.526s-2.53-0.246-2.53-2.717
	s2.513-2.553,2.513-2.553"/>
<path fill="#FFFF00" stroke="#CC9900" stroke-linecap="round" stroke-miterlimit="10" d="M227.41,31.465
	c-0.905,0-1.716,0.331-2.291,0.855c-1.034-1.356-3.083-2.281-5.445-2.281c-2.159,0-4.057,0.774-5.156,1.944
	c-0.533-0.356-1.193-0.578-1.92-0.578c-1.742,0-3.154,1.222-3.154,2.728s1.412,2.726,3.154,2.726c0.631,0,1.216-0.163,1.709-0.438
	c1.057,1.303,3.063,2.184,5.367,2.184c2.476,0,4.604-1.017,5.584-2.48c0.563,0.454,1.318,0.735,2.152,0.735
	c1.742,0,3.154-1.206,3.154-2.696S229.152,31.465,227.41,31.465z"/>
<path fill="#996699" stroke="#663366" stroke-miterlimit="10" d="M236.887,22.492c0,2.364-0.477,4.617-1.341,6.666
	c2.166,1.826,6.154,5.47-15.761,5.47c-21.916,0-17.745-4.845-15.923-5.444c-0.87-2.057-1.351-4.317-1.351-6.691
	c0-9.491,7.695-17.187,17.188-17.187S236.887,13.001,236.887,22.492z"/>
<path fill="#CC99CC" d="M235.112,21.238c0,4.359-7.608,1.047-15.31,1.088c-7.846,0.041-15.786,3.354-15.785-1.088
	c0-8.8,6.96-15.291,15.547-15.291C228.15,5.947,235.112,12.438,235.112,21.238z"/>
<ellipse fill="#FFFFFF" cx="219.895" cy="8.584" rx="4.29" ry="1.646"/>
<g>
	
		<ellipse transform="matrix(0.9619 0.2733 -0.2733 0.9619 14.6436 -57.6598)" fill="#996699" cx="214.284" cy="23.731" rx="6.16" ry="3.044"/>
	<path fill="#FFFFFF" d="M218.727,26.055l-3.801-1.6l-4.422-0.248c0,0-0.62-0.082-0.62-1.158s0.916-1.389,0.916-1.389l4.364,0.752
		l3.594,2.024c0,0,0.367,0.012,0.439,0.681C219.271,25.785,218.727,26.055,218.727,26.055z"/>
	<path fill="none" stroke="#000000" stroke-linecap="round" stroke-miterlimit="10" d="M210.8,21.66c0,0,2.164,0.093,4.364,0.752
		c2.2,0.66,3.594,2.024,3.594,2.024"/>
	<path fill="none" stroke="#000000" stroke-linecap="round" stroke-miterlimit="10" d="M210.504,24.207c0,0,2.16-0.155,4.422,0.248
		c2.261,0.404,3.801,1.6,3.801,1.6"/>
	<ellipse cx="214.541" cy="23.425" rx="1.21" ry="1.012"/>
</g>
<g>
	
		<ellipse transform="matrix(-0.9619 0.2733 -0.2733 -0.9619 449.3416 -15.1304)" fill="#996699" cx="225.725" cy="23.731" rx="6.16" ry="3.045"/>
	<path fill="#FFFFFF" d="M221.281,26.055l3.802-1.6l4.422-0.248c0,0,0.62-0.082,0.62-1.158s-0.916-1.389-0.916-1.389l-4.364,0.752
		l-3.595,2.024c0,0-0.365,0.012-0.439,0.681C220.737,25.785,221.281,26.055,221.281,26.055z"/>
	<path fill="none" stroke="#000000" stroke-linecap="round" stroke-miterlimit="10" d="M229.209,21.66c0,0-2.165,0.093-4.364,0.752
		c-2.2,0.66-3.595,2.024-3.595,2.024"/>
	<path fill="none" stroke="#000000" stroke-linecap="round" stroke-miterlimit="10" d="M229.505,24.207c0,0-2.161-0.155-4.422,0.248
		c-2.262,0.404-3.802,1.6-3.802,1.6"/>
	<ellipse cx="225.468" cy="23.425" rx="1.21" ry="1.012"/>
</g>
<g>
	<g>
		<circle fill="#996699" stroke="#663366" stroke-miterlimit="10" cx="20.133" cy="76.961" r="15.537"/>
		<path fill="#CC99CC" d="M32.67,76c0,3.599-6.382,2.102-13.121,2c-6.371-0.096-13.12,1.402-13.12-2c0-8,5.874-13.12,13.12-13.12
			S32.67,68,32.67,76z"/>
		<circle fill="none" stroke="#FFFFFF" stroke-miterlimit="10" cx="20.167" cy="76.799" r="17.862"/>
		
			<ellipse transform="matrix(0.7393 -0.6734 0.6734 0.7393 -41.69 24.6603)" fill="#FFFFFF" cx="11" cy="66.166" rx="6.25" ry="2.334"/>
		<g>
			
				<ellipse transform="matrix(0.9619 0.2733 -0.2733 0.9619 22.3342 -0.8684)" fill="#996699" cx="14.284" cy="79.731" rx="6.16" ry="3.044"/>
			<path fill="#FFFFFF" d="M18.727,82.055l-3.801-1.6l-4.422-0.248c0,0-0.62-0.082-0.62-1.158S10.8,77.66,10.8,77.66l4.364,0.752
				l3.594,2.024c0,0,0.367,0.012,0.439,0.681C19.271,81.785,18.727,82.055,18.727,82.055z"/>
			<path fill="none" stroke="#000000" stroke-linecap="round" stroke-miterlimit="10" d="M10.8,77.66c0,0,2.164,0.093,4.364,0.752
				c2.2,0.66,3.594,2.024,3.594,2.024"/>
			<path fill="none" stroke="#000000" stroke-linecap="round" stroke-miterlimit="10" d="M10.504,80.207c0,0,2.16-0.155,4.422,0.248
				c2.261,0.404,3.801,1.6,3.801,1.6"/>
			<ellipse cx="14.541" cy="79.425" rx="1.21" ry="1.012"/>
		</g>
		<g>
			
				<ellipse transform="matrix(-0.9619 0.2733 -0.2733 -0.9619 72.2602 149.397)" fill="#996699" cx="25.725" cy="79.731" rx="6.16" ry="3.045"/>
			<path fill="#FFFFFF" d="M21.281,82.055l3.802-1.6l4.422-0.248c0,0,0.62-0.082,0.62-1.158s-0.916-1.389-0.916-1.389l-4.364,0.752
				l-3.595,2.024c0,0-0.365,0.012-0.439,0.681C20.737,81.785,21.281,82.055,21.281,82.055z"/>
			<path fill="none" stroke="#000000" stroke-linecap="round" stroke-miterlimit="10" d="M29.209,77.66c0,0-2.165,0.093-4.364,0.752
				c-2.2,0.66-3.595,2.024-3.595,2.024"/>
			<path fill="none" stroke="#000000" stroke-linecap="round" stroke-miterlimit="10" d="M29.505,80.207
				c0,0-2.161-0.155-4.422,0.248c-2.262,0.404-3.802,1.6-3.802,1.6"/>
			<ellipse cx="25.468" cy="79.425" rx="1.21" ry="1.012"/>
		</g>
	</g>
	<ellipse fill="#FFCCFF" cx="19.895" cy="65.808" rx="4.29" ry="1.759"/>
</g>
<g>
	<g>
		<ellipse fill="#996699" stroke="#663366" stroke-miterlimit="10" cx="60.133" cy="76.972" rx="15.537" ry="16.569"/>
		<path fill="#CC99CC" d="M72.67,75.947c0,3.838-6.382,2.241-13.121,2.133c-6.371-0.103-13.12,1.495-13.12-2.133
			c0-8.532,5.874-13.993,13.12-13.993S72.67,67.415,72.67,75.947z"/>
		<ellipse fill="none" stroke="#FFFFFF" stroke-miterlimit="10" cx="60.167" cy="76.799" rx="17.862" ry="19.05"/>
		<g>
			<path fill="#996699" d="M60.21,81.722c-0.46,1.725-3.485,2.319-6.757,1.328c-3.273-0.991-5.555-3.194-5.095-4.919
				c0.459-1.726,3.485-2.319,6.758-1.328C58.389,77.795,60.67,79.996,60.21,81.722z"/>
			<path fill="#FFFFFF" d="M58.727,82.404l-3.801-1.706l-4.422-0.265c0,0-0.62-0.088-0.62-1.235s0.916-1.48,0.916-1.48l4.364,0.802
				l3.594,2.159c0,0,0.367,0.012,0.439,0.726C59.271,82.116,58.727,82.404,58.727,82.404z"/>
			<path fill="none" stroke="#000000" stroke-linecap="round" stroke-miterlimit="10" d="M50.8,77.718c0,0,2.164,0.099,4.364,0.802
				c2.2,0.704,3.594,2.159,3.594,2.159"/>
			<path fill="none" stroke="#000000" stroke-linecap="round" stroke-miterlimit="10" d="M50.504,80.434c0,0,2.16-0.166,4.422,0.265
				c2.261,0.431,3.801,1.706,3.801,1.706"/>
			<ellipse cx="54.541" cy="79.6" rx="1.21" ry="1.079"/>
		</g>
		<g>
			<path fill="#996699" d="M59.799,81.722c0.459,1.725,3.484,2.319,6.758,1.328c3.272-0.991,5.554-3.194,5.094-4.919
				c-0.46-1.726-3.485-2.319-6.758-1.328C61.62,77.795,59.338,79.996,59.799,81.722z"/>
			<path fill="#FFFFFF" d="M61.281,82.404l3.802-1.706l4.422-0.265c0,0,0.62-0.088,0.62-1.235s-0.916-1.48-0.916-1.48l-4.364,0.802
				l-3.595,2.159c0,0-0.365,0.012-0.439,0.726C60.737,82.116,61.281,82.404,61.281,82.404z"/>
			<path fill="none" stroke="#000000" stroke-linecap="round" stroke-miterlimit="10" d="M69.209,77.718
				c0,0-2.165,0.099-4.364,0.802c-2.2,0.704-3.595,2.159-3.595,2.159"/>
			<path fill="none" stroke="#000000" stroke-linecap="round" stroke-miterlimit="10" d="M69.505,80.434
				c0,0-2.161-0.166-4.422,0.265c-2.262,0.431-3.802,1.706-3.802,1.706"/>
			<ellipse cx="65.468" cy="79.6" rx="1.21" ry="1.079"/>
		</g>
	</g>
	<ellipse fill="#FFCCFF" cx="59.895" cy="65.077" rx="4.29" ry="1.875"/>
</g>
<g>
	<g>
		<ellipse fill="#996699" stroke="#663366" stroke-miterlimit="10" cx="100.133" cy="76.987" rx="15.537" ry="18.092"/>
		<path fill="#CC99CC" d="M112.67,75.868c0,4.19-6.382,2.447-13.121,2.329c-6.371-0.111-13.12,1.633-13.12-2.329
			c0-9.315,5.874-15.277,13.12-15.277S112.67,66.553,112.67,75.868z"/>
		<ellipse fill="none" stroke="#FFFFFF" stroke-miterlimit="10" cx="100.167" cy="76.799" rx="17.862" ry="20.8"/>
		<g>
			<path fill="#996699" d="M100.21,82.174c-0.46,1.884-3.485,2.533-6.757,1.45c-3.273-1.083-5.555-3.487-5.095-5.371
				c0.459-1.884,3.485-2.532,6.758-1.449C98.389,77.886,100.67,80.29,100.21,82.174z"/>
			<path fill="#FFFFFF" d="M98.727,82.919l-3.801-1.862l-4.422-0.289c0,0-0.62-0.096-0.62-1.349s0.916-1.617,0.916-1.617
				l4.364,0.876l3.594,2.357c0,0,0.367,0.013,0.439,0.792C99.271,82.605,98.727,82.919,98.727,82.919z"/>
			<path fill="none" stroke="#000000" stroke-linecap="round" stroke-miterlimit="10" d="M90.8,77.802c0,0,2.164,0.108,4.364,0.876
				c2.2,0.769,3.594,2.357,3.594,2.357"/>
			<path fill="none" stroke="#000000" stroke-linecap="round" stroke-miterlimit="10" d="M90.504,80.768c0,0,2.16-0.181,4.422,0.289
				c2.261,0.471,3.801,1.862,3.801,1.862"/>
			<ellipse cx="94.541" cy="79.856" rx="1.21" ry="1.179"/>
		</g>
		<g>
			<path fill="#996699" d="M99.799,82.174c0.459,1.884,3.484,2.533,6.758,1.45c3.272-1.083,5.554-3.487,5.094-5.371
				s-3.485-2.532-6.758-1.449C101.62,77.886,99.338,80.29,99.799,82.174z"/>
			<path fill="#FFFFFF" d="M101.281,82.919l3.802-1.862l4.422-0.289c0,0,0.62-0.096,0.62-1.349s-0.916-1.617-0.916-1.617
				l-4.364,0.876l-3.595,2.357c0,0-0.365,0.013-0.439,0.792C100.737,82.605,101.281,82.919,101.281,82.919z"/>
			<path fill="none" stroke="#000000" stroke-linecap="round" stroke-miterlimit="10" d="M109.209,77.802
				c0,0-2.165,0.108-4.364,0.876c-2.2,0.769-3.595,2.357-3.595,2.357"/>
			<path fill="none" stroke="#000000" stroke-linecap="round" stroke-miterlimit="10" d="M109.505,80.768
				c0,0-2.161-0.181-4.422,0.289c-2.262,0.471-3.802,1.862-3.802,1.862"/>
			<ellipse cx="105.468" cy="79.856" rx="1.21" ry="1.179"/>
		</g>
	</g>
	<ellipse fill="#FFCCFF" cx="99.895" cy="64" rx="4.29" ry="2.048"/>
</g>
<g>
	<g>
		<ellipse fill="#996699" stroke="#663366" stroke-miterlimit="10" cx="140.133" cy="76.987" rx="15.537" ry="18.092"/>
		<path fill="#CC99CC" d="M152.67,75.868c0,4.19-6.382,2.447-13.121,2.329c-6.371-0.111-13.12,1.633-13.12-2.329
			c0-9.315,5.874-15.277,13.12-15.277S152.67,66.553,152.67,75.868z"/>
		<ellipse fill="none" stroke="#FFFFFF" stroke-miterlimit="10" cx="140.167" cy="76.799" rx="17.862" ry="20.8"/>
		<g>
			<path fill="#996699" d="M140.21,82.174c-0.46,1.884-3.485,2.533-6.757,1.45c-3.273-1.083-5.555-3.487-5.095-5.371
				c0.459-1.884,3.485-2.532,6.758-1.449C138.389,77.886,140.67,80.29,140.21,82.174z"/>
			<path fill="#FFFFFF" d="M138.727,82.919l-3.801-1.862l-4.422-0.289c0,0-0.62-0.096-0.62-1.349s0.916-1.617,0.916-1.617
				l4.364,0.876l3.594,2.357c0,0,0.367,0.013,0.439,0.792C139.271,82.605,138.727,82.919,138.727,82.919z"/>
			<path fill="none" stroke="#000000" stroke-linecap="round" stroke-miterlimit="10" d="M130.8,77.802c0,0,2.164,0.108,4.364,0.876
				c2.2,0.769,3.594,2.357,3.594,2.357"/>
			<path fill="none" stroke="#000000" stroke-linecap="round" stroke-miterlimit="10" d="M130.504,80.768
				c0,0,2.16-0.181,4.422,0.289c2.261,0.471,3.801,1.862,3.801,1.862"/>
			<ellipse cx="134.541" cy="79.856" rx="1.21" ry="1.179"/>
		</g>
		<g>
			<path fill="#996699" d="M139.799,82.174c0.459,1.884,3.484,2.533,6.758,1.45c3.272-1.083,5.554-3.487,5.094-5.371
				s-3.485-2.532-6.758-1.449C141.62,77.886,139.338,80.29,139.799,82.174z"/>
			<path fill="#FFFFFF" d="M141.281,82.919l3.802-1.862l4.422-0.289c0,0,0.62-0.096,0.62-1.349s-0.916-1.617-0.916-1.617
				l-4.364,0.876l-3.595,2.357c0,0-0.365,0.013-0.439,0.792C140.737,82.605,141.281,82.919,141.281,82.919z"/>
			<path fill="none" stroke="#000000" stroke-linecap="round" stroke-miterlimit="10" d="M149.209,77.802
				c0,0-2.165,0.108-4.364,0.876c-2.2,0.769-3.595,2.357-3.595,2.357"/>
			<path fill="none" stroke="#000000" stroke-linecap="round" stroke-miterlimit="10" d="M149.505,80.768
				c0,0-2.161-0.181-4.422,0.289c-2.262,0.471-3.802,1.862-3.802,1.862"/>
			<ellipse cx="145.468" cy="79.856" rx="1.21" ry="1.179"/>
		</g>
	</g>
	<ellipse fill="#FFCCFF" cx="139.895" cy="64" rx="4.29" ry="2.048"/>
</g>
<g>
	<g>
		<ellipse fill="#996699" stroke="#663366" stroke-miterlimit="10" cx="180.133" cy="76.972" rx="15.537" ry="16.569"/>
		<path fill="#CC99CC" d="M192.67,75.947c0,3.838-6.382,2.241-13.121,2.133c-6.371-0.103-13.12,1.495-13.12-2.133
			c0-8.532,5.874-13.993,13.12-13.993S192.67,67.415,192.67,75.947z"/>
		<ellipse fill="none" stroke="#FFFFFF" stroke-miterlimit="10" cx="180.167" cy="76.799" rx="17.862" ry="19.05"/>
		<g>
			<path fill="#996699" d="M180.21,81.722c-0.46,1.725-3.485,2.319-6.757,1.328c-3.273-0.991-5.555-3.194-5.095-4.919
				c0.459-1.726,3.485-2.319,6.758-1.328C178.389,77.795,180.67,79.996,180.21,81.722z"/>
			<path fill="#FFFFFF" d="M178.727,82.404l-3.801-1.706l-4.422-0.265c0,0-0.62-0.088-0.62-1.235s0.916-1.48,0.916-1.48l4.364,0.802
				l3.594,2.159c0,0,0.367,0.012,0.439,0.726C179.271,82.116,178.727,82.404,178.727,82.404z"/>
			<path fill="none" stroke="#000000" stroke-linecap="round" stroke-miterlimit="10" d="M170.8,77.718c0,0,2.164,0.099,4.364,0.802
				c2.2,0.704,3.594,2.159,3.594,2.159"/>
			<path fill="none" stroke="#000000" stroke-linecap="round" stroke-miterlimit="10" d="M170.504,80.434
				c0,0,2.16-0.166,4.422,0.265c2.261,0.431,3.801,1.706,3.801,1.706"/>
			<ellipse cx="174.541" cy="79.6" rx="1.21" ry="1.079"/>
		</g>
		<g>
			<path fill="#996699" d="M179.799,81.722c0.459,1.725,3.484,2.319,6.758,1.328c3.272-0.991,5.554-3.194,5.094-4.919
				c-0.46-1.726-3.485-2.319-6.758-1.328C181.62,77.795,179.338,79.996,179.799,81.722z"/>
			<path fill="#FFFFFF" d="M181.281,82.404l3.802-1.706l4.422-0.265c0,0,0.62-0.088,0.62-1.235s-0.916-1.48-0.916-1.48l-4.364,0.802
				l-3.595,2.159c0,0-0.365,0.012-0.439,0.726C180.737,82.116,181.281,82.404,181.281,82.404z"/>
			<path fill="none" stroke="#000000" stroke-linecap="round" stroke-miterlimit="10" d="M189.209,77.718
				c0,0-2.165,0.099-4.364,0.802c-2.2,0.704-3.595,2.159-3.595,2.159"/>
			<path fill="none" stroke="#000000" stroke-linecap="round" stroke-miterlimit="10" d="M189.505,80.434
				c0,0-2.161-0.166-4.422,0.265c-2.262,0.431-3.802,1.706-3.802,1.706"/>
			<ellipse cx="185.468" cy="79.6" rx="1.21" ry="1.079"/>
		</g>
	</g>
	<ellipse fill="#FFCCFF" cx="179.895" cy="65.077" rx="4.29" ry="1.875"/>
</g>
<g>
	<g>
		<circle fill="#996699" stroke="#663366" stroke-miterlimit="10" cx="220.133" cy="76.961" r="15.537"/>
		<path fill="#CC99CC" d="M232.67,76c0,3.599-6.382,2.102-13.121,2c-6.371-0.096-13.12,1.402-13.12-2c0-8,5.874-13.12,13.12-13.12
			S232.67,68,232.67,76z"/>
		<circle fill="none" stroke="#FFFFFF" stroke-miterlimit="10" cx="220.167" cy="76.799" r="17.862"/>
		<g>
			
				<ellipse transform="matrix(0.9619 0.2733 -0.2733 0.9619 29.9482 -55.5278)" fill="#996699" cx="214.284" cy="79.731" rx="6.16" ry="3.044"/>
			<path fill="#FFFFFF" d="M218.727,82.055l-3.801-1.6l-4.422-0.248c0,0-0.62-0.082-0.62-1.158s0.916-1.389,0.916-1.389l4.364,0.752
				l3.594,2.024c0,0,0.367,0.012,0.439,0.681C219.271,81.785,218.727,82.055,218.727,82.055z"/>
			<path fill="none" stroke="#000000" stroke-linecap="round" stroke-miterlimit="10" d="M210.8,77.66c0,0,2.164,0.093,4.364,0.752
				c2.2,0.66,3.594,2.024,3.594,2.024"/>
			<path fill="none" stroke="#000000" stroke-linecap="round" stroke-miterlimit="10" d="M210.504,80.207
				c0,0,2.16-0.155,4.422,0.248c2.261,0.404,3.801,1.6,3.801,1.6"/>
			<ellipse cx="214.541" cy="79.425" rx="1.21" ry="1.012"/>
		</g>
		<g>
			
				<ellipse transform="matrix(-0.9619 0.2733 -0.2733 -0.9619 464.6462 94.7376)" fill="#996699" cx="225.725" cy="79.731" rx="6.16" ry="3.045"/>
			<path fill="#FFFFFF" d="M221.281,82.055l3.802-1.6l4.422-0.248c0,0,0.62-0.082,0.62-1.158s-0.916-1.389-0.916-1.389l-4.364,0.752
				l-3.595,2.024c0,0-0.365,0.012-0.439,0.681C220.737,81.785,221.281,82.055,221.281,82.055z"/>
			<path fill="none" stroke="#000000" stroke-linecap="round" stroke-miterlimit="10" d="M229.209,77.66
				c0,0-2.165,0.093-4.364,0.752c-2.2,0.66-3.595,2.024-3.595,2.024"/>
			<path fill="none" stroke="#000000" stroke-linecap="round" stroke-miterlimit="10" d="M229.505,80.207
				c0,0-2.161-0.155-4.422,0.248c-2.262,0.404-3.802,1.6-3.802,1.6"/>
			<ellipse cx="225.468" cy="79.425" rx="1.21" ry="1.012"/>
		</g>
	</g>
	<ellipse fill="#FFCCFF" cx="219.895" cy="65.808" rx="4.29" ry="1.759"/>
</g>
<ellipse transform="matrix(0.7393 -0.6734 0.6734 0.7393 -30.5863 51.3345)" fill="#FFFFFF" cx="51" cy="65.166" rx="6.25" ry="2.335"/>
<ellipse transform="matrix(0.7393 -0.6734 0.6734 0.7393 -19.4836 78.0102)" fill="#FFFFFF" cx="91" cy="64.166" rx="6.25" ry="2.335"/>
<ellipse transform="matrix(0.7393 -0.6734 0.6734 0.7393 -9.0544 104.9467)" fill="#FFFFFF" cx="131" cy="64.166" rx="6.25" ry="2.335"/>
<ellipse transform="matrix(0.7393 -0.6734 0.6734 0.7393 0.7015 132.1439)" fill="#FFFFFF" cx="171" cy="65.166" rx="6.25" ry="2.335"/>
<ellipse transform="matrix(0.7393 -0.6734 0.6734 0.7393 10.4574 159.341)" fill="#FFFFFF" cx="211" cy="66.166" rx="6.25" ry="2.335"/>
</svg>
